<svg width="80" height="80" viewBox="0 0 80 80" fill="none" xmlns="http://www.w3.org/2000/svg">
<rect width="80" height="80" rx="14" fill="#3B86C6" fill-opacity="0.1"/>
<path d="M51.25 31.8189V26.25C51.2492 25.5872 50.9856 24.9517 50.5169 24.4831C50.0483 24.0144 49.4128 23.7508 48.75 23.75H31.25C30.5872 23.7508 29.9517 24.0144 29.4831 24.4831C29.0144 24.9517 28.7508 25.5872 28.75 26.25V31.875C28.7509 32.2629 28.8417 32.6454 29.0152 32.9924C29.1887 33.3394 29.4402 33.6415 29.75 33.875L37.9167 40L29.7501 46.125C29.4402 46.3585 29.1887 46.6606 29.0152 47.0076C28.8417 47.3546 28.7509 47.737 28.75 48.125V53.75C28.7508 54.4128 29.0144 55.0483 29.4831 55.5169C29.9517 55.9856 30.5872 56.2492 31.25 56.25H48.75C49.4128 56.2492 50.0483 55.9856 50.5169 55.5169C50.9856 55.0483 51.2492 54.4128 51.25 53.75V48.1811C51.249 47.7947 51.1589 47.4138 50.9868 47.0679C50.8147 46.722 50.5651 46.4205 50.2575 46.1867L42.0729 40L50.2576 33.8133C50.5652 33.5795 50.8147 33.278 50.9868 32.9321C51.1589 32.5862 51.249 32.2053 51.25 31.8189ZM48.75 26.25V29.9993H31.25V26.25H48.75ZM48.75 53.75H31.25V48.125L39.9971 41.5647L48.75 48.1811V53.75Z" fill="#3B86C6"/>
</svg>
