<svg width="235" height="269" viewBox="0 0 235 269" fill="none" xmlns="http://www.w3.org/2000/svg">
<rect width="235" height="269" fill="#D4E2EB"/>
<g clip-path="url(#clip0_0_1)">
<rect width="1440" height="2026" transform="translate(-1040 -912)" fill="white"/>
<path opacity="0.2" d="M12.6818 210.636C10.5682 210.629 8.74242 210.14 7.20455 209.17C5.66667 208.201 4.48106 206.803 3.64773 204.977C2.81439 203.152 2.40152 200.962 2.40909 198.409C2.41667 195.848 2.83333 193.674 3.65909 191.886C4.49242 190.098 5.67424 188.739 7.20455 187.807C8.74242 186.875 10.5682 186.409 12.6818 186.409C14.7955 186.409 16.6212 186.879 18.1591 187.818C19.697 188.75 20.8826 190.11 21.7159 191.898C22.5492 193.686 22.9621 195.856 22.9545 198.409C22.9545 200.977 22.5379 203.174 21.7045 205C20.8712 206.826 19.6856 208.223 18.1477 209.193C16.6174 210.155 14.7955 210.636 12.6818 210.636ZM12.6818 205.5C13.7727 205.5 14.6667 204.932 15.3636 203.795C16.0682 202.652 16.4167 200.856 16.4091 198.409C16.4091 196.811 16.25 195.504 15.9318 194.489C15.6136 193.473 15.1742 192.723 14.6136 192.239C14.053 191.746 13.4091 191.5 12.6818 191.5C11.5909 191.5 10.7008 192.053 10.0114 193.159C9.32197 194.265 8.9697 196.015 8.95455 198.409C8.94697 200.038 9.10227 201.379 9.42045 202.432C9.73864 203.477 10.178 204.25 10.7386 204.75C11.3068 205.25 11.9545 205.5 12.6818 205.5ZM24.0932 206.364V201.455L33.4568 186.727H37.9114V193.273H35.3659L30.3205 201.273V201.455H44.1386V206.364H24.0932ZM35.4114 210V204.864L35.5477 202.727V186.727H41.4568V210H35.4114Z" fill="#3070A6"/>
<path d="M64.2 207.764C62.232 207.764 60.568 207.404 59.208 206.684C57.864 205.964 56.84 204.956 56.136 203.66C55.448 202.364 55.104 200.852 55.104 199.124C55.104 197.332 55.48 195.78 56.232 194.468C57 193.14 58.096 192.116 59.52 191.396C60.944 190.676 62.656 190.316 64.656 190.316C65.888 190.316 66.976 190.46 67.92 190.748C68.88 191.036 69.704 191.452 70.392 191.996L69.024 195.38C68.528 195.044 68.056 194.788 67.608 194.612C67.176 194.42 66.728 194.284 66.264 194.204C65.816 194.124 65.296 194.084 64.704 194.084C63.04 194.084 61.792 194.516 60.96 195.38C60.144 196.228 59.736 197.476 59.736 199.124C59.736 200.756 60.112 201.988 60.864 202.82C61.616 203.652 62.808 204.068 64.44 204.068C64.936 204.068 65.472 204.02 66.048 203.924C66.64 203.828 67.24 203.684 67.848 203.492L67.056 205.076V201.044H63.552V197.972H70.68V206.444C70.072 206.732 69.408 206.972 68.688 207.164C67.984 207.356 67.256 207.5 66.504 207.596C65.752 207.708 64.984 207.764 64.2 207.764ZM79.752 207.764C78.28 207.764 77.024 207.508 75.984 206.996C74.944 206.484 74.144 205.748 73.584 204.788C73.04 203.828 72.768 202.692 72.768 201.38C72.768 200.148 73.024 199.052 73.536 198.092C74.048 197.132 74.768 196.388 75.696 195.86C76.624 195.316 77.712 195.044 78.96 195.044C80.192 195.044 81.216 195.316 82.032 195.86C82.864 196.388 83.488 197.124 83.904 198.068C84.32 198.996 84.528 200.076 84.528 201.308V202.22H76.344V200.204H81.384L80.976 200.54C80.976 199.628 80.8 198.956 80.448 198.524C80.112 198.076 79.632 197.852 79.008 197.852C78.528 197.852 78.12 197.972 77.784 198.212C77.464 198.452 77.216 198.812 77.04 199.292C76.88 199.756 76.8 200.348 76.8 201.068V201.5C76.8 202.572 77.064 203.356 77.592 203.852C78.12 204.348 78.88 204.596 79.872 204.596C80.512 204.596 81.112 204.524 81.672 204.38C82.248 204.236 82.792 204.004 83.304 203.684L84.408 206.468C83.8 206.884 83.096 207.204 82.296 207.428C81.496 207.652 80.648 207.764 79.752 207.764ZM92.7084 207.764C90.9804 207.764 89.6764 207.356 88.7964 206.54C87.9324 205.708 87.5004 204.452 87.5004 202.772V198.452H85.2204V195.308H87.5004V192.428L91.7724 191.42V195.308H94.7484V198.452H91.7724V202.604C91.7724 203.308 91.9324 203.78 92.2524 204.02C92.5724 204.244 92.9564 204.356 93.4044 204.356C93.6764 204.356 93.9084 204.34 94.1004 204.308C94.3084 204.26 94.5244 204.196 94.7484 204.116V207.404C94.3964 207.548 94.0444 207.644 93.6924 207.692C93.3564 207.74 93.0284 207.764 92.7084 207.764ZM103.343 207.5V195.308H107.615V207.5H103.343ZM103.247 193.58V189.74H107.735V193.58H103.247ZM110.258 207.5V198.62C110.258 198.076 110.242 197.524 110.21 196.964C110.178 196.404 110.13 195.852 110.066 195.308H114.194L114.434 197.42H114.17C114.57 196.652 115.138 196.068 115.874 195.668C116.61 195.252 117.442 195.044 118.37 195.044C119.794 195.044 120.858 195.468 121.562 196.316C122.282 197.148 122.642 198.452 122.642 200.228V207.5H118.37V200.42C118.37 199.636 118.234 199.092 117.962 198.788C117.69 198.468 117.298 198.308 116.786 198.308C116.114 198.308 115.57 198.532 115.154 198.98C114.738 199.412 114.53 199.988 114.53 200.708V207.5H110.258ZM128.645 207.5L123.341 195.308H127.829L130.973 203.42H130.109L133.397 195.308H137.597L132.245 207.5H128.645ZM138.5 207.5V195.308H142.772V207.5H138.5ZM138.404 193.58V189.74H142.892V193.58H138.404ZM145.414 207.5V198.62C145.414 198.076 145.398 197.524 145.366 196.964C145.334 196.404 145.286 195.852 145.222 195.308H149.35L149.59 197.42H149.326C149.726 196.652 150.294 196.068 151.03 195.668C151.766 195.252 152.598 195.044 153.526 195.044C154.95 195.044 156.014 195.468 156.718 196.316C157.438 197.148 157.798 198.452 157.798 200.228V207.5H153.526V200.42C153.526 199.636 153.39 199.092 153.118 198.788C152.846 198.468 152.454 198.308 151.942 198.308C151.27 198.308 150.726 198.532 150.31 198.98C149.894 199.412 149.686 199.988 149.686 200.708V207.5H145.414ZM166.607 207.764C164.879 207.764 163.575 207.356 162.695 206.54C161.831 205.708 161.399 204.452 161.399 202.772V198.452H159.119V195.308H161.399V192.428L165.671 191.42V195.308H168.647V198.452H165.671V202.604C165.671 203.308 165.831 203.78 166.151 204.02C166.471 204.244 166.855 204.356 167.303 204.356C167.575 204.356 167.807 204.34 167.999 204.308C168.207 204.26 168.423 204.196 168.647 204.116V207.404C168.295 207.548 167.943 207.644 167.591 207.692C167.255 207.74 166.927 207.764 166.607 207.764ZM175.104 207.764C174.048 207.764 173.12 207.516 172.32 207.02C171.52 206.508 170.888 205.772 170.424 204.812C169.976 203.852 169.752 202.716 169.752 201.404C169.752 200.076 169.976 198.94 170.424 197.996C170.888 197.036 171.52 196.308 172.32 195.812C173.12 195.3 174.048 195.044 175.104 195.044C176.048 195.044 176.896 195.268 177.648 195.716C178.416 196.164 178.92 196.748 179.16 197.468H178.92L179.184 195.308H183.288C183.24 195.852 183.192 196.404 183.144 196.964C183.112 197.524 183.096 198.076 183.096 198.62V207.5H178.872L178.824 205.436H179.112C178.872 206.14 178.368 206.708 177.6 207.14C176.848 207.556 176.016 207.764 175.104 207.764ZM176.472 204.596C177.192 204.596 177.776 204.348 178.224 203.852C178.672 203.34 178.896 202.524 178.896 201.404C178.896 200.284 178.672 199.476 178.224 198.98C177.776 198.468 177.192 198.212 176.472 198.212C175.752 198.212 175.168 198.468 174.72 198.98C174.272 199.476 174.048 200.284 174.048 201.404C174.048 202.524 174.264 203.34 174.696 203.852C175.144 204.348 175.736 204.596 176.472 204.596ZM191.99 207.764C190.262 207.764 188.958 207.356 188.078 206.54C187.214 205.708 186.782 204.452 186.782 202.772V198.452H184.502V195.308H186.782V192.428L191.054 191.42V195.308H194.03V198.452H191.054V202.604C191.054 203.308 191.214 203.78 191.534 204.02C191.854 204.244 192.238 204.356 192.686 204.356C192.958 204.356 193.19 204.34 193.382 204.308C193.59 204.26 193.806 204.196 194.03 204.116V207.404C193.678 207.548 193.326 207.644 192.974 207.692C192.638 207.74 192.31 207.764 191.99 207.764ZM195.687 207.5V195.308H199.959V207.5H195.687ZM195.591 193.58V189.74H200.079V193.58H195.591ZM208.697 207.764C207.337 207.764 206.161 207.508 205.169 206.996C204.177 206.484 203.409 205.748 202.865 204.788C202.321 203.828 202.049 202.7 202.049 201.404C202.049 200.076 202.321 198.94 202.865 197.996C203.409 197.052 204.177 196.324 205.169 195.812C206.161 195.3 207.337 195.044 208.697 195.044C210.041 195.044 211.209 195.3 212.201 195.812C213.193 196.324 213.961 197.052 214.505 197.996C215.049 198.94 215.321 200.076 215.321 201.404C215.321 202.7 215.049 203.828 214.505 204.788C213.961 205.748 213.193 206.484 212.201 206.996C211.209 207.508 210.041 207.764 208.697 207.764ZM208.697 204.596C209.401 204.596 209.961 204.348 210.377 203.852C210.793 203.34 211.001 202.524 211.001 201.404C211.001 200.284 210.793 199.476 210.377 198.98C209.961 198.468 209.401 198.212 208.697 198.212C207.977 198.212 207.409 198.468 206.993 198.98C206.577 199.476 206.369 200.284 206.369 201.404C206.369 202.524 206.577 203.34 206.993 203.852C207.409 204.348 207.977 204.596 208.697 204.596ZM217.414 207.5V198.62C217.414 198.076 217.398 197.524 217.366 196.964C217.334 196.404 217.286 195.852 217.222 195.308H221.35L221.59 197.42H221.326C221.726 196.652 222.294 196.068 223.03 195.668C223.766 195.252 224.598 195.044 225.526 195.044C226.95 195.044 228.014 195.468 228.718 196.316C229.438 197.148 229.798 198.452 229.798 200.228V207.5H225.526V200.42C225.526 199.636 225.39 199.092 225.118 198.788C224.846 198.468 224.454 198.308 223.942 198.308C223.27 198.308 222.726 198.532 222.31 198.98C221.894 199.412 221.686 199.988 221.686 200.708V207.5H217.414Z" fill="#303757"/>
<path d="M6.778 241.162C5.758 241.162 4.834 241.036 4.006 240.784C3.178 240.52 2.458 240.148 1.846 239.668L2.476 238.192C2.884 238.504 3.304 238.762 3.736 238.966C4.18 239.17 4.648 239.326 5.14 239.434C5.644 239.53 6.19 239.578 6.778 239.578C7.786 239.578 8.524 239.398 8.992 239.038C9.472 238.678 9.712 238.204 9.712 237.616C9.712 237.112 9.544 236.722 9.208 236.446C8.884 236.17 8.308 235.948 7.48 235.78L5.518 235.384C4.354 235.144 3.484 234.754 2.908 234.214C2.344 233.662 2.062 232.912 2.062 231.964C2.062 231.196 2.266 230.524 2.674 229.948C3.082 229.372 3.646 228.928 4.366 228.616C5.098 228.304 5.95 228.148 6.922 228.148C7.822 228.148 8.65 228.28 9.406 228.544C10.162 228.796 10.798 229.174 11.314 229.678L10.702 231.1C10.162 230.632 9.586 230.29 8.974 230.074C8.362 229.846 7.666 229.732 6.886 229.732C5.962 229.732 5.236 229.924 4.708 230.308C4.192 230.692 3.934 231.214 3.934 231.874C3.934 232.402 4.096 232.816 4.42 233.116C4.756 233.416 5.308 233.644 6.076 233.8L8.038 234.178C9.25 234.43 10.144 234.82 10.72 235.348C11.296 235.864 11.584 236.578 11.584 237.49C11.584 238.222 11.386 238.864 10.99 239.416C10.606 239.968 10.054 240.4 9.334 240.712C8.614 241.012 7.762 241.162 6.778 241.162ZM17.9166 241.162C16.9326 241.162 16.0866 240.976 15.3786 240.604C14.6826 240.232 14.1426 239.698 13.7586 239.002C13.3866 238.294 13.2006 237.454 13.2006 236.482C13.2006 235.534 13.3806 234.706 13.7406 233.998C14.1126 233.29 14.6226 232.744 15.2706 232.36C15.9306 231.964 16.6926 231.766 17.5566 231.766C18.4086 231.766 19.1226 231.946 19.6986 232.306C20.2746 232.666 20.7126 233.176 21.0126 233.836C21.3126 234.484 21.4626 235.252 21.4626 236.14V236.716H14.6226V235.672H20.2206L19.9146 235.906C19.9146 235.006 19.7106 234.31 19.3026 233.818C18.9066 233.314 18.3306 233.062 17.5746 233.062C17.0106 233.062 16.5306 233.194 16.1346 233.458C15.7506 233.722 15.4566 234.1 15.2526 234.592C15.0486 235.072 14.9466 235.654 14.9466 236.338V236.518C14.9466 237.586 15.2046 238.39 15.7206 238.93C16.2486 239.47 16.9926 239.74 17.9526 239.74C18.4806 239.74 18.9726 239.668 19.4286 239.524C19.8966 239.368 20.3406 239.116 20.7606 238.768L21.3546 240.01C20.9346 240.382 20.4246 240.67 19.8246 240.874C19.2246 241.066 18.5886 241.162 17.9166 241.162ZM27.0228 241.162C26.2188 241.162 25.5168 240.976 24.9168 240.604C24.3168 240.232 23.8488 239.692 23.5128 238.984C23.1888 238.276 23.0268 237.436 23.0268 236.464C23.0268 235.48 23.1888 234.64 23.5128 233.944C23.8488 233.248 24.3168 232.714 24.9168 232.342C25.5168 231.958 26.2188 231.766 27.0228 231.766C27.8148 231.766 28.5048 231.964 29.0928 232.36C29.6808 232.756 30.0708 233.296 30.2628 233.98H30.0648L30.2448 231.928H32.0088C31.9728 232.3 31.9368 232.672 31.9008 233.044C31.8768 233.404 31.8648 233.758 31.8648 234.106V241H30.0468V238.984H30.2448C30.0528 239.656 29.6568 240.19 29.0568 240.586C28.4688 240.97 27.7908 241.162 27.0228 241.162ZM27.4728 239.74C28.2528 239.74 28.8768 239.464 29.3448 238.912C29.8248 238.36 30.0648 237.544 30.0648 236.464C30.0648 235.384 29.8248 234.574 29.3448 234.034C28.8768 233.482 28.2528 233.206 27.4728 233.206C26.6808 233.206 26.0448 233.482 25.5648 234.034C25.0968 234.574 24.8628 235.384 24.8628 236.464C24.8628 237.544 25.0968 238.36 25.5648 238.912C26.0328 239.464 26.6688 239.74 27.4728 239.74ZM34.4815 241V234.178C34.4815 233.806 34.4695 233.434 34.4455 233.062C34.4335 232.678 34.4095 232.3 34.3735 231.928H36.1375L36.3355 234.268H36.0475C36.1675 233.704 36.3715 233.236 36.6595 232.864C36.9475 232.492 37.2955 232.216 37.7035 232.036C38.1235 231.856 38.5615 231.766 39.0175 231.766C39.2095 231.766 39.3715 231.778 39.5035 231.802C39.6355 231.814 39.7675 231.838 39.8995 231.874L39.8815 233.494C39.6775 233.41 39.4975 233.362 39.3415 233.35C39.1975 233.326 39.0175 233.314 38.8015 233.314C38.2735 233.314 37.8235 233.434 37.4515 233.674C37.0795 233.902 36.7975 234.214 36.6055 234.61C36.4135 235.006 36.3175 235.432 36.3175 235.888V241H34.4815ZM45.1577 241.162C44.2457 241.162 43.4477 240.976 42.7637 240.604C42.0917 240.22 41.5697 239.674 41.1977 238.966C40.8377 238.246 40.6577 237.394 40.6577 236.41C40.6577 235.438 40.8437 234.604 41.2157 233.908C41.5877 233.212 42.1097 232.684 42.7817 232.324C43.4537 231.952 44.2457 231.766 45.1577 231.766C45.7457 231.766 46.3157 231.868 46.8677 232.072C47.4197 232.264 47.8757 232.54 48.2357 232.9L47.6417 234.178C47.3057 233.854 46.9277 233.614 46.5077 233.458C46.0877 233.29 45.6797 233.206 45.2837 233.206C44.4197 233.206 43.7417 233.482 43.2497 234.034C42.7577 234.586 42.5117 235.384 42.5117 236.428C42.5117 237.484 42.7577 238.294 43.2497 238.858C43.7417 239.422 44.4197 239.704 45.2837 239.704C45.6677 239.704 46.0697 239.632 46.4897 239.488C46.9097 239.332 47.2937 239.086 47.6417 238.75L48.2357 240.028C47.8637 240.388 47.3957 240.67 46.8317 240.874C46.2797 241.066 45.7217 241.162 45.1577 241.162ZM50.1621 241V227.752H51.9801V233.854H51.7281C51.9921 233.17 52.4181 232.654 53.0061 232.306C53.5941 231.946 54.2721 231.766 55.0401 231.766C56.1201 231.766 56.9241 232.066 57.4521 232.666C57.9801 233.254 58.2441 234.148 58.2441 235.348V241H56.4261V235.456C56.4261 234.676 56.2701 234.112 55.9581 233.764C55.6581 233.404 55.1781 233.224 54.5181 233.224C53.7501 233.224 53.1321 233.464 52.6641 233.944C52.2081 234.412 51.9801 235.036 51.9801 235.816V241H50.1621ZM66.1708 241V233.332H64.4068V231.928H66.6748L66.1708 232.396V230.956C66.1708 229.888 66.4408 229.078 66.9808 228.526C67.5208 227.962 68.3128 227.68 69.3568 227.68C69.6088 227.68 69.8728 227.698 70.1488 227.734C70.4248 227.77 70.6528 227.83 70.8328 227.914V229.39C70.6888 229.33 70.5088 229.282 70.2928 229.246C70.0888 229.198 69.8788 229.174 69.6628 229.174C69.3148 229.174 69.0148 229.246 68.7628 229.39C68.5108 229.522 68.3128 229.726 68.1688 230.002C68.0368 230.278 67.9708 230.632 67.9708 231.064V232.288L67.7008 231.928H70.4368V233.332H67.9888V241H66.1708ZM75.6009 241.162C74.7009 241.162 73.9209 240.976 73.2609 240.604C72.6009 240.22 72.0909 239.68 71.7309 238.984C71.3709 238.276 71.1909 237.436 71.1909 236.464C71.1909 235.492 71.3709 234.658 71.7309 233.962C72.0909 233.254 72.6009 232.714 73.2609 232.342C73.9209 231.958 74.7009 231.766 75.6009 231.766C76.5009 231.766 77.2809 231.958 77.9409 232.342C78.6129 232.714 79.1289 233.254 79.4889 233.962C79.8609 234.658 80.0469 235.492 80.0469 236.464C80.0469 237.436 79.8609 238.276 79.4889 238.984C79.1289 239.68 78.6129 240.22 77.9409 240.604C77.2809 240.976 76.5009 241.162 75.6009 241.162ZM75.6009 239.74C76.3929 239.74 77.0229 239.464 77.4909 238.912C77.9589 238.36 78.1929 237.544 78.1929 236.464C78.1929 235.384 77.9589 234.574 77.4909 234.034C77.0229 233.482 76.3929 233.206 75.6009 233.206C74.8209 233.206 74.1969 233.482 73.7289 234.034C73.2609 234.574 73.0269 235.384 73.0269 236.464C73.0269 237.544 73.2609 238.36 73.7289 238.912C74.1969 239.464 74.8209 239.74 75.6009 239.74ZM82.1358 241V234.178C82.1358 233.806 82.1238 233.434 82.0998 233.062C82.0878 232.678 82.0638 232.3 82.0278 231.928H83.7918L83.9898 234.268H83.7018C83.8218 233.704 84.0258 233.236 84.3138 232.864C84.6018 232.492 84.9498 232.216 85.3578 232.036C85.7778 231.856 86.2158 231.766 86.6718 231.766C86.8638 231.766 87.0258 231.778 87.1578 231.802C87.2898 231.814 87.4218 231.838 87.5538 231.874L87.5358 233.494C87.3318 233.41 87.1518 233.362 86.9958 233.35C86.8518 233.326 86.6718 233.314 86.4558 233.314C85.9278 233.314 85.4778 233.434 85.1058 233.674C84.7338 233.902 84.4518 234.214 84.2598 234.61C84.0678 235.006 83.9718 235.432 83.9718 235.888V241H82.1358ZM96.4198 241L92.5318 231.928H94.4758L97.5358 239.506H97.0138L100.128 231.928H101.982L98.0758 241H96.4198ZM106.722 241.162C105.918 241.162 105.216 240.976 104.616 240.604C104.016 240.232 103.548 239.692 103.212 238.984C102.888 238.276 102.726 237.436 102.726 236.464C102.726 235.48 102.888 234.64 103.212 233.944C103.548 233.248 104.016 232.714 104.616 232.342C105.216 231.958 105.918 231.766 106.722 231.766C107.514 231.766 108.204 231.964 108.792 232.36C109.38 232.756 109.77 233.296 109.962 233.98H109.764L109.944 231.928H111.708C111.672 232.3 111.636 232.672 111.6 233.044C111.576 233.404 111.564 233.758 111.564 234.106V241H109.746V238.984H109.944C109.752 239.656 109.356 240.19 108.756 240.586C108.168 240.97 107.49 241.162 106.722 241.162ZM107.172 239.74C107.952 239.74 108.576 239.464 109.044 238.912C109.524 238.36 109.764 237.544 109.764 236.464C109.764 235.384 109.524 234.574 109.044 234.034C108.576 233.482 107.952 233.206 107.172 233.206C106.38 233.206 105.744 233.482 105.264 234.034C104.796 234.574 104.562 235.384 104.562 236.464C104.562 237.544 104.796 238.36 105.264 238.912C105.732 239.464 106.368 239.74 107.172 239.74ZM118.195 241.162C117.283 241.162 116.485 240.976 115.801 240.604C115.129 240.22 114.607 239.674 114.235 238.966C113.875 238.246 113.695 237.394 113.695 236.41C113.695 235.438 113.881 234.604 114.253 233.908C114.625 233.212 115.147 232.684 115.819 232.324C116.491 231.952 117.283 231.766 118.195 231.766C118.783 231.766 119.353 231.868 119.905 232.072C120.457 232.264 120.913 232.54 121.273 232.9L120.679 234.178C120.343 233.854 119.965 233.614 119.545 233.458C119.125 233.29 118.717 233.206 118.321 233.206C117.457 233.206 116.779 233.482 116.287 234.034C115.795 234.586 115.549 235.384 115.549 236.428C115.549 237.484 115.795 238.294 116.287 238.858C116.779 239.422 117.457 239.704 118.321 239.704C118.705 239.704 119.107 239.632 119.527 239.488C119.947 239.332 120.331 239.086 120.679 238.75L121.273 240.028C120.901 240.388 120.433 240.67 119.869 240.874C119.317 241.066 118.759 241.162 118.195 241.162ZM126.603 241.162C125.799 241.162 125.097 240.976 124.497 240.604C123.897 240.232 123.429 239.692 123.093 238.984C122.769 238.276 122.607 237.436 122.607 236.464C122.607 235.48 122.769 234.64 123.093 233.944C123.429 233.248 123.897 232.714 124.497 232.342C125.097 231.958 125.799 231.766 126.603 231.766C127.395 231.766 128.085 231.964 128.673 232.36C129.261 232.756 129.651 233.296 129.843 233.98H129.645L129.825 231.928H131.589C131.553 232.3 131.517 232.672 131.481 233.044C131.457 233.404 131.445 233.758 131.445 234.106V241H129.627V238.984H129.825C129.633 239.656 129.237 240.19 128.637 240.586C128.049 240.97 127.371 241.162 126.603 241.162ZM127.053 239.74C127.833 239.74 128.457 239.464 128.925 238.912C129.405 238.36 129.645 237.544 129.645 236.464C129.645 235.384 129.405 234.574 128.925 234.034C128.457 233.482 127.833 233.206 127.053 233.206C126.261 233.206 125.625 233.482 125.145 234.034C124.677 234.574 124.443 235.384 124.443 236.464C124.443 237.544 124.677 238.36 125.145 238.912C125.613 239.464 126.249 239.74 127.053 239.74ZM134.098 241V234.106C134.098 233.758 134.08 233.404 134.044 233.044C134.02 232.672 133.99 232.3 133.954 231.928H135.718L135.88 233.836H135.664C135.94 233.164 136.366 232.654 136.942 232.306C137.518 231.946 138.184 231.766 138.94 231.766C140.008 231.766 140.812 232.06 141.352 232.648C141.904 233.236 142.18 234.148 142.18 235.384V241H140.362V235.492C140.362 234.688 140.2 234.112 139.876 233.764C139.564 233.404 139.084 233.224 138.436 233.224C137.668 233.224 137.056 233.464 136.6 233.944C136.144 234.412 135.916 235.048 135.916 235.852V241H134.098ZM148.746 241.162C147.834 241.162 147.036 240.976 146.352 240.604C145.68 240.22 145.158 239.674 144.786 238.966C144.426 238.246 144.246 237.394 144.246 236.41C144.246 235.438 144.432 234.604 144.804 233.908C145.176 233.212 145.698 232.684 146.37 232.324C147.042 231.952 147.834 231.766 148.746 231.766C149.334 231.766 149.904 231.868 150.456 232.072C151.008 232.264 151.464 232.54 151.824 232.9L151.23 234.178C150.894 233.854 150.516 233.614 150.096 233.458C149.676 233.29 149.268 233.206 148.872 233.206C148.008 233.206 147.33 233.482 146.838 234.034C146.346 234.586 146.1 235.384 146.1 236.428C146.1 237.484 146.346 238.294 146.838 238.858C147.33 239.422 148.008 239.704 148.872 239.704C149.256 239.704 149.658 239.632 150.078 239.488C150.498 239.332 150.882 239.086 151.23 238.75L151.824 240.028C151.452 240.388 150.984 240.67 150.42 240.874C149.868 241.066 149.31 241.162 148.746 241.162ZM153.585 245.086L153.153 243.61C153.717 243.49 154.185 243.346 154.557 243.178C154.941 243.01 155.259 242.788 155.511 242.512C155.763 242.248 155.979 241.906 156.159 241.486L156.609 240.424L156.573 241.162L152.631 231.928H154.575L157.635 239.488H157.149L160.209 231.928H162.081L157.923 241.648C157.659 242.248 157.377 242.752 157.077 243.16C156.777 243.568 156.453 243.898 156.105 244.15C155.757 244.402 155.373 244.6 154.953 244.744C154.533 244.888 154.077 245.002 153.585 245.086ZM171.833 241.162C170.849 241.162 170.105 240.898 169.601 240.37C169.097 239.83 168.845 239.026 168.845 237.958V233.332H167.081V231.928H168.845V229.534L170.663 229.048V231.928H173.183V233.332H170.663V237.796C170.663 238.468 170.783 238.948 171.023 239.236C171.263 239.524 171.611 239.668 172.067 239.668C172.295 239.668 172.493 239.65 172.661 239.614C172.841 239.566 173.003 239.512 173.147 239.452V240.928C172.967 241 172.757 241.054 172.517 241.09C172.277 241.138 172.049 241.162 171.833 241.162ZM174.844 241V227.752H176.662V233.854H176.41C176.674 233.17 177.1 232.654 177.688 232.306C178.276 231.946 178.954 231.766 179.722 231.766C180.802 231.766 181.606 232.066 182.134 232.666C182.662 233.254 182.926 234.148 182.926 235.348V241H181.108V235.456C181.108 234.676 180.952 234.112 180.64 233.764C180.34 233.404 179.86 233.224 179.2 233.224C178.432 233.224 177.814 233.464 177.346 233.944C176.89 234.412 176.662 235.036 176.662 235.816V241H174.844ZM188.988 241.162C188.184 241.162 187.482 240.976 186.882 240.604C186.282 240.232 185.814 239.692 185.478 238.984C185.154 238.276 184.992 237.436 184.992 236.464C184.992 235.48 185.154 234.64 185.478 233.944C185.814 233.248 186.282 232.714 186.882 232.342C187.482 231.958 188.184 231.766 188.988 231.766C189.78 231.766 190.47 231.964 191.058 232.36C191.646 232.756 192.036 233.296 192.228 233.98H192.03L192.21 231.928H193.974C193.938 232.3 193.902 232.672 193.866 233.044C193.842 233.404 193.83 233.758 193.83 234.106V241H192.012V238.984H192.21C192.018 239.656 191.622 240.19 191.022 240.586C190.434 240.97 189.756 241.162 188.988 241.162ZM189.438 239.74C190.218 239.74 190.842 239.464 191.31 238.912C191.79 238.36 192.03 237.544 192.03 236.464C192.03 235.384 191.79 234.574 191.31 234.034C190.842 233.482 190.218 233.206 189.438 233.206C188.646 233.206 188.01 233.482 187.53 234.034C187.062 234.574 186.828 235.384 186.828 236.464C186.828 237.544 187.062 238.36 187.53 238.912C187.998 239.464 188.634 239.74 189.438 239.74ZM200.01 241.162C199.026 241.162 198.282 240.898 197.778 240.37C197.274 239.83 197.022 239.026 197.022 237.958V233.332H195.258V231.928H197.022V229.534L198.84 229.048V231.928H201.36V233.332H198.84V237.796C198.84 238.468 198.96 238.948 199.2 239.236C199.44 239.524 199.788 239.668 200.244 239.668C200.472 239.668 200.67 239.65 200.838 239.614C201.018 239.566 201.18 239.512 201.324 239.452V240.928C201.144 241 200.934 241.054 200.694 241.09C200.454 241.138 200.226 241.162 200.01 241.162ZM2.062 268.086L1.63 266.61C2.194 266.49 2.662 266.346 3.034 266.178C3.418 266.01 3.736 265.788 3.988 265.512C4.24 265.248 4.456 264.906 4.636 264.486L5.086 263.424L5.05 264.162L1.108 254.928H3.052L6.112 262.488H5.626L8.686 254.928H10.558L6.4 264.648C6.136 265.248 5.854 265.752 5.554 266.16C5.254 266.568 4.93 266.898 4.582 267.15C4.234 267.402 3.85 267.6 3.43 267.744C3.01 267.888 2.554 268.002 2.062 268.086ZM15.7122 264.162C14.8122 264.162 14.0322 263.976 13.3722 263.604C12.7122 263.22 12.2022 262.68 11.8422 261.984C11.4822 261.276 11.3022 260.436 11.3022 259.464C11.3022 258.492 11.4822 257.658 11.8422 256.962C12.2022 256.254 12.7122 255.714 13.3722 255.342C14.0322 254.958 14.8122 254.766 15.7122 254.766C16.6122 254.766 17.3922 254.958 18.0522 255.342C18.7242 255.714 19.2402 256.254 19.6002 256.962C19.9722 257.658 20.1582 258.492 20.1582 259.464C20.1582 260.436 19.9722 261.276 19.6002 261.984C19.2402 262.68 18.7242 263.22 18.0522 263.604C17.3922 263.976 16.6122 264.162 15.7122 264.162ZM15.7122 262.74C16.5042 262.74 17.1342 262.464 17.6022 261.912C18.0702 261.36 18.3042 260.544 18.3042 259.464C18.3042 258.384 18.0702 257.574 17.6022 257.034C17.1342 256.482 16.5042 256.206 15.7122 256.206C14.9322 256.206 14.3082 256.482 13.8402 257.034C13.3722 257.574 13.1382 258.384 13.1382 259.464C13.1382 260.544 13.3722 261.36 13.8402 261.912C14.3082 262.464 14.9322 262.74 15.7122 262.74ZM25.5052 264.162C24.4132 264.162 23.5912 263.868 23.0392 263.28C22.4992 262.68 22.2292 261.762 22.2292 260.526V254.928H24.0472V260.49C24.0472 261.246 24.2032 261.804 24.5152 262.164C24.8272 262.524 25.3012 262.704 25.9372 262.704C26.6572 262.704 27.2392 262.464 27.6832 261.984C28.1272 261.504 28.3492 260.868 28.3492 260.076V254.928H30.1672V264H28.4032V262.056H28.6372C28.3852 262.728 27.9832 263.25 27.4312 263.622C26.8792 263.982 26.2372 264.162 25.5052 264.162ZM37.6289 264V250.752H39.4469V264H37.6289ZM42.1113 264V254.928H43.9293V264H42.1113ZM41.9673 253.038V251.148H44.0733V253.038H41.9673ZM46.5937 264V250.752H48.4117V258.888H48.4477L52.4077 254.928H54.6577L49.8697 259.698L49.8877 258.888L55.0537 264H52.7497L48.4477 259.842H48.4117V264H46.5937ZM60.1744 264.162C59.1904 264.162 58.3444 263.976 57.6364 263.604C56.9404 263.232 56.4004 262.698 56.0164 262.002C55.6444 261.294 55.4584 260.454 55.4584 259.482C55.4584 258.534 55.6384 257.706 55.9984 256.998C56.3704 256.29 56.8804 255.744 57.5284 255.36C58.1884 254.964 58.9504 254.766 59.8144 254.766C60.6664 254.766 61.3804 254.946 61.9564 255.306C62.5324 255.666 62.9704 256.176 63.2704 256.836C63.5704 257.484 63.7204 258.252 63.7204 259.14V259.716H56.8804V258.672H62.4784L62.1724 258.906C62.1724 258.006 61.9684 257.31 61.5604 256.818C61.1644 256.314 60.5884 256.062 59.8324 256.062C59.2684 256.062 58.7884 256.194 58.3924 256.458C58.0084 256.722 57.7144 257.1 57.5104 257.592C57.3064 258.072 57.2044 258.654 57.2044 259.338V259.518C57.2044 260.586 57.4624 261.39 57.9784 261.93C58.5064 262.47 59.2504 262.74 60.2104 262.74C60.7384 262.74 61.2304 262.668 61.6864 262.524C62.1544 262.368 62.5984 262.116 63.0184 261.768L63.6124 263.01C63.1924 263.382 62.6824 263.67 62.0824 263.874C61.4824 264.066 60.8464 264.162 60.1744 264.162Z" fill="#8C8F9F"/>
<g clip-path="url(#clip1_0_1)">
<path d="M117.921 169.004C164.822 169.004 202.842 131.171 202.842 84.502C202.842 37.8328 164.822 0 117.921 0C71.0204 0 33 37.8328 33 84.502C33 131.171 71.0204 169.004 117.921 169.004Z" fill="#F3F7FC"/>
<path d="M150.403 60.3335L149.726 59.4125L115.761 13.1607L115.084 12.2397C113.778 10.4656 111.274 10.0748 109.491 11.3746L108.433 12.144L36.2815 64.6154L35.2237 65.3849C34.9993 65.5483 34.799 65.7278 34.6187 65.9231C34.4945 66.0587 34.3823 66.2062 34.2782 66.3577C33.9536 66.8321 33.7373 67.3664 33.6411 67.9245C33.6371 67.9564 33.6291 67.9923 33.6251 68.0242C33.589 68.2634 33.573 68.5066 33.585 68.7498C33.589 68.8774 33.601 69.005 33.6171 69.1325C33.6531 69.3877 33.7092 69.6389 33.7974 69.8861C33.9256 70.2568 34.1099 70.6157 34.3543 70.9466L35.0314 71.8675L54.3154 98.1252L68.9998 118.119L69.6769 119.04C70.9831 120.815 73.4873 121.205 75.2702 119.906L76.328 119.136L148.48 66.6687L149.538 65.8992C151.321 64.6034 151.709 62.1116 150.403 60.3335Z" fill="#3B86C6"/>
<path d="M110.357 7.29202L109.299 8.06148L37.1469 60.5289L36.0892 61.2983C34.3062 62.5981 33.9135 65.0899 35.2197 66.864L35.8968 67.785L69.8653 114.037L70.5424 114.958C71.8486 116.732 74.3527 117.123 76.1357 115.823L77.1934 115.053L149.345 62.5861L150.403 61.8166C152.186 60.5169 152.579 58.0251 151.272 56.2509L150.595 55.33L116.627 9.07415L115.95 8.15318C114.648 6.37902 112.143 5.99229 110.357 7.29202Z" fill="#FF931D"/>
<path d="M148.668 61.6611L75.4586 114.898C73.6756 116.198 71.1715 115.807 69.8653 114.033L35.2237 66.86C33.9176 65.0859 34.3102 62.5941 36.0932 61.2943L109.303 8.05749C111.086 6.75777 113.59 7.14848 114.896 8.92265L149.542 56.0955C150.844 57.8736 150.455 60.3654 148.668 61.6611Z" fill="#FFB31A"/>
<path d="M92.5327 71.8347C98.1161 71.5293 102.393 66.7777 102.087 61.2219C101.78 55.6661 97.0044 51.4098 91.421 51.7153C85.8376 52.0207 81.5603 56.7723 81.8673 62.3281C82.1742 67.884 86.9493 72.1402 92.5327 71.8347Z" fill="#FFC82E"/>
<path d="M188.514 81.1131C189.396 79.6061 188.891 77.6725 187.38 76.7874L180.649 72.8324C181.743 70.9865 180.545 68.2674 177.973 66.7564C175.4 65.2453 172.428 65.5165 171.334 67.3584L164.603 63.4034C163.092 62.5143 161.149 63.0087 160.247 64.5038L144.758 55.4017L99.1578 132.237L158.404 167.05L204.004 90.2112L188.514 81.1131Z" fill="#3B86C6"/>
<path d="M202.842 85.3246L143.596 50.5113L97.9957 127.351L157.241 162.164L202.842 85.3246Z" fill="#29477C"/>
<path d="M195.464 87.5176L145.23 57.9997L105.374 125.158L155.608 154.676L195.464 87.5176Z" fill="#FFE6CA"/>
<path d="M184.255 81.4401L155.984 64.8267L159.069 59.6278C159.967 58.1208 161.918 57.6184 163.437 58.5075L186.214 71.8915C187.729 72.7845 188.234 74.7261 187.34 76.2372L184.255 81.4401Z" fill="#0D1B35"/>
<path d="M179.488 67.9335C180.583 66.0887 179.385 63.3678 176.813 61.8562C174.241 60.3447 171.268 60.6149 170.173 62.4597C169.078 64.3046 170.276 67.0255 172.848 68.537C175.421 70.0486 178.394 69.7784 179.488 67.9335Z" fill="#0D1B35"/>
<path d="M153.769 6.53846L152.442 4.34169C152.062 3.70777 151.236 3.50444 150.599 3.8832L149.101 4.77626C148.464 5.15501 148.259 5.97631 148.64 6.61022L149.966 8.807L153.769 6.53846Z" fill="#3B86C6"/>
<path d="M154.57 8.72725L154.87 8.54784C154.975 8.48405 155.011 8.34849 154.947 8.24483L153.993 6.66204C153.929 6.55838 153.793 6.5225 153.688 6.58629L150.046 8.75914C149.942 8.82293 149.906 8.95849 149.97 9.06214L150.924 10.6449C150.988 10.7486 151.124 10.7845 151.228 10.7207L154.57 8.72725Z" fill="#3B86C6"/>
<path d="M188.27 66.2938L186.727 61.2305C186.727 61.2305 186.727 61.2305 186.723 61.2305H186.727L154.951 8.5L151.529 10.5413L151.148 10.7685L182.929 63.4951H182.933L186.771 67.3065L189.372 69.89L188.27 66.2938ZM184.199 62.7415C184.199 62.7375 184.199 62.7415 184.199 62.7415V62.7415Z" fill="#3B86C6"/>
<path d="M183.371 62.6209L187.224 60.4422L156.693 6.98651L152.84 9.16524L183.371 62.6209Z" fill="#FFC82E"/>
<path d="M151.785 7.14049L155.479 5.05136C155.588 4.99156 155.72 5.02744 155.78 5.13509L156.697 6.7418C156.758 6.84945 156.722 6.98101 156.613 7.04082L152.919 9.12994C152.811 9.18975 152.679 9.15386 152.619 9.04622L151.701 7.4395C151.641 7.33186 151.677 7.20029 151.785 7.14049Z" fill="#FFF4E9"/>
<path d="M150.936 3.13368L152.454 2.2765C153.1 1.9097 153.921 2.13696 154.285 2.77884L155.56 5.00751L151.705 7.18834L150.431 4.95967C150.066 4.31379 150.291 3.49648 150.936 3.13368Z" fill="#D83E3A"/>
<path d="M186.244 61.1152L186.885 60.7526L156.301 7.21375L155.66 7.57629L186.244 61.1152Z" fill="#FFB31A"/>
<path d="M185.026 61.8042L185.667 61.4417L155.082 7.90284L154.441 8.26538L185.026 61.8042Z" fill="#FFB31A"/>
<path d="M183.803 62.4925L184.444 62.13L153.859 8.59111L153.218 8.95365L183.803 62.4925Z" fill="#FFB31A"/>
<path d="M183.374 62.6259C183.694 62.4425 183.474 62.0598 183.798 61.8804C184.119 61.697 184.339 62.0837 184.66 61.9003C184.98 61.7169 184.76 61.3342 185.081 61.1548C185.401 60.9754 185.622 61.3581 185.942 61.1747C186.263 60.9913 186.042 60.6086 186.363 60.4292C186.683 60.2458 186.904 60.6325 187.224 60.4491L188.647 65.5443L189.656 69.1684L187.12 66.5251L183.374 62.6259Z" fill="#FFF4E9"/>
<path d="M187.12 66.5251C187.304 66.2301 187.557 65.9829 187.857 65.8115C188.098 65.6719 188.37 65.5802 188.647 65.5443L189.656 69.1684L187.12 66.5251Z" fill="#0D1B35"/>
<path d="M127.561 33.6044L103.642 107.149L158.652 124.864L182.571 51.3193L127.561 33.6044Z" fill="#FFF4E9"/>
<path d="M181.106 47.9661L126.096 30.2512L102.177 103.796L157.187 121.511L181.106 47.9661Z" fill="#FFF4E9"/>
<path d="M142.613 39.7274L128.482 35.1768L122.571 53.3534L136.701 57.904L142.613 39.7274Z" fill="#D83E3A"/>
<path d="M132.982 38.8561C131.772 39.0874 130.686 39.825 130.069 40.8456C129.212 42.2609 129.244 44.1029 128.222 45.4146C127.806 45.9488 127.245 46.3595 126.7 46.7741C126.159 47.1927 125.618 47.6392 125.281 48.2253C124.941 48.8114 124.833 49.5609 125.169 50.1629C125.47 50.7012 126.063 51.0281 126.636 51.2992C128.547 52.2002 130.598 52.8102 132.69 53.1013C133.443 53.2049 134.228 53.2687 134.941 53.0295C135.891 52.7106 136.572 51.8813 136.921 50.9763C137.269 50.0712 137.333 49.0785 137.369 48.1057C137.405 47.1329 137.417 46.1442 137.67 45.2073C137.834 44.6052 138.071 43.9992 138.307 43.4211C138.523 42.8949 138.748 42.4005 138.788 41.8184C138.824 41.3081 138.72 40.7738 138.419 40.3433C138.139 39.9406 137.698 39.6535 137.221 39.498C136.817 39.3625 136.424 39.3744 136.011 39.3106C135.739 39.2668 135.486 39.0914 135.214 39.0156C134.485 38.8043 133.727 38.7126 132.982 38.8561Z" fill="#1A0F24"/>
<path d="M134.553 51.7537C136.207 52.9338 135.418 58.3001 135.418 58.3001C135.418 58.3001 134.1 59.1454 131.992 58.4517L134.553 51.7537Z" fill="#FFB31A"/>
<path d="M130.153 72.4815C130.089 72.5014 130.025 72.5174 129.961 72.5373C126.808 73.3227 122.172 70.8509 119.928 69.4873C119.808 69.4156 119.7 69.3478 119.596 69.28C118.979 68.8973 118.614 68.6381 118.614 68.6381C118.646 68.5225 118.686 68.3949 118.734 68.2594L118.758 68.1916C118.835 67.9723 118.919 67.7291 119.015 67.462C119.151 67.0952 119.311 66.6925 119.488 66.254C119.58 66.0267 119.672 65.7915 119.776 65.5483C119.932 65.1696 120.101 64.7709 120.277 64.3562C120.373 64.129 120.473 63.8937 120.574 63.6585C120.742 63.2718 120.914 62.8771 121.094 62.4744C121.195 62.2432 121.299 62.008 121.407 61.7767C121.579 61.39 121.755 60.9953 121.932 60.6006C122.032 60.3693 122.14 60.1381 122.244 59.9069C122.425 59.5122 122.601 59.1175 122.781 58.7267C122.885 58.4955 122.994 58.2683 123.098 58.037C123.262 57.6742 123.426 57.3194 123.591 56.9645C123.611 56.9287 123.627 56.8928 123.643 56.8569C123.687 56.7612 123.731 56.6655 123.775 56.5659C123.839 56.4303 123.899 56.2987 123.963 56.1712C123.991 56.1074 124.019 56.0516 124.047 55.9917C124.107 55.8522 124.171 55.7167 124.236 55.5851L124.24 55.5771C124.332 55.3897 124.416 55.1984 124.504 55.015C124.512 55.007 124.512 55.003 124.512 54.999C124.576 54.8635 124.64 54.7319 124.7 54.6003C124.744 54.5007 124.793 54.405 124.837 54.3093C124.881 54.2176 124.921 54.1259 124.965 54.0382C125.033 53.8946 125.101 53.7471 125.165 53.6036C125.241 53.4441 125.313 53.2847 125.39 53.1332C125.418 53.0734 125.446 53.0175 125.47 52.9577C125.55 52.7823 125.634 52.6149 125.714 52.4434C125.914 52.0208 126.103 51.6221 126.267 51.2713C126.391 51.0241 126.499 50.7889 126.596 50.5815C126.9 49.9397 127.104 49.521 127.16 49.4054C127.164 49.3974 127.164 49.3935 127.168 49.3935L127.176 49.3735L127.521 49.3775L127.549 49.3735H128.779H128.995H129.304H129.733L129.913 49.3695L132.349 50.155L132.71 50.4181L132.778 50.4659L133.17 50.753L133.315 50.8566L134.136 51.4507L134.284 51.5543L134.565 51.7577C134.557 51.7896 134.557 51.8215 134.553 51.8494C134.489 52.2281 134.412 52.6587 134.32 53.1371C134.276 53.3764 134.228 53.6275 134.18 53.8827C134.104 54.2893 134.024 54.7159 133.932 55.1665C133.884 55.4097 133.832 55.6568 133.783 55.908C133.767 55.9678 133.759 56.0197 133.751 56.0755C133.719 56.219 133.687 56.3625 133.659 56.51C133.619 56.7054 133.579 56.9008 133.535 57.1041C133.531 57.132 133.527 57.1559 133.519 57.1838C133.515 57.1998 133.515 57.2117 133.511 57.2277C133.487 57.3353 133.467 57.439 133.451 57.5466C133.419 57.6742 133.395 57.8018 133.367 57.9294C133.355 57.9972 133.335 58.0689 133.319 58.1407C133.291 58.2882 133.259 58.4397 133.227 58.5872C133.182 58.7826 133.138 58.9819 133.102 59.1813C133.098 59.1892 133.102 59.1932 133.098 59.2012C133.062 59.3447 133.034 59.4843 133.006 59.6278C132.986 59.7354 132.958 59.8391 132.938 59.9427C132.87 60.2497 132.806 60.5647 132.742 60.8757C132.718 60.9873 132.694 61.1029 132.67 61.2186C132.618 61.4618 132.565 61.7089 132.509 61.9521C132.417 62.3787 132.325 62.8053 132.233 63.2279C132.177 63.4791 132.125 63.7263 132.069 63.9695C131.976 64.4001 131.884 64.8227 131.792 65.2373C131.76 65.4048 131.72 65.5762 131.68 65.7437C131.664 65.8234 131.648 65.8991 131.632 65.9749C131.536 66.4135 131.44 66.8321 131.355 67.2427C131.299 67.4979 131.243 67.7411 131.191 67.9843C131.091 68.4308 130.995 68.8534 130.911 69.2481C130.851 69.5073 130.794 69.7545 130.742 69.9897C130.634 70.4721 130.538 70.8987 130.462 71.2575C130.394 71.5525 130.342 71.7997 130.294 71.9951C130.193 72.3061 130.153 72.4815 130.153 72.4815Z" fill="#FFB31A"/>
<path d="M133.299 50.8447C133.291 50.8527 133.291 50.8567 133.283 50.8646C133.19 50.9882 133.018 51.068 132.87 51.0201C133.034 51.4029 132.842 51.8853 132.505 52.1364C132.173 52.3876 131.708 52.4315 131.311 52.3119C131.127 52.256 130.959 52.1723 130.819 52.0447C130.678 51.9172 130.582 51.7417 130.558 51.5583C130.43 51.6939 130.246 51.7736 130.061 51.7976C129.873 51.8215 129.681 51.7896 129.504 51.7258C129.108 51.5902 128.759 51.2832 128.639 50.8885C128.515 50.4899 128.643 49.9875 129.004 49.7722C128.855 49.7244 128.763 49.5609 128.763 49.4054C128.763 49.3935 128.763 49.3775 128.767 49.3656H128.983H129.292H129.721L129.901 49.3616L132.337 50.147L132.698 50.4101L132.766 50.458L133.158 50.745L133.299 50.8447Z" fill="white"/>
<path d="M127.164 49.3736C125.702 49.3776 120.485 53.7751 120.485 53.7751C120.485 53.7751 121.723 56.5739 123.158 58.1527L124.933 56.2071L127.164 49.3736Z" fill="#FFB31A"/>
<path d="M136.58 46.6266C136.127 47.5595 135.562 48.0379 134.921 48.2971C134.529 48.4566 134.192 48.5443 133.9 48.632C133.162 48.8513 132.69 49.0705 132.241 50.45C131.5 51.3431 129.877 50.9723 129.749 49.6486C130.362 47.8346 130.41 46.184 130.39 45.3906C130.382 45.1474 130.37 44.984 130.362 44.9202C130.358 44.8963 130.358 44.8883 130.358 44.8883C130.358 44.8883 130.458 44.5972 130.622 44.1707C130.642 44.1188 130.662 44.063 130.682 44.0112C131.067 43.0184 131.712 41.4715 132.201 41.013C133.992 39.3266 137.718 41.2961 137.498 43.0264C137.289 44.673 136.981 45.8212 136.58 46.6266Z" fill="#FEA384"/>
<path d="M137.454 44.0191C136.764 43.4052 136.304 42.548 136.167 41.635C136.071 41.8702 135.843 42.0257 135.627 42.1573C134.873 42.6038 133.988 42.8271 133.114 42.7832C132.83 43.2417 132.409 43.5925 131.924 43.8278C131.436 44.063 130.883 44.1587 130.342 44.0989C130.526 43.15 130.562 42.1692 131.027 41.32C131.492 40.4708 132.249 39.7332 133.195 39.514C133.739 39.3864 134.316 39.4382 134.861 39.5698C135.855 39.805 136.813 40.3273 137.385 41.1685C137.958 42.0098 138.031 43.1819 137.454 44.0191Z" fill="#1A0F24"/>
<path d="M135.707 44.5414C136.095 44.4218 136.508 44.5694 136.724 44.9242C136.764 44.992 136.744 45.0916 136.68 45.1395C136.616 45.1913 136.528 45.1754 136.488 45.1076C136.4 44.9601 136.26 44.8644 136.099 44.8245C136.019 44.8046 135.935 44.8006 135.855 44.8126C135.783 44.8245 135.703 44.8564 135.647 44.7966C135.635 44.7807 135.623 44.7607 135.619 44.7408C135.595 44.669 135.635 44.5614 135.707 44.5414Z" fill="#1A0F24"/>
<path d="M134.721 44.2225C134.429 43.8836 133.948 43.7441 133.519 43.8916C133.439 43.9195 133.395 44.0112 133.423 44.0909C133.451 44.1707 133.543 44.2145 133.623 44.1866C133.8 44.1268 133.996 44.1388 134.164 44.2065C134.252 44.2424 134.332 44.2903 134.405 44.3501C134.469 44.4019 134.521 44.4816 134.613 44.4657C134.637 44.4617 134.657 44.4537 134.677 44.4418C134.741 44.3939 134.773 44.2863 134.721 44.2225Z" fill="#1A0F24"/>
<path d="M134.461 46.8139C134.601 46.8578 134.753 46.8738 134.913 46.8458C134.989 46.8339 135.042 46.7621 135.026 46.6864C135.014 46.6106 134.941 46.5588 134.865 46.5747C134.473 46.6425 134.156 46.3395 134.096 46.1601C134.072 46.0883 133.992 46.0485 133.92 46.0724C133.848 46.0963 133.808 46.176 133.832 46.2478C133.908 46.4591 134.144 46.7143 134.461 46.8139Z" fill="#C16B5B"/>
<path d="M135.018 46.1641C135.034 46.1681 135.05 46.1641 135.058 46.1521C135.19 45.9568 135.142 45.8611 135.074 45.8132C135.006 45.7654 134.913 45.7574 134.793 45.7853C134.773 45.7893 134.765 45.8093 134.769 45.8292C134.773 45.8491 134.793 45.8571 134.813 45.8531C134.913 45.8292 134.99 45.8332 135.038 45.8691C135.098 45.9129 135.086 45.9927 135.002 46.1123C134.99 46.1282 134.994 46.1481 135.01 46.1601C135.014 46.1641 135.018 46.1641 135.018 46.1641Z" fill="#C16B5B"/>
<path d="M133.687 44.8723C133.643 45.0039 133.715 45.1474 133.852 45.1913C133.984 45.2351 134.128 45.1634 134.172 45.0278C134.216 44.8963 134.144 44.7527 134.008 44.7089C133.872 44.665 133.731 44.7368 133.687 44.8723Z" fill="black"/>
<path d="M133.948 44.8843C133.932 44.9321 133.96 44.984 134.008 44.9999C134.056 45.0159 134.108 44.988 134.124 44.9401C134.14 44.8923 134.112 44.8404 134.064 44.8245C134.02 44.8085 133.964 44.8325 133.948 44.8843Z" fill="white"/>
<path d="M135.558 45.4743C135.514 45.6059 135.586 45.7494 135.723 45.7933C135.855 45.8372 135.999 45.7654 136.043 45.6298C136.087 45.4983 136.015 45.3547 135.879 45.3109C135.743 45.267 135.599 45.3388 135.558 45.4743Z" fill="black"/>
<path d="M135.819 45.4863C135.803 45.5342 135.831 45.586 135.879 45.6019C135.927 45.6179 135.979 45.59 135.995 45.5421C136.011 45.4943 135.983 45.4425 135.935 45.4265C135.887 45.4106 135.835 45.4385 135.819 45.4863Z" fill="white"/>
<path d="M129.472 44.681C129.681 45.1913 130.182 45.4744 130.59 45.3109C130.999 45.1474 131.159 44.5972 130.951 44.0869C130.742 43.5766 130.242 43.2935 129.833 43.457C129.424 43.6205 129.264 44.1667 129.472 44.681Z" fill="#FEA384"/>
<path d="M129.989 43.7241C130.158 43.6962 130.35 43.76 130.498 43.8995C130.574 43.9673 130.622 44.0391 130.646 44.1148C130.678 44.2145 130.662 44.3221 130.602 44.3939C130.55 44.4577 130.474 44.4896 130.406 44.5135C130.358 44.5334 130.314 44.5494 130.282 44.5773C130.234 44.6212 130.218 44.6969 130.242 44.7567C130.27 44.8165 130.338 44.8564 130.402 44.8484C130.442 44.8444 130.474 44.8723 130.478 44.9082C130.482 44.9441 130.454 44.98 130.418 44.984C130.378 44.988 130.334 44.984 130.294 44.972C130.214 44.9481 130.146 44.8883 130.113 44.8125C130.061 44.6969 130.093 44.5534 130.186 44.4736C130.238 44.4298 130.298 44.4059 130.354 44.3819C130.41 44.362 130.462 44.3421 130.49 44.3022C130.518 44.2663 130.526 44.2065 130.51 44.1507C130.502 44.1268 130.49 44.1069 130.478 44.0829C130.414 44.063 130.322 44.055 130.266 44.0869C130.202 44.1228 130.158 44.1906 130.146 44.2623C130.141 44.2982 130.105 44.3261 130.065 44.3221C130.061 44.3221 130.057 44.3221 130.053 44.3182C130.021 44.3062 130.001 44.2743 130.005 44.2424C130.021 44.1268 130.093 44.0271 130.194 43.9673C130.23 43.9474 130.274 43.9354 130.314 43.9314C130.214 43.8676 130.105 43.8357 130.005 43.8557C129.885 43.8756 129.761 43.9912 129.777 44.1228C129.781 44.1627 129.753 44.1946 129.717 44.1985C129.677 44.2025 129.645 44.1746 129.641 44.1387C129.625 43.9514 129.781 43.76 129.989 43.7241Z" fill="#C16B5B"/>
<path d="M144.987 43.7202L144.528 45.1313L167.834 52.6366L168.293 51.2255L144.987 43.7202Z" fill="#FFC82E"/>
<path d="M143.165 49.3288L142.707 50.7398L171.437 59.992L171.896 58.5809L143.165 49.3288Z" fill="#FFC82E"/>
<path d="M144.029 46.6721L143.57 48.0832L157.872 52.689L158.331 51.2779L144.029 46.6721Z" fill="#FFC82E"/>
<path d="M160.065 51.8332L159.606 53.2443L173.908 57.8501L174.367 56.439L160.065 51.8332Z" fill="#FFC82E"/>
<path d="M142.297 51.9862L141.838 53.3972L149.782 55.9555L150.241 54.5444L142.297 51.9862Z" fill="#FFC82E"/>
<path d="M163.832 61.8584L163.373 63.2694L171.317 65.8276L171.776 64.4166L163.832 61.8584Z" fill="#FFC82E"/>
<path d="M141.433 54.6452L140.974 56.0562L160.922 62.4801L161.381 61.069L141.433 54.6452Z" fill="#FFC82E"/>
<path d="M151.853 55.0643L151.394 56.4753L172.18 63.1692L172.639 61.7582L151.853 55.0643Z" fill="#FFC82E"/>
<path d="M123.667 63.543C122.264 63.0924 121.491 61.5854 121.944 60.19C122.397 58.7946 123.911 58.0251 125.313 58.4756C126.716 58.9261 127.489 60.4332 127.036 61.8286C126.583 63.224 125.073 63.9935 123.667 63.543ZM125.125 59.0577C124.043 58.7109 122.881 59.3009 122.533 60.3774C122.184 61.4538 122.777 62.61 123.859 62.9569C124.941 63.3037 126.103 62.7137 126.451 61.6372C126.8 60.5648 126.207 59.4046 125.125 59.0577Z" fill="#F7D4AA"/>
<path d="M124.199 61.9083C124.123 61.8844 124.055 61.8286 124.019 61.7528L123.258 60.2378C123.182 60.0863 123.242 59.9029 123.394 59.8232C123.546 59.7474 123.731 59.8072 123.811 59.9588L124.444 61.2186L127.95 59.7674C128.106 59.7036 128.286 59.7754 128.354 59.9348C128.418 60.0903 128.346 60.2697 128.186 60.3375L124.412 61.8964C124.344 61.9283 124.268 61.9283 124.199 61.9083Z" fill="#FF931D"/>
<path d="M130.719 60.8646L130.472 61.6232L167.235 73.4618L167.481 72.7032L130.719 60.8646Z" fill="#FF931D"/>
<path d="M141.988 66.2246L141.741 66.9832L166.729 75.0299L166.975 74.2713L141.988 66.2246Z" fill="#FF931D"/>
<path d="M129.699 63.9998L129.452 64.7584L152.133 72.0624L152.38 71.3038L129.699 63.9998Z" fill="#FF931D"/>
<path d="M140.617 65.7809L130.207 62.4285L129.96 63.1871L140.37 66.5396L140.617 65.7809Z" fill="#FF931D"/>
<path d="M166.457 75.8372L153.493 71.6622L153.246 72.4209L166.211 76.5958L166.457 75.8372Z" fill="#FF931D"/>
<path d="M120.766 72.4696C119.364 72.019 118.59 70.512 119.043 69.1166C119.496 67.7212 121.01 66.9517 122.413 67.4022C123.815 67.8527 124.588 69.3598 124.135 70.7552C123.683 72.1506 122.168 72.9201 120.766 72.4696ZM122.224 67.9843C121.142 67.6375 119.981 68.2275 119.632 69.304C119.283 70.3804 119.876 71.5366 120.958 71.8835C122.04 72.2303 123.202 71.6403 123.551 70.5638C123.899 69.4914 123.302 68.3312 122.224 67.9843Z" fill="#F7D4AA"/>
<path d="M121.299 70.8349C121.223 70.811 121.154 70.7552 121.118 70.6795L120.357 69.1644C120.281 69.0129 120.341 68.8295 120.493 68.7498C120.646 68.6741 120.83 68.7339 120.91 68.8854L121.543 70.1452L125.049 68.694C125.205 68.6302 125.386 68.702 125.454 68.8614C125.518 69.0169 125.446 69.1963 125.285 69.2641L121.511 70.823C121.439 70.8549 121.363 70.8549 121.299 70.8349Z" fill="#FF931D"/>
<path d="M127.819 69.7905L127.572 70.5491L164.334 82.3877L164.581 81.6291L127.819 69.7905Z" fill="#FF931D"/>
<path d="M139.084 75.151L138.837 75.9096L163.825 83.9563L164.071 83.1977L139.084 75.151Z" fill="#FF931D"/>
<path d="M126.79 72.9268L126.543 73.6854L149.224 80.987L149.471 80.2284L126.79 72.9268Z" fill="#FF931D"/>
<path d="M137.716 74.7079L127.305 71.3554L127.059 72.114L137.469 75.4665L137.716 74.7079Z" fill="#FF931D"/>
<path d="M163.553 84.7625L150.588 80.5875L150.342 81.3461L163.306 85.5211L163.553 84.7625Z" fill="#FF931D"/>
<path d="M117.861 81.3922C116.459 80.9417 115.685 79.4347 116.138 78.0393C116.591 76.6439 118.105 75.8744 119.508 76.3249C120.91 76.7754 121.683 78.2825 121.231 79.6779C120.778 81.0773 119.267 81.8467 117.861 81.3922ZM119.319 76.911C118.238 76.5641 117.076 77.1542 116.727 78.2306C116.378 79.3071 116.971 80.4633 118.053 80.8101C119.135 81.157 120.297 80.5669 120.646 79.4905C120.994 78.414 120.401 77.2578 119.319 76.911Z" fill="#F7D4AA"/>
<path d="M118.394 79.7576C118.318 79.7337 118.25 79.6779 118.214 79.6021L117.452 78.0871C117.376 77.9356 117.436 77.7522 117.588 77.6725C117.741 77.5967 117.925 77.6565 118.005 77.808L118.638 79.0679L122.144 77.6167C122.3 77.5529 122.481 77.6246 122.549 77.7841C122.613 77.9396 122.541 78.119 122.38 78.1868L118.606 79.7457C118.538 79.7815 118.462 79.7815 118.394 79.7576Z" fill="#FF931D"/>
<path d="M124.917 78.7149L124.67 79.4735L161.433 91.3121L161.679 90.5535L124.917 78.7149Z" fill="#FF931D"/>
<path d="M136.179 84.0741L135.932 84.8327L160.919 92.8794L161.166 92.1208L136.179 84.0741Z" fill="#FF931D"/>
<path d="M123.895 81.8527L123.648 82.6113L146.329 89.9153L146.576 89.1567L123.895 81.8527Z" fill="#FF931D"/>
<path d="M134.81 83.6337L124.4 80.2812L124.153 81.0399L134.564 84.3923L134.81 83.6337Z" fill="#FF931D"/>
<path d="M160.651 93.6896L147.687 89.5147L147.44 90.2733L160.404 94.4482L160.651 93.6896Z" fill="#FF931D"/>
<path d="M158.901 99.0741L125.474 88.3096L125.168 89.2503L158.595 100.015L158.901 99.0741Z" fill="#D83E3A"/>
<path d="M158.155 101.373L113.251 86.9122L112.945 87.8529L157.849 102.314L158.155 101.373Z" fill="#D83E3A"/>
<path d="M139.027 97.7555L112.504 89.2141L112.198 90.1548L138.721 98.6962L139.027 97.7555Z" fill="#D83E3A"/>
<path d="M156.661 105.97L111.756 91.509L111.45 92.4497L156.355 106.91L156.661 105.97Z" fill="#D83E3A"/>
<path d="M155.912 108.268L135.854 101.809L135.548 102.75L155.606 109.209L155.912 108.268Z" fill="#D83E3A"/>
<path d="M155.166 110.567L110.261 96.1059L109.955 97.0466L154.86 111.507L155.166 110.567Z" fill="#D83E3A"/>
<path d="M142.16 108.919L109.511 98.4051L109.205 99.3458L141.854 109.86L142.16 108.919Z" fill="#D83E3A"/>
<path d="M154.419 112.867L144.157 109.562L143.851 110.503L154.113 113.807L154.419 112.867Z" fill="#D83E3A"/>
<path d="M132.494 100.727L111.01 93.8086L110.704 94.7493L132.188 101.668L132.494 100.727Z" fill="#D83E3A"/>
<path d="M157.404 103.673L141.02 98.3972L140.714 99.3378L157.098 104.614L157.404 103.673Z" fill="#D83E3A"/>
<path d="M89.8945 127.465L40.208 114.882L33 143.065L82.6865 155.648L88.2798 133.772L89.8945 127.465Z" fill="#3B86C6"/>
<path d="M43.5232 112.921L36.3154 141.106L86.0004 153.687L93.2081 125.501L43.5232 112.921Z" fill="#FF931D"/>
<path d="M36.3175 141.108L65.2896 131.256L86.004 153.69L36.3175 141.108Z" fill="#FFB31A"/>
<path d="M41.9108 119.232L63.6188 137.791L91.5973 131.81L41.9108 119.232Z" fill="#FFC82E"/>
<path d="M93.212 125.503L91.5973 131.81L63.9954 136.319L41.9108 119.232L43.5254 112.92L93.212 125.503Z" fill="#FFC82E"/>
<path d="M105.329 69.5176L52.3124 93.8901L85.2195 164.767L138.236 140.394L105.329 69.5176Z" fill="#FFF4E9"/>
<path d="M103.739 72.3888L50.7223 96.7614L83.6294 167.638L136.646 143.265L103.739 72.3888Z" fill="#FFF4E9"/>
<path d="M71.8485 123.115C70.4942 123.737 68.8836 123.147 68.2585 121.799C67.6335 120.452 68.2265 118.853 69.5807 118.227C70.935 117.605 72.5416 118.195 73.1707 119.543C73.7957 120.89 73.2027 122.493 71.8485 123.115ZM69.8452 118.793C68.8034 119.272 68.3507 120.504 68.8315 121.54C69.3123 122.577 70.5503 123.027 71.5921 122.549C72.6338 122.07 73.0865 120.838 72.6058 119.802C72.1209 118.769 70.8829 118.315 69.8452 118.793Z" fill="#F7D4AA"/>
<path d="M71.1193 121.54C71.0471 121.572 70.959 121.58 70.8789 121.548L69.2722 120.946C69.1119 120.886 69.0278 120.707 69.0919 120.547C69.152 120.388 69.3323 120.304 69.4926 120.368L70.8308 120.87L72.4334 117.402C72.5056 117.246 72.6899 117.178 72.8461 117.25C73.0024 117.322 73.0705 117.505 72.9984 117.661L71.2715 121.393C71.2395 121.456 71.1834 121.508 71.1193 121.54Z" fill="#FF931D"/>
<path d="M110.661 100.028L75.2343 116.315L75.5737 117.046L111 100.759L110.661 100.028Z" fill="#FF931D"/>
<path d="M111.362 101.541L87.2833 112.61L87.6228 113.342L111.701 102.272L111.362 101.541Z" fill="#FF931D"/>
<path d="M98.4964 109.291L76.6366 119.34L76.976 120.071L98.8359 110.022L98.4964 109.291Z" fill="#FF931D"/>
<path d="M85.968 113.218L75.9365 117.829L76.276 118.56L86.3075 113.949L85.968 113.218Z" fill="#FF931D"/>
<path d="M112.067 103.054L99.5734 108.798L99.9128 109.529L112.407 103.786L112.067 103.054Z" fill="#FF931D"/>
<path d="M75.8431 131.715C74.4889 132.337 72.8822 131.747 72.2532 130.399C71.6281 129.051 72.2211 127.453 73.5754 126.827C74.9296 126.205 76.5363 126.795 77.1653 128.142C77.7904 129.494 77.1974 131.093 75.8431 131.715ZM73.8398 127.397C72.7981 127.875 72.3453 129.107 72.8261 130.144C73.3069 131.18 74.545 131.631 75.5867 131.153C76.6284 130.674 77.0812 129.442 76.6004 128.406C76.1156 127.369 74.8775 126.918 73.8398 127.397Z" fill="#F7D4AA"/>
<path d="M75.1139 130.14C75.0418 130.172 74.9536 130.18 74.8735 130.148L73.2668 129.546C73.1066 129.486 73.0224 129.307 73.0865 129.147C73.1466 128.988 73.3269 128.904 73.4872 128.968L74.8254 129.47L76.4281 126.001C76.5002 125.846 76.6845 125.778 76.8408 125.85C76.997 125.922 77.0651 126.105 76.993 126.261L75.2661 129.992C75.2341 130.06 75.178 130.112 75.1139 130.14Z" fill="#FF931D"/>
<path d="M114.656 108.632L79.2292 124.918L79.5687 125.649L114.995 109.363L114.656 108.632Z" fill="#FF931D"/>
<path d="M115.357 110.145L91.2783 121.214L91.6178 121.945L115.696 110.876L115.357 110.145Z" fill="#FF931D"/>
<path d="M102.492 117.894L80.6318 127.943L80.9713 128.675L102.831 118.625L102.492 117.894Z" fill="#FF931D"/>
<path d="M89.9618 121.817L79.9303 126.429L80.2697 127.16L90.3012 122.548L89.9618 121.817Z" fill="#FF931D"/>
<path d="M116.06 111.655L103.567 117.398L103.906 118.129L116.4 112.386L116.06 111.655Z" fill="#FF931D"/>
<path d="M79.8377 140.318C78.4835 140.94 76.8728 140.35 76.2478 139.003C75.6228 137.655 76.2157 136.056 77.57 135.43C78.9242 134.805 80.5309 135.399 81.1599 136.746C81.785 138.094 81.192 139.696 79.8377 140.318ZM77.8304 135.997C76.7887 136.475 76.3359 137.707 76.8167 138.744C77.2975 139.78 78.5356 140.231 79.5773 139.752C80.619 139.274 81.0718 138.042 80.591 137.005C80.1102 135.973 78.8721 135.518 77.8304 135.997Z" fill="#F7D4AA"/>
<path d="M79.1085 138.744C79.0364 138.775 78.9483 138.783 78.8681 138.752L77.2615 138.15C77.1012 138.09 77.017 137.91 77.0812 137.751C77.1413 137.591 77.3216 137.508 77.4818 137.571L78.82 138.074L80.4227 134.605C80.4948 134.45 80.6791 134.382 80.8354 134.454C80.9916 134.525 81.0598 134.709 80.9876 134.864L79.2608 138.596C79.2287 138.66 79.1726 138.712 79.1085 138.744Z" fill="#FF931D"/>
<path d="M118.651 117.236L83.2242 133.522L83.5637 134.253L118.99 117.967L118.651 117.236Z" fill="#FF931D"/>
<path d="M119.352 118.749L95.2732 129.818L95.6126 130.549L119.691 119.48L119.352 118.749Z" fill="#FF931D"/>
<path d="M106.482 126.495L84.6256 136.543L84.965 137.274L106.821 127.226L106.482 126.495Z" fill="#FF931D"/>
<path d="M93.957 130.42L83.9255 135.032L84.265 135.763L94.2965 131.151L93.957 130.42Z" fill="#FF931D"/>
<path d="M120.052 120.26L107.558 126.003L107.898 126.735L120.391 120.991L120.052 120.26Z" fill="#FF931D"/>
<path d="M122.468 125.45L90.2527 140.259L90.6728 141.164L122.888 126.354L122.468 125.45Z" fill="#D83E3A"/>
<path d="M123.496 127.663L80.2201 147.558L80.6402 148.463L123.916 128.568L123.496 127.663Z" fill="#D83E3A"/>
<path d="M106.807 138.024L81.2478 149.774L81.6679 150.679L107.227 138.929L106.807 138.024Z" fill="#D83E3A"/>
<path d="M125.551 132.094L82.2754 151.988L82.6955 152.893L125.971 132.998L125.551 132.094Z" fill="#D83E3A"/>
<path d="M126.579 134.309L107.247 143.196L107.667 144.101L126.999 135.214L126.579 134.309Z" fill="#D83E3A"/>
<path d="M127.607 136.524L84.3308 156.418L84.7509 157.323L128.027 137.428L127.607 136.524Z" fill="#D83E3A"/>
<path d="M116.828 144.169L85.3623 158.634L85.7824 159.539L117.248 145.074L116.828 144.169Z" fill="#D83E3A"/>
<path d="M128.638 138.739L118.748 143.285L119.168 144.19L129.058 139.644L128.638 138.739Z" fill="#D83E3A"/>
<path d="M104.012 144.684L83.3052 154.203L83.7253 155.108L104.432 145.589L104.012 144.684Z" fill="#D83E3A"/>
<path d="M124.52 129.881L108.731 137.14L109.151 138.044L124.94 130.786L124.52 129.881Z" fill="#D83E3A"/>
<path d="M96.4707 83.5443L74.0107 93.8695L74.6426 95.2304L97.1025 84.9052L96.4707 83.5443Z" fill="#FFC82E"/>
<path d="M104.206 86.5459L76.5192 99.2739L77.151 100.635L104.838 87.9068L104.206 86.5459Z" fill="#FFC82E"/>
<path d="M89.1133 90.3755L75.3281 96.7127L75.96 98.0736L89.7451 91.7363L89.1133 90.3755Z" fill="#FFC82E"/>
<path d="M104.571 83.269L90.7863 89.6063L91.4181 90.9671L105.203 84.6299L104.571 83.269Z" fill="#FFC82E"/>
<path d="M85.3661 98.3177L77.7097 101.837L78.3415 103.198L85.9979 99.6785L85.3661 98.3177Z" fill="#FFC82E"/>
<path d="M108.14 90.9536L100.483 94.4734L101.115 95.8342L108.771 92.3145L108.14 90.9536Z" fill="#FFC82E"/>
<path d="M98.1208 95.5597L78.8979 104.397L79.5298 105.758L98.7526 96.9206L98.1208 95.5597Z" fill="#FFC82E"/>
<path d="M106.952 88.3955L86.9176 97.6054L87.5494 98.9662L107.583 89.7563L106.952 88.3955Z" fill="#FFC82E"/>
<path d="M69.5045 92.5245L55.8867 98.7848L64.0198 116.302L77.6376 110.042L69.5045 92.5245Z" fill="#385D93"/>
<path d="M72.1571 106.785C74.1965 106.534 77.3097 111.051 77.3097 111.051C77.3097 111.051 76.913 112.578 74.8736 113.499L72.1571 106.785Z" fill="#D83E3A"/>
<path d="M71.9608 130.184C71.9608 130.184 72.4096 130.128 73.1308 129.992C73.251 129.969 73.3792 129.945 73.5154 129.921C76.1238 129.406 81.2643 128.075 83.0633 125.34C83.1034 125.284 83.1354 125.228 83.1715 125.168C83.1715 125.168 83.0793 125.009 82.911 124.722C82.8109 124.546 82.6827 124.323 82.5264 124.06C82.3381 123.741 82.1177 123.358 81.8653 122.928C81.7411 122.72 81.6129 122.497 81.4767 122.262C81.2683 121.911 81.0479 121.528 80.8156 121.134C80.6913 120.918 80.5591 120.699 80.4309 120.472C80.2146 120.109 79.9942 119.73 79.7618 119.343C79.7217 119.276 79.6817 119.208 79.6416 119.136C79.5535 118.985 79.4653 118.833 79.3732 118.682C79.1568 118.311 78.9324 117.932 78.7081 117.553C78.5798 117.334 78.4476 117.115 78.3194 116.892C78.099 116.517 77.8747 116.138 77.6503 115.759C77.5221 115.54 77.3899 115.321 77.2617 115.101C77.2016 114.998 77.1415 114.898 77.0814 114.798C76.9171 114.523 76.7528 114.244 76.5885 113.969C76.5324 113.873 76.4763 113.782 76.4203 113.69C76.3481 113.563 76.272 113.439 76.1959 113.311C76.1919 113.303 76.1879 113.299 76.1839 113.291C76.0757 113.116 75.9675 112.937 75.8673 112.765C75.7872 112.634 75.7071 112.498 75.6269 112.37C75.5909 112.307 75.5508 112.243 75.5148 112.183C75.4466 112.071 75.3785 111.96 75.3144 111.844C75.2583 111.752 75.1982 111.661 75.1421 111.565C75.1341 111.553 75.1261 111.541 75.1181 111.529C75.1061 111.505 75.09 111.481 75.078 111.457C74.9698 111.282 74.8657 111.107 74.7575 110.935C74.6774 110.808 74.6052 110.676 74.5251 110.552C74.4971 110.501 74.465 110.453 74.433 110.405C74.2967 110.182 74.1645 109.966 74.0323 109.755C73.7919 109.36 73.5555 108.986 73.3351 108.635C73.1949 108.407 73.0587 108.192 72.9265 107.985C72.666 107.57 72.4256 107.195 72.2093 106.873C72.1932 106.845 72.1732 106.821 72.1572 106.793L71.8086 106.833L71.6243 106.849L70.4303 106.988L69.9375 107.044L69.8534 107.056L69.4046 107.108L67.0567 108.188L66.9245 108.312L66.608 108.603L66.3796 108.814L65.3098 109.803L65.2938 109.823L65.0374 110.058L65.0454 110.078C65.0454 110.082 65.0494 110.086 65.0494 110.094C65.0894 110.218 65.2257 110.664 65.442 111.35C65.5101 111.569 65.5903 111.816 65.6704 112.083C65.7906 112.458 65.9228 112.881 66.0671 113.331C66.1232 113.511 66.1833 113.694 66.2393 113.877C66.2594 113.937 66.2794 113.997 66.2954 114.061C66.3475 114.224 66.4036 114.392 66.4557 114.563C66.5078 114.715 66.5559 114.866 66.604 115.022C66.632 115.117 66.6641 115.213 66.6961 115.313C66.7282 115.416 66.7602 115.52 66.7963 115.62C66.8403 115.759 66.8844 115.899 66.9285 116.042C66.9325 116.05 66.9325 116.054 66.9365 116.062C67.0006 116.258 67.0647 116.461 67.1288 116.66L67.1328 116.664C67.1769 116.808 67.225 116.951 67.2731 117.095C67.2931 117.159 67.3131 117.222 67.3332 117.282C67.3772 117.422 67.4253 117.561 67.4694 117.705C67.5055 117.805 67.5375 117.908 67.5736 118.012C67.5856 118.048 67.5976 118.088 67.6096 118.128C67.7298 118.498 67.854 118.877 67.9822 119.256C68.0624 119.495 68.1425 119.738 68.2226 119.981C68.3589 120.392 68.4991 120.811 68.6353 121.221C68.7155 121.465 68.7996 121.708 68.8797 121.951C69.02 122.366 69.1602 122.776 69.3004 123.183C69.3846 123.43 69.4687 123.673 69.5529 123.912C69.6971 124.331 69.8413 124.742 69.9816 125.14C70.0697 125.388 70.1538 125.631 70.242 125.866C70.3942 126.293 70.5465 126.703 70.6907 127.09C70.7829 127.341 70.875 127.58 70.9632 127.812C71.1315 128.254 71.2957 128.661 71.444 129.028C71.5522 129.291 71.6563 129.53 71.7525 129.741C71.7645 129.765 71.7725 129.785 71.7846 129.809C71.8487 129.953 71.9048 130.072 71.9608 130.184Z" fill="#D83E3A"/>
<path d="M65.0373 110.054C63.9555 111.055 63.1141 117.876 63.1141 117.876C63.1141 117.876 65.9589 119.108 68.1144 119.304L68.0904 116.652L65.0373 110.054Z" fill="#D83E3A"/>
<path d="M61.3952 102.04C61.2269 101.741 61.0787 101.418 61.0466 101.079C61.0146 100.737 61.1188 100.374 61.3752 100.158C61.1989 100.103 61.0707 99.9153 61.0827 99.7319C61.0947 99.5485 61.239 99.3811 61.4233 99.3531C62.1805 97.5391 63.9274 96.1995 65.8667 95.9444C66.1271 95.9085 66.3995 95.8965 66.656 95.9723C66.9124 96.048 67.1488 96.2354 67.2289 96.4906C67.7338 96.1636 68.475 96.2593 68.8957 96.7098C69.3164 97.1604 69.3725 97.9099 69.0199 98.4043C69.2683 98.5478 69.4045 98.8468 69.4246 99.1339C69.4446 99.4209 69.3645 99.704 69.2723 99.9751C68.7875 101.406 67.9421 102.702 66.8483 103.727C66.5718 103.986 66.2793 104.229 65.9748 104.452C65.8226 104.56 65.6703 104.668 65.5141 104.767C65.3979 104.839 65.2015 105.019 65.0653 105.03C64.9171 105.042 64.6687 104.895 64.5324 104.839C64.3601 104.767 64.1919 104.688 64.0236 104.6C63.687 104.42 63.3665 104.213 63.066 103.978C62.3889 103.448 61.8159 102.79 61.3952 102.04Z" fill="black"/>
<path d="M70.1337 101.598C70.4382 102.598 70.3501 103.34 70.0536 103.97C69.8733 104.357 69.685 104.652 69.5247 104.915C69.128 105.585 68.9277 106.063 69.5447 107.391C69.6088 108.559 68.1544 109.392 67.1448 108.495C66.3514 106.729 65.2496 105.473 64.6887 104.899C64.5164 104.723 64.3922 104.612 64.3441 104.568C64.3281 104.552 64.3201 104.548 64.3201 104.548C64.3201 104.548 64.1958 104.261 64.0236 103.838C64.0035 103.787 63.9795 103.731 63.9595 103.679C63.5588 102.678 62.9778 101.091 63.0219 100.418C63.1902 97.9458 67.313 96.8653 68.3387 98.3006C69.3124 99.6641 69.8733 100.729 70.1337 101.598Z" fill="#FEA384"/>
<path d="M68.4309 97.9697C68.3307 98.2328 68.1103 98.4282 67.89 98.5996C66.8482 99.405 65.5581 99.8914 64.2399 99.9751C64.3721 100.055 64.4362 100.226 64.4002 100.374C64.3601 100.521 64.2199 100.637 64.0636 100.645C64.3641 101.024 64.5564 101.562 64.5564 102.04C64.5564 102.519 64.3841 102.997 64.0836 103.372C63.9875 103.488 63.8713 103.603 63.719 103.619C63.4746 103.647 63.2863 103.42 63.1501 103.216C62.6533 102.479 62.1404 101.685 62.1164 100.8C62.0923 99.9273 62.5611 99.086 63.2302 98.5199C63.8993 97.9498 64.7447 97.6268 65.5981 97.4315C66.099 97.3159 66.6158 97.2441 67.1247 97.3039C67.6335 97.3637 68.0783 97.5989 68.4309 97.9697Z" fill="black"/>
<path d="M68.0463 100.645C68.2546 100.29 68.6593 100.119 69.064 100.234C69.1401 100.254 69.1922 100.346 69.1801 100.426C69.1681 100.505 69.092 100.553 69.0159 100.533C68.8516 100.485 68.6753 100.509 68.5351 100.589C68.463 100.629 68.3989 100.681 68.3468 100.749C68.2987 100.808 68.2666 100.884 68.1785 100.88C68.1585 100.88 68.1384 100.872 68.1184 100.86C68.0543 100.816 68.0062 100.713 68.0463 100.645Z" fill="black"/>
<path d="M67.0927 101.083C66.644 101.032 66.1912 101.255 65.9749 101.658C65.9348 101.733 65.9669 101.833 66.043 101.869C66.1191 101.909 66.2153 101.877 66.2553 101.801C66.3435 101.638 66.4957 101.514 66.672 101.446C66.7602 101.414 66.8523 101.394 66.9485 101.39C67.0326 101.386 67.1248 101.406 67.1849 101.335C67.2009 101.319 67.2089 101.295 67.2129 101.275C67.233 101.195 67.1809 101.091 67.0927 101.083Z" fill="black"/>
<path d="M68.6914 103.185C68.8236 103.125 68.9518 103.029 69.052 102.897C69.1 102.838 69.088 102.75 69.0279 102.702C68.9678 102.654 68.8797 102.666 68.8316 102.726C68.5872 103.045 68.1465 103.037 67.9782 102.941C67.9101 102.905 67.8259 102.929 67.7859 102.997C67.7498 103.065 67.7738 103.149 67.8419 103.189C68.0343 103.296 68.3828 103.324 68.6914 103.185Z" fill="#C16B5B"/>
<path d="M68.6553 102.319C68.6673 102.311 68.6793 102.299 68.6753 102.283C68.6393 102.048 68.5351 102.008 68.455 102.02C68.3748 102.032 68.2947 102.088 68.2266 102.192C68.2146 102.208 68.2186 102.228 68.2346 102.24C68.2506 102.252 68.2747 102.244 68.2827 102.232C68.3388 102.144 68.3989 102.1 68.459 102.092C68.5311 102.084 68.5792 102.152 68.5992 102.295C68.6032 102.315 68.6192 102.327 68.6393 102.323C68.6473 102.323 68.6513 102.323 68.6553 102.319Z" fill="#C16B5B"/>
<path d="M66.7762 102.268C66.8363 102.395 66.9886 102.451 67.1168 102.391C67.245 102.331 67.3011 102.18 67.241 102.052C67.1809 101.925 67.0286 101.869 66.9004 101.929C66.7722 101.988 66.7161 102.14 66.7762 102.268Z" fill="black"/>
<path d="M66.9805 102.1C67.0006 102.148 67.0567 102.168 67.1047 102.144C67.1528 102.124 67.1729 102.068 67.1488 102.02C67.1288 101.973 67.0727 101.953 67.0246 101.977C66.9765 101.996 66.9565 102.052 66.9805 102.1Z" fill="white"/>
<path d="M68.5792 101.438C68.6393 101.566 68.7915 101.622 68.9198 101.562C69.048 101.502 69.1041 101.351 69.044 101.223C68.9839 101.095 68.8316 101.04 68.7034 101.099C68.5752 101.159 68.5191 101.311 68.5792 101.438Z" fill="black"/>
<path d="M68.7835 101.271C68.8035 101.319 68.8596 101.339 68.9077 101.315C68.9558 101.295 68.9758 101.239 68.9518 101.191C68.9317 101.143 68.8757 101.123 68.8276 101.147C68.7795 101.167 68.7595 101.223 68.7835 101.271Z" fill="white"/>
<path d="M63.5148 105.003C64.0196 105.242 64.5846 105.106 64.7769 104.708C64.9652 104.309 64.7088 103.791 64.2039 103.551C63.6991 103.312 63.1342 103.448 62.9418 103.846C62.7495 104.245 63.01 104.763 63.5148 105.003Z" fill="#FEA384"/>
<path d="M63.2423 103.938C63.3465 103.803 63.5348 103.719 63.7432 103.719C63.8473 103.719 63.9315 103.739 63.9996 103.779C64.0917 103.83 64.1518 103.922 64.1598 104.018C64.1638 104.102 64.1278 104.177 64.0997 104.241C64.0757 104.289 64.0557 104.333 64.0517 104.373C64.0436 104.436 64.0877 104.508 64.1478 104.532C64.2079 104.556 64.2881 104.54 64.3281 104.488C64.3522 104.46 64.3962 104.456 64.4283 104.48C64.4563 104.504 64.4603 104.548 64.4363 104.58C64.4083 104.612 64.3762 104.636 64.3361 104.656C64.26 104.692 64.1719 104.696 64.0917 104.664C63.9755 104.616 63.8994 104.488 63.9114 104.361C63.9194 104.293 63.9475 104.233 63.9755 104.177C64.0036 104.125 64.0276 104.074 64.0236 104.026C64.0196 103.978 63.9835 103.93 63.9355 103.898C63.9154 103.886 63.8914 103.878 63.8633 103.87C63.7992 103.898 63.7311 103.954 63.7111 104.018C63.6871 104.09 63.6991 104.169 63.7432 104.229C63.7632 104.261 63.7552 104.305 63.7231 104.325C63.7191 104.329 63.7151 104.329 63.7111 104.329C63.679 104.345 63.643 104.333 63.623 104.305C63.5588 104.209 63.5388 104.086 63.5749 103.974C63.5869 103.934 63.6109 103.898 63.639 103.866C63.5188 103.886 63.4186 103.938 63.3585 104.018C63.2824 104.117 63.2704 104.285 63.3745 104.373C63.4026 104.397 63.4066 104.44 63.3826 104.472C63.3585 104.5 63.3144 104.504 63.2824 104.48C63.1301 104.357 63.1141 104.11 63.2423 103.938Z" fill="#C16B5B"/>
<path d="M66.7842 108.431L66.7161 107.634L68.7595 108.71L68.2466 110.178L66.7842 108.431Z" fill="#AD2727"/>
<path d="M69.8252 107.036L69.2602 106.466L68.7594 108.71L70.2138 109.277L69.8252 107.036Z" fill="#AD2727"/>
<path d="M114.143 55.4721L112.784 51.8702L95.9228 58.1712L97.2822 61.7731L114.143 55.4721Z" fill="#821919"/>
<path d="M152.923 38.924C148.572 27.3939 135.606 21.5411 124.023 25.8709C112.436 30.2007 106.554 43.0982 110.905 54.6243C115.257 66.1504 128.218 72.0071 139.801 67.6774C151.385 63.3516 157.274 50.45 152.923 38.924ZM114.447 53.3007C110.829 43.7162 115.721 32.9994 125.349 29.3993C134.977 25.7991 145.755 30.6631 149.373 40.2476C152.991 49.8321 148.095 60.5528 138.463 64.153C128.835 67.7491 118.065 62.8851 114.447 53.3007Z" fill="#385D93"/>
<path d="M151.284 39.5339C147.274 28.9049 135.318 23.5027 124.632 27.4935C113.95 31.4844 108.525 43.3853 112.536 54.0143C116.551 64.6473 128.503 70.0456 139.184 66.0547C149.874 62.0638 155.299 50.167 151.284 39.5339ZM114.447 53.3006C110.829 43.7162 115.721 32.9994 125.349 29.3993C134.977 25.7991 145.755 30.6631 149.373 40.2476C152.991 49.8321 148.095 60.5528 138.463 64.1529C128.835 67.7491 118.065 62.8851 114.447 53.3006Z" fill="#3B86C6"/>
<path opacity="0.3" d="M145.098 59.902C152.383 52.6528 152.383 40.8995 145.098 33.6503C137.812 26.4011 126.001 26.4011 118.716 33.6503C111.431 40.8995 111.431 52.6528 118.716 59.902C126.001 67.1512 137.812 67.1512 145.098 59.902Z" fill="#385D93"/>
<path d="M71.1433 69.4834C70.4141 67.5538 71.3957 65.4048 73.335 64.6832L100.268 54.6203L102.904 61.6013L75.9713 71.6642C74.0321 72.3898 71.8725 71.4131 71.1433 69.4834Z" fill="#D83E3A"/>
<path d="M102.207 59.7594L75.2742 69.8223C73.6555 70.4283 71.8886 69.8422 70.923 68.5146C70.955 68.8375 71.0231 69.1645 71.1433 69.4834C71.8725 71.4131 74.0321 72.3859 75.9673 71.6642L102.9 61.6013L102.207 59.7594Z" fill="#D83E3A"/>
<path opacity="0.3" d="M137.97 31.0937C132.281 29.3235 126.355 30.2206 121.84 34.2553C119.151 36.6594 122.453 41.2643 125.181 38.8283C128.078 36.2408 131.796 35.0447 135.626 36.2368C139.068 37.3172 141.456 32.1821 137.97 31.0937Z" fill="white"/>
<path d="M139.144 49.9118C139.144 49.9118 139.277 49.9158 139.493 49.9118C139.277 49.9078 139.144 49.9118 139.144 49.9118Z" fill="white"/>
<path d="M143.568 54.3133C143.568 54.3133 143.572 54.1818 143.568 53.9665C143.564 54.1818 143.568 54.3133 143.568 54.3133Z" fill="white"/>
<path d="M143.568 45.8571C143.56 46.6864 143.483 48.7516 142.943 49.2898C142.402 49.8281 140.326 49.9038 139.493 49.9118C140.326 49.9198 142.402 49.9955 142.943 50.5337C143.483 51.072 143.56 53.1372 143.568 53.9664C143.576 53.1372 143.652 51.072 144.193 50.5337C144.734 49.9955 146.809 49.9198 147.642 49.9118C146.809 49.9038 144.734 49.8281 144.193 49.2898C143.652 48.7516 143.576 46.6864 143.568 45.8571Z" fill="white"/>
<path d="M143.568 45.5063C143.568 45.5063 143.564 45.6379 143.568 45.8531C143.568 45.6418 143.568 45.5063 143.568 45.5063Z" fill="white"/>
<path d="M147.991 49.9118C147.991 49.9118 147.859 49.9078 147.642 49.9118C147.859 49.9118 147.991 49.9118 147.991 49.9118Z" fill="white"/>
<path d="M45.2323 137.942C45.2323 137.942 45.3645 137.946 45.5809 137.942C45.3645 137.942 45.2323 137.942 45.2323 137.942Z" fill="white"/>
<path d="M49.6556 142.344C49.6556 142.344 49.6596 142.212 49.6556 141.997C49.6556 142.212 49.6556 142.344 49.6556 142.344Z" fill="white"/>
<path d="M49.6557 133.888C49.6477 134.717 49.5716 136.782 49.0307 137.32C48.4898 137.858 46.4143 137.934 45.5809 137.942C46.4143 137.95 48.4898 138.026 49.0307 138.564C49.5716 139.102 49.6477 141.168 49.6557 141.997C49.6637 141.168 49.7398 139.102 50.2807 138.564C50.8216 138.026 52.8971 137.95 53.7305 137.942C52.8971 137.934 50.8216 137.858 50.2807 137.32C49.7438 136.782 49.6637 134.717 49.6557 133.888Z" fill="white"/>
<path d="M49.6556 133.541C49.6556 133.541 49.6516 133.672 49.6556 133.887C49.6596 133.672 49.6556 133.541 49.6556 133.541Z" fill="white"/>
<path d="M54.083 137.942C54.083 137.942 53.9507 137.938 53.7344 137.942C53.9467 137.946 54.083 137.942 54.083 137.942Z" fill="white"/>
<path d="M62.3286 48.3529C62.3286 48.3529 62.4608 48.357 62.6772 48.3529C62.4648 48.3529 62.3286 48.3529 62.3286 48.3529Z" fill="white"/>
<path d="M66.7559 52.7584C66.7559 52.7584 66.7599 52.6269 66.7559 52.4116C66.7519 52.6229 66.7559 52.7584 66.7559 52.7584Z" fill="white"/>
<path d="M66.7559 44.2983C66.7479 45.1276 66.6718 47.1928 66.1309 47.731C65.59 48.2692 63.5145 48.345 62.6812 48.3529C63.5145 48.3609 65.59 48.4367 66.1309 48.9749C66.6718 49.5131 66.7479 51.5783 66.7559 52.4076C66.7639 51.5783 66.8401 49.5131 67.381 48.9749C67.9219 48.4367 69.9973 48.3609 70.8307 48.3529C69.9973 48.345 67.9219 48.2692 67.381 47.731C66.8401 47.1928 66.7639 45.1276 66.7559 44.2983Z" fill="white"/>
<path d="M66.7559 43.9514C66.7559 43.9514 66.7519 44.083 66.7559 44.2983C66.7559 44.083 66.7559 43.9514 66.7559 43.9514Z" fill="white"/>
<path d="M71.1793 48.353C71.1793 48.353 71.047 48.3489 70.8307 48.353C71.047 48.357 71.1793 48.353 71.1793 48.353Z" fill="white"/>
<path d="M108.826 22.5339C108.826 22.5339 108.958 22.5379 109.175 22.5339C108.958 22.5299 108.826 22.5339 108.826 22.5339Z" fill="white"/>
<path d="M113.249 26.9354C113.249 26.9354 113.253 26.8038 113.249 26.5885C113.249 26.8038 113.249 26.9354 113.249 26.9354Z" fill="white"/>
<path d="M113.249 18.4792C113.241 19.3085 113.165 21.3737 112.624 21.9119C112.083 22.4502 110.008 22.5259 109.175 22.5339C110.008 22.5419 112.083 22.6176 112.624 23.1558C113.165 23.6941 113.241 25.7593 113.249 26.5885C113.257 25.7593 113.333 23.6941 113.874 23.1558C114.415 22.6176 116.491 22.5419 117.324 22.5339C116.491 22.5259 114.415 22.4502 113.874 21.9119C113.333 21.3737 113.257 19.3085 113.249 18.4792Z" fill="white"/>
<path d="M113.249 18.1324C113.249 18.1324 113.245 18.2639 113.249 18.4792C113.253 18.2639 113.249 18.1324 113.249 18.1324Z" fill="white"/>
<path d="M117.673 22.5339C117.673 22.5339 117.54 22.5299 117.324 22.5339C117.54 22.5339 117.673 22.5339 117.673 22.5339Z" fill="white"/>
<path d="M174.828 129.127C174.828 129.127 174.96 129.131 175.176 129.127C174.96 129.123 174.828 129.127 174.828 129.127Z" fill="white"/>
<path d="M179.251 133.529C179.251 133.529 179.255 133.397 179.251 133.182C179.251 133.397 179.251 133.529 179.251 133.529Z" fill="white"/>
<path d="M179.251 125.073C179.243 125.902 179.167 127.967 178.626 128.505C178.085 129.043 176.009 129.119 175.176 129.127C176.009 129.135 178.085 129.211 178.626 129.749C179.167 130.287 179.243 132.353 179.251 133.182C179.259 132.353 179.335 130.287 179.876 129.749C180.417 129.211 182.492 129.135 183.326 129.127C182.492 129.119 180.417 129.043 179.876 128.505C179.339 127.967 179.263 125.902 179.251 125.073Z" fill="white"/>
<path d="M179.251 124.726C179.251 124.726 179.247 124.857 179.251 125.073C179.255 124.857 179.251 124.726 179.251 124.726Z" fill="white"/>
<path d="M183.678 129.127C183.678 129.127 183.546 129.123 183.33 129.127C183.542 129.127 183.678 129.127 183.678 129.127Z" fill="white"/>
<path d="M114.263 85.6263C114.263 85.6263 114.395 85.6304 114.612 85.6263C114.395 85.6223 114.263 85.6263 114.263 85.6263Z" fill="white"/>
<path d="M118.686 90.0278C118.686 90.0278 118.69 89.8963 118.686 89.681C118.686 89.8963 118.686 90.0278 118.686 90.0278Z" fill="white"/>
<path d="M118.686 81.5717C118.678 82.4009 118.602 84.4661 118.061 85.0044C117.52 85.5426 115.445 85.6183 114.611 85.6263C115.445 85.6343 117.52 85.71 118.061 86.2483C118.602 86.7865 118.678 88.8517 118.686 89.681C118.694 88.8517 118.77 86.7865 119.311 86.2483C119.852 85.71 121.928 85.6343 122.761 85.6263C121.928 85.6183 119.852 85.5426 119.311 85.0044C118.77 84.4661 118.694 82.4009 118.686 81.5717Z" fill="white"/>
<path d="M118.686 81.2208C118.686 81.2208 118.682 81.3524 118.686 81.5676C118.69 81.3563 118.686 81.2208 118.686 81.2208Z" fill="white"/>
<path d="M123.11 85.6263C123.11 85.6263 122.977 85.6223 122.761 85.6263C122.977 85.6263 123.11 85.6263 123.11 85.6263Z" fill="white"/>
<path d="M147.642 56.4064C147.638 56.857 147.594 57.9733 147.302 58.2643C147.009 58.5554 145.883 58.5952 145.435 58.6032C145.887 58.6072 147.009 58.6511 147.302 58.9421C147.594 59.2331 147.634 60.3535 147.642 60.8C147.646 60.3495 147.69 59.2331 147.983 58.9421C148.275 58.6511 149.401 58.6112 149.85 58.6032C149.397 58.5992 148.275 58.5554 147.983 58.2643C147.686 57.9773 147.646 56.857 147.642 56.4064Z" fill="white"/>
<path d="M150.038 58.6032C150.038 58.6032 149.966 58.6032 149.85 58.6032C149.966 58.6072 150.038 58.6032 150.038 58.6032Z" fill="white"/>
<path d="M41.9108 94.4214C41.9068 94.8719 41.8627 95.9882 41.5702 96.2793C41.2777 96.5703 40.1519 96.6102 39.7031 96.6181C40.1559 96.6221 41.2777 96.666 41.5702 96.957C41.8627 97.2481 41.9028 98.3684 41.9108 98.8149C41.9148 98.3644 41.9589 97.2481 42.2514 96.957C42.5438 96.666 43.6697 96.6261 44.1185 96.6181C43.6657 96.6141 42.5438 96.5703 42.2514 96.2793C41.9589 95.9882 41.9148 94.8719 41.9108 94.4214Z" fill="white"/>
<path d="M41.9108 94.234C41.9108 94.234 41.9108 94.3057 41.9108 94.4213C41.9148 94.3057 41.9108 94.234 41.9108 94.234Z" fill="white"/>
<path d="M188.39 82.2375C188.39 82.2375 188.462 82.2375 188.578 82.2375C188.462 82.2335 188.39 82.2375 188.39 82.2375Z" fill="white"/>
<path d="M190.786 80.0407C190.782 80.4912 190.738 81.6075 190.445 81.8986C190.153 82.1896 189.027 82.2295 188.578 82.2375C189.031 82.2414 190.153 82.2853 190.445 82.5763C190.738 82.8674 190.778 83.9877 190.786 84.4342C190.79 83.9837 190.834 82.8674 191.127 82.5763C191.419 82.2853 192.545 82.2454 192.994 82.2375C192.541 82.2335 191.419 82.1896 191.127 81.8986C190.834 81.6075 190.794 80.4872 190.786 80.0407Z" fill="white"/>
<path d="M190.786 79.8493C190.786 79.8493 190.786 79.9211 190.786 80.0367C190.79 79.9211 190.786 79.8493 190.786 79.8493Z" fill="white"/>
<path d="M159.602 28.6179C159.598 29.0684 159.554 30.1847 159.262 30.4757C158.969 30.7668 157.843 30.8067 157.395 30.8146C157.847 30.8186 158.969 30.8625 159.262 31.1535C159.554 31.4446 159.594 32.5649 159.602 33.0114C159.606 32.5609 159.65 31.4446 159.943 31.1535C160.235 30.8625 161.361 30.8226 161.81 30.8146C161.357 30.8106 160.235 30.7668 159.943 30.4757C159.65 30.1887 159.61 29.0684 159.602 28.6179Z" fill="white"/>
<path d="M159.602 28.4305C159.602 28.4305 159.602 28.5022 159.602 28.6179C159.606 28.5022 159.602 28.4305 159.602 28.4305Z" fill="white"/>
<path d="M162.002 30.8146C162.002 30.8146 161.93 30.8146 161.814 30.8146C161.93 30.8186 162.002 30.8146 162.002 30.8146Z" fill="white"/>
<path d="M140.919 150.872C140.919 150.872 140.919 150.8 140.919 150.684C140.915 150.8 140.919 150.872 140.919 150.872Z" fill="white"/>
<path d="M140.919 146.287C140.915 146.737 140.871 147.854 140.579 148.145C140.286 148.436 139.16 148.476 138.712 148.484C139.164 148.487 140.286 148.531 140.579 148.822C140.871 149.113 140.911 150.234 140.919 150.68C140.923 150.23 140.967 149.113 141.26 148.822C141.552 148.531 142.678 148.491 143.127 148.484C142.674 148.48 141.552 148.436 141.26 148.145C140.963 147.858 140.923 146.737 140.919 146.287Z" fill="white"/>
<path d="M143.315 148.484C143.315 148.484 143.243 148.484 143.127 148.484C143.243 148.488 143.315 148.484 143.315 148.484Z" fill="white"/>
<path d="M53.45 85.5466C53.45 85.5466 53.5221 85.5466 53.6383 85.5466C53.5261 85.5426 53.45 85.5466 53.45 85.5466Z" fill="white"/>
<path d="M55.8499 87.9307C55.8499 87.9307 55.8499 87.859 55.8499 87.7433C55.8459 87.859 55.8499 87.9307 55.8499 87.9307Z" fill="white"/>
<path d="M55.8499 83.3498C55.8459 83.8003 55.8018 84.9166 55.5093 85.2077C55.2168 85.4987 54.091 85.5386 53.6422 85.5466C54.095 85.5506 55.2168 85.5944 55.5093 85.8855C55.8018 86.1765 55.8419 87.2968 55.8499 87.7433C55.8539 87.2928 55.898 86.1765 56.1904 85.8855C56.4829 85.5944 57.6088 85.5545 58.0575 85.5466C57.6048 85.5426 56.4829 85.4987 56.1904 85.2077C55.8939 84.9166 55.8539 83.7963 55.8499 83.3498Z" fill="white"/>
<path d="M58.0576 127.086C58.0536 127.536 58.0096 128.653 57.7171 128.944C57.4246 129.235 56.2987 129.275 55.85 129.283C56.3027 129.287 57.4246 129.33 57.7171 129.622C58.0096 129.913 58.0496 131.033 58.0576 131.479C58.0616 131.029 58.1057 129.913 58.3982 129.622C58.6907 129.33 59.8166 129.291 60.2653 129.283C59.8126 129.279 58.6907 129.235 58.3982 128.944C58.1017 128.653 58.0616 127.536 58.0576 127.086Z" fill="white"/>
</g>
</g>
<defs>
<clipPath id="clip0_0_1">
<rect width="1440" height="2026" fill="white" transform="translate(-1040 -912)"/>
</clipPath>
<clipPath id="clip1_0_1">
<rect width="171" height="169" fill="white" transform="translate(33)"/>
</clipPath>
</defs>
</svg>
