<svg width="235" height="274" viewBox="0 0 235 274" fill="none" xmlns="http://www.w3.org/2000/svg">
<rect width="235" height="274" fill="#D4E2EB"/>
<g clip-path="url(#clip0_0_1)">
<rect width="1440" height="2026" transform="translate(-766 -907)" fill="white"/>
<path opacity="0.2" d="M12.6818 215.636C10.5682 215.629 8.74242 215.14 7.20455 214.17C5.66667 213.201 4.48106 211.803 3.64773 209.977C2.81439 208.152 2.40152 205.962 2.40909 203.409C2.41667 200.848 2.83333 198.674 3.65909 196.886C4.49242 195.098 5.67424 193.739 7.20455 192.807C8.74242 191.875 10.5682 191.409 12.6818 191.409C14.7955 191.409 16.6212 191.879 18.1591 192.818C19.697 193.75 20.8826 195.11 21.7159 196.898C22.5492 198.686 22.9621 200.856 22.9545 203.409C22.9545 205.977 22.5379 208.174 21.7045 210C20.8712 211.826 19.6856 213.223 18.1477 214.193C16.6174 215.155 14.7955 215.636 12.6818 215.636ZM12.6818 210.5C13.7727 210.5 14.6667 209.932 15.3636 208.795C16.0682 207.652 16.4167 205.856 16.4091 203.409C16.4091 201.811 16.25 200.504 15.9318 199.489C15.6136 198.473 15.1742 197.723 14.6136 197.239C14.053 196.746 13.4091 196.5 12.6818 196.5C11.5909 196.5 10.7008 197.053 10.0114 198.159C9.32197 199.265 8.9697 201.015 8.95455 203.409C8.94697 205.038 9.10227 206.379 9.42045 207.432C9.73864 208.477 10.178 209.25 10.7386 209.75C11.3068 210.25 11.9545 210.5 12.6818 210.5ZM33.4114 215.318C31.578 215.318 29.9492 215.004 28.525 214.375C27.1083 213.739 25.9947 212.864 25.1841 211.75C24.3735 210.636 23.9644 209.356 23.9568 207.909H30.3205C30.328 208.356 30.4644 208.758 30.7295 209.114C31.0023 209.462 31.3735 209.735 31.8432 209.932C32.3129 210.129 32.8508 210.227 33.4568 210.227C34.0402 210.227 34.5553 210.125 35.0023 209.92C35.4492 209.708 35.7977 209.417 36.0477 209.045C36.2977 208.674 36.4189 208.25 36.4114 207.773C36.4189 207.303 36.275 206.886 35.9795 206.523C35.6917 206.159 35.2864 205.875 34.7636 205.67C34.2409 205.466 33.6386 205.364 32.9568 205.364H30.5932V201H32.9568C33.5856 201 34.1386 200.898 34.6159 200.693C35.1008 200.489 35.4758 200.205 35.7409 199.841C36.0136 199.477 36.1462 199.061 36.1386 198.591C36.1462 198.136 36.0364 197.735 35.8091 197.386C35.5818 197.038 35.2636 196.765 34.8545 196.568C34.453 196.371 33.9871 196.273 33.4568 196.273C32.8811 196.273 32.3659 196.375 31.9114 196.58C31.4644 196.784 31.1121 197.068 30.8545 197.432C30.597 197.795 30.4644 198.212 30.4568 198.682H24.4114C24.4189 197.258 24.8091 196 25.5818 194.909C26.3621 193.818 27.4303 192.962 28.7864 192.341C30.1424 191.72 31.6992 191.409 33.4568 191.409C35.1765 191.409 36.6955 191.701 38.0136 192.284C39.3394 192.867 40.3735 193.67 41.1159 194.693C41.8659 195.708 42.2371 196.871 42.2295 198.182C42.2447 199.485 41.7977 200.553 40.8886 201.386C39.9871 202.22 38.8432 202.712 37.4568 202.864V203.045C39.3356 203.25 40.7485 203.826 41.6955 204.773C42.6424 205.712 43.1083 206.894 43.0932 208.318C43.1008 209.682 42.6917 210.89 41.8659 211.943C41.0477 212.996 39.9076 213.822 38.4455 214.42C36.9909 215.019 35.3129 215.318 33.4114 215.318Z" fill="#3070A6"/>
<path d="M60.92 212.764C59.56 212.764 58.264 212.604 57.032 212.284C55.816 211.948 54.792 211.5 53.96 210.94L55.208 207.508C55.736 207.844 56.312 208.132 56.936 208.372C57.56 208.612 58.208 208.804 58.88 208.948C59.568 209.076 60.264 209.14 60.968 209.14C62.024 209.14 62.752 209.004 63.152 208.732C63.568 208.46 63.776 208.108 63.776 207.676C63.776 207.292 63.64 206.996 63.368 206.788C63.096 206.564 62.584 206.372 61.832 206.212L58.904 205.612C57.352 205.292 56.192 204.74 55.424 203.956C54.656 203.156 54.272 202.116 54.272 200.836C54.272 199.716 54.568 198.748 55.16 197.932C55.768 197.1 56.616 196.46 57.704 196.012C58.792 195.548 60.064 195.316 61.52 195.316C62.72 195.316 63.848 195.484 64.904 195.82C65.96 196.14 66.824 196.588 67.496 197.164L66.248 200.38C65.608 199.916 64.888 199.564 64.088 199.324C63.288 199.068 62.4 198.94 61.424 198.94C60.496 198.94 59.792 199.084 59.312 199.372C58.848 199.644 58.616 200.036 58.616 200.548C58.616 200.9 58.752 201.204 59.024 201.46C59.312 201.7 59.832 201.9 60.584 202.06L63.464 202.636C65.016 202.94 66.176 203.484 66.944 204.268C67.728 205.052 68.12 206.076 68.12 207.34C68.12 208.428 67.816 209.38 67.208 210.196C66.616 211.012 65.784 211.644 64.712 212.092C63.64 212.54 62.376 212.764 60.92 212.764ZM76.8536 212.764C75.3816 212.764 74.1256 212.508 73.0856 211.996C72.0456 211.484 71.2456 210.748 70.6856 209.788C70.1416 208.828 69.8696 207.692 69.8696 206.38C69.8696 205.148 70.1256 204.052 70.6376 203.092C71.1496 202.132 71.8696 201.388 72.7976 200.86C73.7256 200.316 74.8136 200.044 76.0616 200.044C77.2936 200.044 78.3176 200.316 79.1336 200.86C79.9656 201.388 80.5896 202.124 81.0056 203.068C81.4216 203.996 81.6296 205.076 81.6296 206.308V207.22H73.4456V205.204H78.4856L78.0776 205.54C78.0776 204.628 77.9016 203.956 77.5496 203.524C77.2136 203.076 76.7336 202.852 76.1096 202.852C75.6296 202.852 75.2216 202.972 74.8856 203.212C74.5656 203.452 74.3176 203.812 74.1416 204.292C73.9816 204.756 73.9016 205.348 73.9016 206.068V206.5C73.9016 207.572 74.1656 208.356 74.6936 208.852C75.2216 209.348 75.9816 209.596 76.9736 209.596C77.6136 209.596 78.2136 209.524 78.7736 209.38C79.3496 209.236 79.8936 209.004 80.4056 208.684L81.5096 211.468C80.9016 211.884 80.1976 212.204 79.3976 212.428C78.5976 212.652 77.7496 212.764 76.8536 212.764ZM83.6638 212.5V203.62C83.6638 203.076 83.6478 202.524 83.6158 201.964C83.5838 201.404 83.5358 200.852 83.4718 200.308H87.5998L87.8398 202.42H87.5758C87.9758 201.652 88.5438 201.068 89.2798 200.668C90.0158 200.252 90.8478 200.044 91.7758 200.044C93.1998 200.044 94.2638 200.468 94.9678 201.316C95.6878 202.148 96.0478 203.452 96.0478 205.228V212.5H91.7758V205.42C91.7758 204.636 91.6398 204.092 91.3678 203.788C91.0958 203.468 90.7038 203.308 90.1918 203.308C89.5198 203.308 88.9758 203.532 88.5598 203.98C88.1438 204.412 87.9358 204.988 87.9358 205.708V212.5H83.6638ZM103.465 212.764C102.425 212.764 101.497 212.516 100.681 212.02C99.8649 211.508 99.2249 210.772 98.7609 209.812C98.2969 208.852 98.0649 207.716 98.0649 206.404C98.0649 205.076 98.2889 203.94 98.7369 202.996C99.2009 202.036 99.8409 201.308 100.657 200.812C101.489 200.3 102.425 200.044 103.465 200.044C104.393 200.044 105.233 200.26 105.985 200.692C106.737 201.108 107.241 201.668 107.497 202.372H107.137V194.836H111.409V212.5H107.209V210.316H107.521C107.297 211.052 106.801 211.644 106.033 212.092C105.281 212.54 104.425 212.764 103.465 212.764ZM104.833 209.596C105.537 209.596 106.113 209.348 106.561 208.852C107.025 208.34 107.257 207.524 107.257 206.404C107.257 205.284 107.025 204.476 106.561 203.98C106.113 203.468 105.537 203.212 104.833 203.212C104.113 203.212 103.521 203.468 103.057 203.98C102.609 204.476 102.385 205.284 102.385 206.404C102.385 207.524 102.609 208.34 103.057 208.852C103.521 209.348 104.113 209.596 104.833 209.596ZM121 212.5V203.644C121 203.084 120.984 202.524 120.952 201.964C120.92 201.404 120.872 200.852 120.808 200.308H124.936L125.392 204.052H124.744C124.904 203.14 125.16 202.388 125.512 201.796C125.864 201.204 126.304 200.764 126.832 200.476C127.36 200.188 127.984 200.044 128.704 200.044C129.04 200.044 129.288 200.06 129.448 200.092C129.624 200.108 129.808 200.156 130 200.236V203.98C129.6 203.804 129.28 203.692 129.04 203.644C128.8 203.596 128.488 203.572 128.104 203.572C127.448 203.572 126.912 203.692 126.496 203.932C126.08 204.156 125.776 204.508 125.584 204.988C125.408 205.468 125.32 206.084 125.32 206.836V212.5H121ZM137.51 212.764C136.038 212.764 134.782 212.508 133.742 211.996C132.702 211.484 131.902 210.748 131.342 209.788C130.798 208.828 130.526 207.692 130.526 206.38C130.526 205.148 130.782 204.052 131.294 203.092C131.806 202.132 132.526 201.388 133.454 200.86C134.382 200.316 135.47 200.044 136.718 200.044C137.95 200.044 138.974 200.316 139.79 200.86C140.622 201.388 141.246 202.124 141.662 203.068C142.078 203.996 142.286 205.076 142.286 206.308V207.22H134.102V205.204H139.142L138.734 205.54C138.734 204.628 138.558 203.956 138.206 203.524C137.87 203.076 137.39 202.852 136.766 202.852C136.286 202.852 135.878 202.972 135.542 203.212C135.222 203.452 134.974 203.812 134.798 204.292C134.638 204.756 134.558 205.348 134.558 206.068V206.5C134.558 207.572 134.822 208.356 135.35 208.852C135.878 209.348 136.638 209.596 137.63 209.596C138.27 209.596 138.87 209.524 139.43 209.38C140.006 209.236 140.55 209.004 141.062 208.684L142.166 211.468C141.558 211.884 140.854 212.204 140.054 212.428C139.254 212.652 138.406 212.764 137.51 212.764ZM152.84 217.684V210.436H153.128C152.888 211.14 152.384 211.708 151.616 212.14C150.864 212.556 150.032 212.764 149.12 212.764C148.064 212.764 147.136 212.516 146.336 212.02C145.536 211.508 144.904 210.772 144.44 209.812C143.992 208.852 143.768 207.716 143.768 206.404C143.768 205.076 143.992 203.94 144.44 202.996C144.904 202.036 145.536 201.308 146.336 200.812C147.136 200.3 148.064 200.044 149.12 200.044C150.064 200.044 150.912 200.268 151.664 200.716C152.432 201.164 152.936 201.748 153.176 202.468H152.936L153.2 200.308H157.304C157.256 200.852 157.208 201.404 157.16 201.964C157.128 202.524 157.112 203.076 157.112 203.62V217.684H152.84ZM150.488 209.596C151.208 209.596 151.792 209.348 152.24 208.852C152.688 208.34 152.912 207.524 152.912 206.404C152.912 205.284 152.688 204.476 152.24 203.98C151.792 203.468 151.208 203.212 150.488 203.212C149.768 203.212 149.184 203.468 148.736 203.98C148.288 204.476 148.064 205.284 148.064 206.404C148.064 207.524 148.28 208.34 148.712 208.852C149.16 209.348 149.752 209.596 150.488 209.596ZM164.253 212.764C162.701 212.764 161.549 212.34 160.797 211.492C160.061 210.628 159.693 209.324 159.693 207.58V200.308H163.965V207.604C163.965 208.244 164.093 208.724 164.349 209.044C164.621 209.348 165.021 209.5 165.549 209.5C166.173 209.5 166.677 209.284 167.061 208.852C167.461 208.404 167.661 207.82 167.661 207.1V200.308H171.933V212.5H167.781V210.316H168.141C167.757 211.1 167.237 211.708 166.581 212.14C165.925 212.556 165.149 212.764 164.253 212.764ZM181.033 212.764C179.561 212.764 178.305 212.508 177.265 211.996C176.225 211.484 175.425 210.748 174.865 209.788C174.321 208.828 174.049 207.692 174.049 206.38C174.049 205.148 174.305 204.052 174.817 203.092C175.329 202.132 176.049 201.388 176.977 200.86C177.905 200.316 178.993 200.044 180.241 200.044C181.473 200.044 182.497 200.316 183.313 200.86C184.145 201.388 184.769 202.124 185.185 203.068C185.601 203.996 185.809 205.076 185.809 206.308V207.22H177.625V205.204H182.665L182.257 205.54C182.257 204.628 182.081 203.956 181.729 203.524C181.393 203.076 180.913 202.852 180.289 202.852C179.809 202.852 179.401 202.972 179.065 203.212C178.745 203.452 178.497 203.812 178.321 204.292C178.161 204.756 178.081 205.348 178.081 206.068V206.5C178.081 207.572 178.345 208.356 178.873 208.852C179.401 209.348 180.161 209.596 181.153 209.596C181.793 209.596 182.393 209.524 182.953 209.38C183.529 209.236 184.073 209.004 184.585 208.684L185.689 211.468C185.081 211.884 184.377 212.204 183.577 212.428C182.777 212.652 181.929 212.764 181.033 212.764ZM192.523 212.764C191.387 212.764 190.355 212.652 189.427 212.428C188.515 212.188 187.739 211.868 187.099 211.468L188.131 208.684C188.755 209.036 189.451 209.324 190.219 209.548C191.003 209.772 191.779 209.884 192.547 209.884C193.155 209.884 193.595 209.796 193.867 209.62C194.155 209.428 194.299 209.18 194.299 208.876C194.299 208.636 194.211 208.444 194.035 208.3C193.859 208.156 193.595 208.052 193.243 207.988L190.651 207.532C189.627 207.34 188.827 206.964 188.251 206.404C187.691 205.828 187.411 205.084 187.411 204.172C187.411 203.34 187.635 202.62 188.083 202.012C188.531 201.388 189.171 200.908 190.003 200.572C190.835 200.22 191.819 200.044 192.955 200.044C193.883 200.044 194.763 200.148 195.595 200.356C196.443 200.564 197.179 200.892 197.803 201.34L196.699 204.052C196.203 203.716 195.619 203.444 194.947 203.236C194.291 203.012 193.675 202.9 193.099 202.9C192.411 202.9 191.923 203.004 191.635 203.212C191.347 203.404 191.203 203.644 191.203 203.932C191.203 204.156 191.283 204.348 191.443 204.508C191.603 204.652 191.859 204.756 192.211 204.82L194.803 205.276C195.859 205.452 196.667 205.82 197.227 206.38C197.803 206.924 198.091 207.668 198.091 208.612C198.091 209.492 197.851 210.244 197.371 210.868C196.907 211.476 196.259 211.948 195.427 212.284C194.595 212.604 193.627 212.764 192.523 212.764ZM206.107 212.764C204.379 212.764 203.075 212.356 202.195 211.54C201.331 210.708 200.899 209.452 200.899 207.772V203.452H198.619V200.308H200.899V197.428L205.171 196.42V200.308H208.147V203.452H205.171V207.604C205.171 208.308 205.331 208.78 205.651 209.02C205.971 209.244 206.355 209.356 206.803 209.356C207.075 209.356 207.307 209.34 207.499 209.308C207.707 209.26 207.923 209.196 208.147 209.116V212.404C207.795 212.548 207.443 212.644 207.091 212.692C206.755 212.74 206.427 212.764 206.107 212.764Z" fill="#303757"/>
<path d="M6.778 246.162C5.758 246.162 4.834 246.036 4.006 245.784C3.178 245.52 2.458 245.148 1.846 244.668L2.476 243.192C2.884 243.504 3.304 243.762 3.736 243.966C4.18 244.17 4.648 244.326 5.14 244.434C5.644 244.53 6.19 244.578 6.778 244.578C7.786 244.578 8.524 244.398 8.992 244.038C9.472 243.678 9.712 243.204 9.712 242.616C9.712 242.112 9.544 241.722 9.208 241.446C8.884 241.17 8.308 240.948 7.48 240.78L5.518 240.384C4.354 240.144 3.484 239.754 2.908 239.214C2.344 238.662 2.062 237.912 2.062 236.964C2.062 236.196 2.266 235.524 2.674 234.948C3.082 234.372 3.646 233.928 4.366 233.616C5.098 233.304 5.95 233.148 6.922 233.148C7.822 233.148 8.65 233.28 9.406 233.544C10.162 233.796 10.798 234.174 11.314 234.678L10.702 236.1C10.162 235.632 9.586 235.29 8.974 235.074C8.362 234.846 7.666 234.732 6.886 234.732C5.962 234.732 5.236 234.924 4.708 235.308C4.192 235.692 3.934 236.214 3.934 236.874C3.934 237.402 4.096 237.816 4.42 238.116C4.756 238.416 5.308 238.644 6.076 238.8L8.038 239.178C9.25 239.43 10.144 239.82 10.72 240.348C11.296 240.864 11.584 241.578 11.584 242.49C11.584 243.222 11.386 243.864 10.99 244.416C10.606 244.968 10.054 245.4 9.334 245.712C8.614 246.012 7.762 246.162 6.778 246.162ZM17.9166 246.162C16.9326 246.162 16.0866 245.976 15.3786 245.604C14.6826 245.232 14.1426 244.698 13.7586 244.002C13.3866 243.294 13.2006 242.454 13.2006 241.482C13.2006 240.534 13.3806 239.706 13.7406 238.998C14.1126 238.29 14.6226 237.744 15.2706 237.36C15.9306 236.964 16.6926 236.766 17.5566 236.766C18.4086 236.766 19.1226 236.946 19.6986 237.306C20.2746 237.666 20.7126 238.176 21.0126 238.836C21.3126 239.484 21.4626 240.252 21.4626 241.14V241.716H14.6226V240.672H20.2206L19.9146 240.906C19.9146 240.006 19.7106 239.31 19.3026 238.818C18.9066 238.314 18.3306 238.062 17.5746 238.062C17.0106 238.062 16.5306 238.194 16.1346 238.458C15.7506 238.722 15.4566 239.1 15.2526 239.592C15.0486 240.072 14.9466 240.654 14.9466 241.338V241.518C14.9466 242.586 15.2046 243.39 15.7206 243.93C16.2486 244.47 16.9926 244.74 17.9526 244.74C18.4806 244.74 18.9726 244.668 19.4286 244.524C19.8966 244.368 20.3406 244.116 20.7606 243.768L21.3546 245.01C20.9346 245.382 20.4246 245.67 19.8246 245.874C19.2246 246.066 18.5886 246.162 17.9166 246.162ZM27.0228 246.162C26.2188 246.162 25.5168 245.976 24.9168 245.604C24.3168 245.232 23.8488 244.692 23.5128 243.984C23.1888 243.276 23.0268 242.436 23.0268 241.464C23.0268 240.48 23.1888 239.64 23.5128 238.944C23.8488 238.248 24.3168 237.714 24.9168 237.342C25.5168 236.958 26.2188 236.766 27.0228 236.766C27.8148 236.766 28.5048 236.964 29.0928 237.36C29.6808 237.756 30.0708 238.296 30.2628 238.98H30.0648L30.2448 236.928H32.0088C31.9728 237.3 31.9368 237.672 31.9008 238.044C31.8768 238.404 31.8648 238.758 31.8648 239.106V246H30.0468V243.984H30.2448C30.0528 244.656 29.6568 245.19 29.0568 245.586C28.4688 245.97 27.7908 246.162 27.0228 246.162ZM27.4728 244.74C28.2528 244.74 28.8768 244.464 29.3448 243.912C29.8248 243.36 30.0648 242.544 30.0648 241.464C30.0648 240.384 29.8248 239.574 29.3448 239.034C28.8768 238.482 28.2528 238.206 27.4728 238.206C26.6808 238.206 26.0448 238.482 25.5648 239.034C25.0968 239.574 24.8628 240.384 24.8628 241.464C24.8628 242.544 25.0968 243.36 25.5648 243.912C26.0328 244.464 26.6688 244.74 27.4728 244.74ZM34.4815 246V239.178C34.4815 238.806 34.4695 238.434 34.4455 238.062C34.4335 237.678 34.4095 237.3 34.3735 236.928H36.1375L36.3355 239.268H36.0475C36.1675 238.704 36.3715 238.236 36.6595 237.864C36.9475 237.492 37.2955 237.216 37.7035 237.036C38.1235 236.856 38.5615 236.766 39.0175 236.766C39.2095 236.766 39.3715 236.778 39.5035 236.802C39.6355 236.814 39.7675 236.838 39.8995 236.874L39.8815 238.494C39.6775 238.41 39.4975 238.362 39.3415 238.35C39.1975 238.326 39.0175 238.314 38.8015 238.314C38.2735 238.314 37.8235 238.434 37.4515 238.674C37.0795 238.902 36.7975 239.214 36.6055 239.61C36.4135 240.006 36.3175 240.432 36.3175 240.888V246H34.4815ZM45.1577 246.162C44.2457 246.162 43.4477 245.976 42.7637 245.604C42.0917 245.22 41.5697 244.674 41.1977 243.966C40.8377 243.246 40.6577 242.394 40.6577 241.41C40.6577 240.438 40.8437 239.604 41.2157 238.908C41.5877 238.212 42.1097 237.684 42.7817 237.324C43.4537 236.952 44.2457 236.766 45.1577 236.766C45.7457 236.766 46.3157 236.868 46.8677 237.072C47.4197 237.264 47.8757 237.54 48.2357 237.9L47.6417 239.178C47.3057 238.854 46.9277 238.614 46.5077 238.458C46.0877 238.29 45.6797 238.206 45.2837 238.206C44.4197 238.206 43.7417 238.482 43.2497 239.034C42.7577 239.586 42.5117 240.384 42.5117 241.428C42.5117 242.484 42.7577 243.294 43.2497 243.858C43.7417 244.422 44.4197 244.704 45.2837 244.704C45.6677 244.704 46.0697 244.632 46.4897 244.488C46.9097 244.332 47.2937 244.086 47.6417 243.75L48.2357 245.028C47.8637 245.388 47.3957 245.67 46.8317 245.874C46.2797 246.066 45.7217 246.162 45.1577 246.162ZM50.1621 246V232.752H51.9801V238.854H51.7281C51.9921 238.17 52.4181 237.654 53.0061 237.306C53.5941 236.946 54.2721 236.766 55.0401 236.766C56.1201 236.766 56.9241 237.066 57.4521 237.666C57.9801 238.254 58.2441 239.148 58.2441 240.348V246H56.4261V240.456C56.4261 239.676 56.2701 239.112 55.9581 238.764C55.6581 238.404 55.1781 238.224 54.5181 238.224C53.7501 238.224 53.1321 238.464 52.6641 238.944C52.2081 239.412 51.9801 240.036 51.9801 240.816V246H50.1621ZM66.1708 246V238.332H64.4068V236.928H66.6748L66.1708 237.396V235.956C66.1708 234.888 66.4408 234.078 66.9808 233.526C67.5208 232.962 68.3128 232.68 69.3568 232.68C69.6088 232.68 69.8728 232.698 70.1488 232.734C70.4248 232.77 70.6528 232.83 70.8328 232.914V234.39C70.6888 234.33 70.5088 234.282 70.2928 234.246C70.0888 234.198 69.8788 234.174 69.6628 234.174C69.3148 234.174 69.0148 234.246 68.7628 234.39C68.5108 234.522 68.3128 234.726 68.1688 235.002C68.0368 235.278 67.9708 235.632 67.9708 236.064V237.288L67.7008 236.928H70.4368V238.332H67.9888V246H66.1708ZM75.6009 246.162C74.7009 246.162 73.9209 245.976 73.2609 245.604C72.6009 245.22 72.0909 244.68 71.7309 243.984C71.3709 243.276 71.1909 242.436 71.1909 241.464C71.1909 240.492 71.3709 239.658 71.7309 238.962C72.0909 238.254 72.6009 237.714 73.2609 237.342C73.9209 236.958 74.7009 236.766 75.6009 236.766C76.5009 236.766 77.2809 236.958 77.9409 237.342C78.6129 237.714 79.1289 238.254 79.4889 238.962C79.8609 239.658 80.0469 240.492 80.0469 241.464C80.0469 242.436 79.8609 243.276 79.4889 243.984C79.1289 244.68 78.6129 245.22 77.9409 245.604C77.2809 245.976 76.5009 246.162 75.6009 246.162ZM75.6009 244.74C76.3929 244.74 77.0229 244.464 77.4909 243.912C77.9589 243.36 78.1929 242.544 78.1929 241.464C78.1929 240.384 77.9589 239.574 77.4909 239.034C77.0229 238.482 76.3929 238.206 75.6009 238.206C74.8209 238.206 74.1969 238.482 73.7289 239.034C73.2609 239.574 73.0269 240.384 73.0269 241.464C73.0269 242.544 73.2609 243.36 73.7289 243.912C74.1969 244.464 74.8209 244.74 75.6009 244.74ZM82.1358 246V239.178C82.1358 238.806 82.1238 238.434 82.0998 238.062C82.0878 237.678 82.0638 237.3 82.0278 236.928H83.7918L83.9898 239.268H83.7018C83.8218 238.704 84.0258 238.236 84.3138 237.864C84.6018 237.492 84.9498 237.216 85.3578 237.036C85.7778 236.856 86.2158 236.766 86.6718 236.766C86.8638 236.766 87.0258 236.778 87.1578 236.802C87.2898 236.814 87.4218 236.838 87.5538 236.874L87.5358 238.494C87.3318 238.41 87.1518 238.362 86.9958 238.35C86.8518 238.326 86.6718 238.314 86.4558 238.314C85.9278 238.314 85.4778 238.434 85.1058 238.674C84.7338 238.902 84.4518 239.214 84.2598 239.61C84.0678 240.006 83.9718 240.432 83.9718 240.888V246H82.1358ZM96.4198 246L92.5318 236.928H94.4758L97.5358 244.506H97.0138L100.128 236.928H101.982L98.0758 246H96.4198ZM106.722 246.162C105.918 246.162 105.216 245.976 104.616 245.604C104.016 245.232 103.548 244.692 103.212 243.984C102.888 243.276 102.726 242.436 102.726 241.464C102.726 240.48 102.888 239.64 103.212 238.944C103.548 238.248 104.016 237.714 104.616 237.342C105.216 236.958 105.918 236.766 106.722 236.766C107.514 236.766 108.204 236.964 108.792 237.36C109.38 237.756 109.77 238.296 109.962 238.98H109.764L109.944 236.928H111.708C111.672 237.3 111.636 237.672 111.6 238.044C111.576 238.404 111.564 238.758 111.564 239.106V246H109.746V243.984H109.944C109.752 244.656 109.356 245.19 108.756 245.586C108.168 245.97 107.49 246.162 106.722 246.162ZM107.172 244.74C107.952 244.74 108.576 244.464 109.044 243.912C109.524 243.36 109.764 242.544 109.764 241.464C109.764 240.384 109.524 239.574 109.044 239.034C108.576 238.482 107.952 238.206 107.172 238.206C106.38 238.206 105.744 238.482 105.264 239.034C104.796 239.574 104.562 240.384 104.562 241.464C104.562 242.544 104.796 243.36 105.264 243.912C105.732 244.464 106.368 244.74 107.172 244.74ZM118.195 246.162C117.283 246.162 116.485 245.976 115.801 245.604C115.129 245.22 114.607 244.674 114.235 243.966C113.875 243.246 113.695 242.394 113.695 241.41C113.695 240.438 113.881 239.604 114.253 238.908C114.625 238.212 115.147 237.684 115.819 237.324C116.491 236.952 117.283 236.766 118.195 236.766C118.783 236.766 119.353 236.868 119.905 237.072C120.457 237.264 120.913 237.54 121.273 237.9L120.679 239.178C120.343 238.854 119.965 238.614 119.545 238.458C119.125 238.29 118.717 238.206 118.321 238.206C117.457 238.206 116.779 238.482 116.287 239.034C115.795 239.586 115.549 240.384 115.549 241.428C115.549 242.484 115.795 243.294 116.287 243.858C116.779 244.422 117.457 244.704 118.321 244.704C118.705 244.704 119.107 244.632 119.527 244.488C119.947 244.332 120.331 244.086 120.679 243.75L121.273 245.028C120.901 245.388 120.433 245.67 119.869 245.874C119.317 246.066 118.759 246.162 118.195 246.162ZM126.603 246.162C125.799 246.162 125.097 245.976 124.497 245.604C123.897 245.232 123.429 244.692 123.093 243.984C122.769 243.276 122.607 242.436 122.607 241.464C122.607 240.48 122.769 239.64 123.093 238.944C123.429 238.248 123.897 237.714 124.497 237.342C125.097 236.958 125.799 236.766 126.603 236.766C127.395 236.766 128.085 236.964 128.673 237.36C129.261 237.756 129.651 238.296 129.843 238.98H129.645L129.825 236.928H131.589C131.553 237.3 131.517 237.672 131.481 238.044C131.457 238.404 131.445 238.758 131.445 239.106V246H129.627V243.984H129.825C129.633 244.656 129.237 245.19 128.637 245.586C128.049 245.97 127.371 246.162 126.603 246.162ZM127.053 244.74C127.833 244.74 128.457 244.464 128.925 243.912C129.405 243.36 129.645 242.544 129.645 241.464C129.645 240.384 129.405 239.574 128.925 239.034C128.457 238.482 127.833 238.206 127.053 238.206C126.261 238.206 125.625 238.482 125.145 239.034C124.677 239.574 124.443 240.384 124.443 241.464C124.443 242.544 124.677 243.36 125.145 243.912C125.613 244.464 126.249 244.74 127.053 244.74ZM134.098 246V239.106C134.098 238.758 134.08 238.404 134.044 238.044C134.02 237.672 133.99 237.3 133.954 236.928H135.718L135.88 238.836H135.664C135.94 238.164 136.366 237.654 136.942 237.306C137.518 236.946 138.184 236.766 138.94 236.766C140.008 236.766 140.812 237.06 141.352 237.648C141.904 238.236 142.18 239.148 142.18 240.384V246H140.362V240.492C140.362 239.688 140.2 239.112 139.876 238.764C139.564 238.404 139.084 238.224 138.436 238.224C137.668 238.224 137.056 238.464 136.6 238.944C136.144 239.412 135.916 240.048 135.916 240.852V246H134.098ZM148.746 246.162C147.834 246.162 147.036 245.976 146.352 245.604C145.68 245.22 145.158 244.674 144.786 243.966C144.426 243.246 144.246 242.394 144.246 241.41C144.246 240.438 144.432 239.604 144.804 238.908C145.176 238.212 145.698 237.684 146.37 237.324C147.042 236.952 147.834 236.766 148.746 236.766C149.334 236.766 149.904 236.868 150.456 237.072C151.008 237.264 151.464 237.54 151.824 237.9L151.23 239.178C150.894 238.854 150.516 238.614 150.096 238.458C149.676 238.29 149.268 238.206 148.872 238.206C148.008 238.206 147.33 238.482 146.838 239.034C146.346 239.586 146.1 240.384 146.1 241.428C146.1 242.484 146.346 243.294 146.838 243.858C147.33 244.422 148.008 244.704 148.872 244.704C149.256 244.704 149.658 244.632 150.078 244.488C150.498 244.332 150.882 244.086 151.23 243.75L151.824 245.028C151.452 245.388 150.984 245.67 150.42 245.874C149.868 246.066 149.31 246.162 148.746 246.162ZM153.585 250.086L153.153 248.61C153.717 248.49 154.185 248.346 154.557 248.178C154.941 248.01 155.259 247.788 155.511 247.512C155.763 247.248 155.979 246.906 156.159 246.486L156.609 245.424L156.573 246.162L152.631 236.928H154.575L157.635 244.488H157.149L160.209 236.928H162.081L157.923 246.648C157.659 247.248 157.377 247.752 157.077 248.16C156.777 248.568 156.453 248.898 156.105 249.15C155.757 249.402 155.373 249.6 154.953 249.744C154.533 249.888 154.077 250.002 153.585 250.086ZM171.833 246.162C170.849 246.162 170.105 245.898 169.601 245.37C169.097 244.83 168.845 244.026 168.845 242.958V238.332H167.081V236.928H168.845V234.534L170.663 234.048V236.928H173.183V238.332H170.663V242.796C170.663 243.468 170.783 243.948 171.023 244.236C171.263 244.524 171.611 244.668 172.067 244.668C172.295 244.668 172.493 244.65 172.661 244.614C172.841 244.566 173.003 244.512 173.147 244.452V245.928C172.967 246 172.757 246.054 172.517 246.09C172.277 246.138 172.049 246.162 171.833 246.162ZM174.844 246V232.752H176.662V238.854H176.41C176.674 238.17 177.1 237.654 177.688 237.306C178.276 236.946 178.954 236.766 179.722 236.766C180.802 236.766 181.606 237.066 182.134 237.666C182.662 238.254 182.926 239.148 182.926 240.348V246H181.108V240.456C181.108 239.676 180.952 239.112 180.64 238.764C180.34 238.404 179.86 238.224 179.2 238.224C178.432 238.224 177.814 238.464 177.346 238.944C176.89 239.412 176.662 240.036 176.662 240.816V246H174.844ZM188.988 246.162C188.184 246.162 187.482 245.976 186.882 245.604C186.282 245.232 185.814 244.692 185.478 243.984C185.154 243.276 184.992 242.436 184.992 241.464C184.992 240.48 185.154 239.64 185.478 238.944C185.814 238.248 186.282 237.714 186.882 237.342C187.482 236.958 188.184 236.766 188.988 236.766C189.78 236.766 190.47 236.964 191.058 237.36C191.646 237.756 192.036 238.296 192.228 238.98H192.03L192.21 236.928H193.974C193.938 237.3 193.902 237.672 193.866 238.044C193.842 238.404 193.83 238.758 193.83 239.106V246H192.012V243.984H192.21C192.018 244.656 191.622 245.19 191.022 245.586C190.434 245.97 189.756 246.162 188.988 246.162ZM189.438 244.74C190.218 244.74 190.842 244.464 191.31 243.912C191.79 243.36 192.03 242.544 192.03 241.464C192.03 240.384 191.79 239.574 191.31 239.034C190.842 238.482 190.218 238.206 189.438 238.206C188.646 238.206 188.01 238.482 187.53 239.034C187.062 239.574 186.828 240.384 186.828 241.464C186.828 242.544 187.062 243.36 187.53 243.912C187.998 244.464 188.634 244.74 189.438 244.74ZM200.01 246.162C199.026 246.162 198.282 245.898 197.778 245.37C197.274 244.83 197.022 244.026 197.022 242.958V238.332H195.258V236.928H197.022V234.534L198.84 234.048V236.928H201.36V238.332H198.84V242.796C198.84 243.468 198.96 243.948 199.2 244.236C199.44 244.524 199.788 244.668 200.244 244.668C200.472 244.668 200.67 244.65 200.838 244.614C201.018 244.566 201.18 244.512 201.324 244.452V245.928C201.144 246 200.934 246.054 200.694 246.09C200.454 246.138 200.226 246.162 200.01 246.162ZM2.062 273.086L1.63 271.61C2.194 271.49 2.662 271.346 3.034 271.178C3.418 271.01 3.736 270.788 3.988 270.512C4.24 270.248 4.456 269.906 4.636 269.486L5.086 268.424L5.05 269.162L1.108 259.928H3.052L6.112 267.488H5.626L8.686 259.928H10.558L6.4 269.648C6.136 270.248 5.854 270.752 5.554 271.16C5.254 271.568 4.93 271.898 4.582 272.15C4.234 272.402 3.85 272.6 3.43 272.744C3.01 272.888 2.554 273.002 2.062 273.086ZM15.7122 269.162C14.8122 269.162 14.0322 268.976 13.3722 268.604C12.7122 268.22 12.2022 267.68 11.8422 266.984C11.4822 266.276 11.3022 265.436 11.3022 264.464C11.3022 263.492 11.4822 262.658 11.8422 261.962C12.2022 261.254 12.7122 260.714 13.3722 260.342C14.0322 259.958 14.8122 259.766 15.7122 259.766C16.6122 259.766 17.3922 259.958 18.0522 260.342C18.7242 260.714 19.2402 261.254 19.6002 261.962C19.9722 262.658 20.1582 263.492 20.1582 264.464C20.1582 265.436 19.9722 266.276 19.6002 266.984C19.2402 267.68 18.7242 268.22 18.0522 268.604C17.3922 268.976 16.6122 269.162 15.7122 269.162ZM15.7122 267.74C16.5042 267.74 17.1342 267.464 17.6022 266.912C18.0702 266.36 18.3042 265.544 18.3042 264.464C18.3042 263.384 18.0702 262.574 17.6022 262.034C17.1342 261.482 16.5042 261.206 15.7122 261.206C14.9322 261.206 14.3082 261.482 13.8402 262.034C13.3722 262.574 13.1382 263.384 13.1382 264.464C13.1382 265.544 13.3722 266.36 13.8402 266.912C14.3082 267.464 14.9322 267.74 15.7122 267.74ZM25.5052 269.162C24.4132 269.162 23.5912 268.868 23.0392 268.28C22.4992 267.68 22.2292 266.762 22.2292 265.526V259.928H24.0472V265.49C24.0472 266.246 24.2032 266.804 24.5152 267.164C24.8272 267.524 25.3012 267.704 25.9372 267.704C26.6572 267.704 27.2392 267.464 27.6832 266.984C28.1272 266.504 28.3492 265.868 28.3492 265.076V259.928H30.1672V269H28.4032V267.056H28.6372C28.3852 267.728 27.9832 268.25 27.4312 268.622C26.8792 268.982 26.2372 269.162 25.5052 269.162ZM37.6289 269V255.752H39.4469V269H37.6289ZM42.1113 269V259.928H43.9293V269H42.1113ZM41.9673 258.038V256.148H44.0733V258.038H41.9673ZM46.5937 269V255.752H48.4117V263.888H48.4477L52.4077 259.928H54.6577L49.8697 264.698L49.8877 263.888L55.0537 269H52.7497L48.4477 264.842H48.4117V269H46.5937ZM60.1744 269.162C59.1904 269.162 58.3444 268.976 57.6364 268.604C56.9404 268.232 56.4004 267.698 56.0164 267.002C55.6444 266.294 55.4584 265.454 55.4584 264.482C55.4584 263.534 55.6384 262.706 55.9984 261.998C56.3704 261.29 56.8804 260.744 57.5284 260.36C58.1884 259.964 58.9504 259.766 59.8144 259.766C60.6664 259.766 61.3804 259.946 61.9564 260.306C62.5324 260.666 62.9704 261.176 63.2704 261.836C63.5704 262.484 63.7204 263.252 63.7204 264.14V264.716H56.8804V263.672H62.4784L62.1724 263.906C62.1724 263.006 61.9684 262.31 61.5604 261.818C61.1644 261.314 60.5884 261.062 59.8324 261.062C59.2684 261.062 58.7884 261.194 58.3924 261.458C58.0084 261.722 57.7144 262.1 57.5104 262.592C57.3064 263.072 57.2044 263.654 57.2044 264.338V264.518C57.2044 265.586 57.4624 266.39 57.9784 266.93C58.5064 267.47 59.2504 267.74 60.2104 267.74C60.7384 267.74 61.2304 267.668 61.6864 267.524C62.1544 267.368 62.5984 267.116 63.0184 266.768L63.6124 268.01C63.1924 268.382 62.6824 268.67 62.0824 268.874C61.4824 269.066 60.8464 269.162 60.1744 269.162Z" fill="#8C8F9F"/>
<path d="M94.6964 0.0170154C86.4595 0.15312 78.2226 1.30151 70.1898 3.53874C46.8646 10.0378 32.6349 36.893 27.8832 59.2142C22.0094 86.8351 24.432 127.02 41.4838 150.456C55.3055 169.451 89.4517 176.971 111.408 177.923C141.1 179.208 190.734 166.167 204.046 136.284C219.389 101.841 196.217 60.7199 174.065 35.013C154.599 12.4196 124.686 -0.484872 94.6964 0.0170154Z" fill="#F3F7FC"/>
<g filter="url(#filter0_d_0_1)">
<rect x="23" y="63.6483" width="169" height="61" rx="30.5" transform="rotate(-7.35962 23 63.6483)" fill="#3B86C6"/>
<path d="M69.6509 94.4261L73.3472 82.5749L75.3942 82.3106L82.0439 92.8254L79.5368 93.1492L77.7862 90.2133L78.8423 90.7706L72.1936 91.6293L73.0893 90.8199L72.1422 94.1043L69.6509 94.4261ZM74.6989 85.0462L73.2791 90.1662L72.7728 89.6186L77.7712 88.973L77.4842 89.6231L74.7624 85.038L74.6989 85.0462ZM83.2926 96.1488L82.0813 86.7707C82.0376 86.4322 81.9826 86.0897 81.9163 85.7434C81.8487 85.3864 81.7712 85.0361 81.6838 84.6925L83.9847 84.3953L84.378 85.9417L84.2035 85.9642C84.2938 85.4148 84.5731 84.9539 85.0412 84.5815C85.508 84.1986 86.0694 83.9647 86.7253 83.88C87.4235 83.7898 88.0589 83.8799 88.6315 84.1501C89.2028 84.4097 89.6769 84.8324 90.0537 85.4183C90.4411 86.0029 90.6908 86.7288 90.8029 87.5963C90.9163 88.4743 90.8599 89.2453 90.6337 89.909C90.4182 90.5714 90.0678 91.1061 89.5825 91.5129C89.0973 91.9197 88.5056 92.1682 87.8074 92.2584C87.1621 92.3418 86.5657 92.2628 86.0183 92.0216C85.4815 91.7791 85.0957 91.4148 84.8608 90.9289L85.0512 90.9043L85.6887 95.8393L83.2926 96.1488ZM86.8438 90.5437C87.4045 90.4713 87.8288 90.2175 88.1168 89.7824C88.4048 89.3473 88.4961 88.7224 88.3909 87.9078C88.2857 87.0933 88.0393 86.5174 87.6515 86.1803C87.2638 85.8432 86.7896 85.7109 86.229 85.7833C85.6789 85.8543 85.2539 86.1028 84.9539 86.5287C84.6646 86.9533 84.5726 87.5729 84.6778 88.3874C84.783 89.202 85.0301 89.7831 85.4192 90.1308C85.8189 90.4771 86.2937 90.6148 86.8438 90.5437ZM93.3187 94.8538L92.1074 85.4757C92.0636 85.1372 92.0087 84.7948 91.9424 84.4484C91.8748 84.0915 91.7973 83.7412 91.7099 83.3975L94.0108 83.1003L94.4041 84.6467L94.2295 84.6692C94.3199 84.1198 94.5992 83.6589 95.0673 83.2865C95.5341 82.9036 96.0955 82.6698 96.7513 82.585C97.4495 82.4949 98.085 82.5849 98.6576 82.8551C99.2289 83.1147 99.703 83.5375 100.08 84.1234C100.467 84.7079 100.717 85.4339 100.829 86.3013C100.942 87.1794 100.886 87.9503 100.66 88.614C100.444 89.2765 100.094 89.8111 99.6086 90.2179C99.1234 90.6248 98.5317 90.8733 97.8335 90.9634C97.1882 91.0468 96.5918 90.9679 96.0444 90.7267C95.5076 90.4841 95.1218 90.1199 94.8869 89.6339L95.0773 89.6093L95.7147 94.5444L93.3187 94.8538ZM96.8699 89.2488C97.4306 89.1763 97.8549 88.9226 98.1429 88.4874C98.4308 88.0523 98.5222 87.4274 98.417 86.6129C98.3118 85.7983 98.0653 85.2225 97.6776 84.8853C97.2899 84.5482 96.8157 84.4159 96.2551 84.4883C95.705 84.5593 95.28 84.8078 94.98 85.2338C94.6907 85.6583 94.5986 86.2779 94.7039 87.0925C94.8091 87.907 95.0562 88.4881 95.4453 88.8358C95.8449 89.1822 96.3198 89.3198 96.8699 89.2488ZM102.902 90.1313L101.394 78.4523L103.79 78.1429L105.298 89.8218L102.902 90.1313ZM107.642 93.1812L106.845 91.3805C107.33 91.2211 107.734 91.056 108.056 90.8854C108.388 90.7133 108.652 90.5072 108.847 90.2669C109.043 90.0372 109.189 89.7495 109.284 89.4038L109.56 88.4164L109.615 89.3449L105.075 81.6713L107.598 81.3454L110.651 86.8719L110.159 86.9354L111.74 80.8105L114.12 80.5031L111.566 89.3349C111.379 89.9721 111.158 90.5062 110.902 90.9372C110.658 91.3775 110.376 91.7365 110.057 92.0143C109.738 92.2922 109.375 92.5219 108.968 92.7035C108.572 92.8837 108.13 93.043 107.642 93.1812ZM120.459 87.8636L119.691 81.913C119.647 81.5745 119.592 81.2321 119.526 80.8857C119.458 80.5288 119.381 80.1785 119.293 79.8348L121.594 79.5377L121.961 81.0067L121.771 81.0313C121.967 80.4682 122.29 80.0124 122.74 79.664C123.189 79.3155 123.737 79.0996 124.382 79.0162C125.324 78.8946 126.063 79.0788 126.599 79.5688C127.145 80.0468 127.492 80.8571 127.639 81.9996L128.266 86.8552L125.87 87.1647L125.258 82.4201C125.182 81.8383 125.023 81.4394 124.78 81.2234C124.537 81.0074 124.204 80.9268 123.781 80.9814C123.252 81.0497 122.851 81.2736 122.577 81.6532C122.302 82.0221 122.201 82.4869 122.273 83.0476L122.855 87.5541L120.459 87.8636ZM134.022 86.2893C133.165 86.4 132.397 86.3271 131.719 86.0705C131.05 85.802 130.5 85.3783 130.07 84.7992C129.651 84.2188 129.386 83.4949 129.274 82.6274C129.163 81.7705 129.237 81.0081 129.495 80.3403C129.763 79.671 130.187 79.1268 130.768 78.7077C131.359 78.2872 132.083 78.0216 132.94 77.9109C133.797 77.8003 134.564 77.8732 135.243 78.1297C135.921 78.3863 136.47 78.8047 136.889 79.3852C137.319 79.9642 137.589 80.6822 137.7 81.5391C137.812 82.4065 137.734 83.1749 137.465 83.8441C137.207 84.512 136.783 85.0615 136.194 85.4926C135.603 85.9131 134.879 86.1787 134.022 86.2893ZM133.788 84.4804C134.338 84.4093 134.747 84.1576 135.014 83.7252C135.291 83.2914 135.377 82.6672 135.272 81.8527C135.167 81.0381 134.925 80.4616 134.548 80.1231C134.182 79.7832 133.723 79.6488 133.173 79.7199C132.623 79.791 132.209 80.0381 131.93 80.4613C131.662 80.8831 131.58 81.5013 131.686 82.3159C131.791 83.1304 132.027 83.7129 132.395 84.0633C132.774 84.4124 133.238 84.5514 133.788 84.4804ZM141.851 85.1007L137.575 77.4736L140.034 77.1559L142.909 82.6732L142.496 82.7265L143.89 76.6579L145.477 76.4529L148.351 81.9702L148.018 82.0132L149.365 75.9508L151.681 75.6516L149.499 84.1128L147.436 84.3792L144.385 78.7397L145.353 78.6146L143.914 84.8342L141.851 85.1007Z" fill="white"/>
</g>
</g>
<defs>
<filter id="filter0_d_0_1" x="23" y="42" width="175.422" height="86.1458" filterUnits="userSpaceOnUse" color-interpolation-filters="sRGB">
<feFlood flood-opacity="0" result="BackgroundImageFix"/>
<feColorMatrix in="SourceAlpha" type="matrix" values="0 0 0 0 0 0 0 0 0 0 0 0 0 0 0 0 0 0 127 0" result="hardAlpha"/>
<feOffset dy="4"/>
<feComposite in2="hardAlpha" operator="out"/>
<feColorMatrix type="matrix" values="0 0 0 0 0.138958 0 0 0 0 0.313484 0 0 0 0 0.462413 0 0 0 1 0"/>
<feBlend mode="normal" in2="BackgroundImageFix" result="effect1_dropShadow_0_1"/>
<feBlend mode="normal" in="SourceGraphic" in2="effect1_dropShadow_0_1" result="shape"/>
</filter>
<clipPath id="clip0_0_1">
<rect width="1440" height="2026" fill="white" transform="translate(-766 -907)"/>
</clipPath>
</defs>
</svg>
