<svg width="97" height="97" viewBox="0 0 97 97" fill="none" xmlns="http://www.w3.org/2000/svg">
<g opacity="0.1" clip-path="url(#clip0_5_6)">
<path d="M46.8687 60.4256C57.01 63.3033 67.7348 63.4269 77.9397 60.7836L73.1242 76.7877C72.3871 79.2377 70.7068 81.2945 68.4532 82.5056C66.1996 83.7167 63.5571 83.983 61.1072 83.2458L17.783 70.2099C15.333 69.4728 13.2762 67.7925 12.0651 65.5389C10.854 63.2853 10.5877 60.6428 11.3249 58.1929L16.1404 42.1888C23.1923 50.0244 32.2046 55.8396 42.25 59.0359L41.8608 60.3291C41.6765 60.9416 41.7431 61.6022 42.0459 62.1656C42.3487 62.729 42.8628 63.1491 43.4753 63.3334C44.0878 63.5177 44.7484 63.4511 45.3119 63.1483C45.8753 62.8455 46.2953 62.3314 46.4796 61.7189L46.8687 60.4256ZM82.1437 46.8118L79.6005 55.2642C74.5335 56.7869 75.7372 56.4691 74.0783 56.8766C64.6975 58.6076 55.0357 58.0176 45.9352 55.1581C36.7678 52.521 28.3846 47.6814 21.5166 41.0613C20.2703 39.6789 21.3042 40.8463 17.8011 36.6693L20.3444 28.2169C21.0816 25.767 22.7618 23.7102 25.0154 22.4991C27.269 21.288 29.9115 21.0217 32.3615 21.7589L41.599 24.5384C42.3302 24.7619 43.1185 24.704 43.8091 24.3758C44.4997 24.0477 45.0426 23.4731 45.3311 22.7651C46.0235 21.1078 47.3076 19.7674 48.9336 19.0045C50.5597 18.2415 52.4113 18.1107 54.1284 18.6374L59.5324 20.2634C61.2551 20.7717 62.7271 21.9026 63.6622 23.4361C64.5972 24.9697 64.9284 26.7961 64.5914 28.5603C64.4412 29.31 64.5769 30.0888 64.9718 30.7435C65.3666 31.3982 65.9921 31.8816 66.7252 32.0986L75.9628 34.8781C78.3427 35.6728 80.3193 37.3635 81.4733 39.5915C82.6273 41.8195 82.8677 44.4095 82.1437 46.8118ZM59.5199 29.9306C59.4258 29.1512 59.4592 28.3617 59.6188 27.593C59.7334 27.0041 59.6243 26.3936 59.3129 25.8808C59.0015 25.368 58.5102 24.9897 57.9348 24.8197L52.6001 23.2145C52.0265 23.0388 51.408 23.0832 50.8653 23.339C50.3226 23.5948 49.8948 24.0438 49.6654 24.5981C49.3743 25.3272 48.9665 26.0041 48.4579 26.6022L59.5199 29.9306Z" fill="#3B86C6"/>
</g>
<defs>
<clipPath id="clip0_5_6">
<rect width="77.1734" height="77.1734" fill="white" transform="translate(22.2361) rotate(16.7461)"/>
</clipPath>
</defs>
</svg>
