<svg width="15" height="16" viewBox="0 0 15 16" fill="none" xmlns="http://www.w3.org/2000/svg">
<path d="M12.6562 4.71875H2.34375C2.08487 4.71875 1.875 4.92862 1.875 5.1875V12.6875C1.875 12.9464 2.08487 13.1562 2.34375 13.1562H12.6562C12.9151 13.1562 13.125 12.9464 13.125 12.6875V5.1875C13.125 4.92862 12.9151 4.71875 12.6562 4.71875Z" stroke="#3070A6" stroke-width="1.125" stroke-linecap="round" stroke-linejoin="round"/>
<path d="M9.84375 4.71875V3.78125C9.84375 3.53261 9.74498 3.29415 9.56916 3.11834C9.39335 2.94252 9.15489 2.84375 8.90625 2.84375H6.09375C5.84511 2.84375 5.60665 2.94252 5.43084 3.11834C5.25502 3.29415 5.15625 3.53261 5.15625 3.78125V4.71875" stroke="#3070A6" stroke-width="1.125" stroke-linecap="round" stroke-linejoin="round"/>
<path d="M1.875 9.875H13.125" stroke="#3070A6" stroke-width="1.125" stroke-linecap="round" stroke-linejoin="round"/>
</svg>
