<svg width="238" height="251" viewBox="0 0 238 251" fill="none" xmlns="http://www.w3.org/2000/svg">
<rect width="238" height="251" fill="#D4E2EB"/>
<g clip-path="url(#clip0_0_1)">
<rect width="1440" height="2026" transform="translate(-142 -907)" fill="white"/>
<path d="M88.2553 0.0141156C77.8251 0.150216 67.3949 1.29856 57.2229 3.5357C27.6868 10.0345 9.66795 36.8887 3.65092 59.2091C-3.78695 86.8289 -0.719228 127.012 20.8732 150.447C38.3753 169.442 81.614 176.961 109.417 177.914C147.016 179.198 209.866 166.158 226.722 136.276C246.151 101.834 216.809 60.7147 188.758 35.0088C164.109 12.4162 126.23 -0.487753 88.2553 0.0141156Z" fill="#F3F7FC"/>
<g clip-path="url(#clip1_0_1)">
<path d="M207.311 160.983H15.6886C12.5649 160.983 8.42452 159.947 5.7356 158.15C5.10016 162.753 10.4245 169 15.6886 169H207.318C212.575 169 217.906 162.753 217.271 158.143C214.575 159.947 210.435 160.983 207.311 160.983Z" fill="#3B86C6"/>
<path d="M187.084 16H35.9158C31.4811 16 27.8892 19.5878 27.8892 24.0175V111.541C27.8892 115.971 31.4811 119.559 35.9158 119.559H187.084C191.519 119.559 195.111 115.971 195.111 111.541V24.0175C195.111 19.5878 191.519 16 187.084 16Z" fill="#3070A6"/>
<path d="M219.779 153.099L197.251 119.425C196.067 117.655 191.512 116.218 187.077 116.218H35.9091C31.4744 116.218 26.9259 117.655 25.7353 119.425L3.22062 153.099C2.03669 154.869 5.82258 156.306 11.6753 156.306H211.331C217.177 156.306 220.963 154.869 219.779 153.099Z" fill="#F8F9FB"/>
<path d="M211.325 156.306H11.6754C6.61862 156.306 3.11366 155.237 3.01332 153.8C2.6655 158.183 10.5517 160.983 15.6887 160.983H207.318C212.448 160.983 220.334 158.183 219.993 153.8C219.886 155.237 216.381 156.306 211.325 156.306Z" fill="#D5E7EE"/>
<path d="M40.0229 122.165C39.247 122.165 38.752 121.931 38.9125 121.65C39.14 121.236 39.2604 121.029 39.4878 120.615C39.6483 120.327 40.3975 120.1 41.1533 120.1C43.3606 120.1 44.4643 120.1 46.6716 120.1C47.4341 120.1 47.9358 120.334 47.7953 120.615C47.5947 121.029 47.4877 121.236 47.287 121.65C47.1465 121.937 46.4041 122.165 45.6282 122.165C43.3874 122.165 42.2703 122.165 40.0229 122.165Z" fill="#C0DBE5"/>
<path d="M49.8354 122.165C49.0595 122.165 48.5445 121.931 48.685 121.65C48.8856 121.236 48.9859 121.029 49.1799 120.615C49.3204 120.327 50.0495 120.1 50.8053 120.1C53.0126 120.1 54.1163 120.1 56.3236 120.1C57.0862 120.1 57.6079 120.334 57.4875 120.615C57.3136 121.029 57.2266 121.236 57.0527 121.65C56.9323 121.937 56.2099 122.165 55.434 122.165C53.1999 122.165 52.0762 122.165 49.8354 122.165Z" fill="#C0DBE5"/>
<path d="M59.6413 122.165C58.8654 122.165 58.337 121.931 58.4507 121.65C58.6179 121.236 58.7049 121.029 58.8721 120.615C58.9858 120.327 59.7015 120.1 60.464 120.1C62.6714 120.1 63.775 120.1 65.9824 120.1C66.7449 120.1 67.28 120.334 67.1863 120.615C67.0459 121.029 66.9723 121.236 66.8318 121.65C66.7315 121.937 66.0292 122.165 65.2533 122.165C63.0058 122.165 61.8888 122.165 59.6413 122.165Z" fill="#C0DBE5"/>
<path d="M69.4538 122.165C68.6779 122.165 68.1294 121.931 68.2231 121.65C68.3635 121.236 68.4304 121.029 68.5642 120.615C68.6578 120.327 69.3535 120.1 70.116 120.1C72.3233 120.1 73.427 120.1 75.6343 120.1C76.3968 120.1 76.952 120.334 76.8784 120.615C76.7647 121.029 76.7112 121.236 76.6042 121.65C76.5306 121.937 75.835 122.165 75.0658 122.165C72.8183 122.165 71.6946 122.165 69.4538 122.165Z" fill="#C0DBE5"/>
<path d="M79.2665 122.165C78.4906 122.165 77.9221 121.931 77.9957 121.65C78.1027 121.236 78.1562 121.029 78.2632 120.615C78.3368 120.327 79.0124 120.1 79.7749 120.1C81.9822 120.1 83.0859 120.1 85.2932 120.1C86.0557 120.1 86.631 120.334 86.5708 120.615C86.4905 121.029 86.4504 121.236 86.3701 121.65C86.3166 121.937 85.641 122.165 84.8718 122.165C82.631 122.165 81.5073 122.165 79.2665 122.165Z" fill="#C0DBE5"/>
<path d="M89.0724 122.165C88.2965 122.165 87.7146 121.931 87.7681 121.65C87.8416 121.236 87.8818 121.029 87.9553 120.615C88.0089 120.327 88.6711 120.1 89.4269 120.1C91.6342 120.1 92.7379 120.1 94.9452 120.1C95.7077 120.1 96.2964 120.334 96.2629 120.615C96.2161 121.029 96.1893 121.236 96.1425 121.65C96.1091 121.937 95.4536 122.165 94.6777 122.165C92.4369 122.165 91.3198 122.165 89.0724 122.165Z" fill="#C0DBE5"/>
<path d="M98.8849 122.165C98.109 122.165 97.5069 121.931 97.5404 121.65C97.5872 121.236 97.6073 121.029 97.6541 120.615C97.6875 120.327 98.3297 120.1 99.0855 120.1C101.293 120.1 102.397 120.1 104.604 120.1C105.366 120.1 105.975 120.334 105.962 120.615C105.942 121.029 105.935 121.236 105.915 121.65C105.901 121.937 105.266 122.165 104.49 122.165C102.249 122.165 101.126 122.165 98.8849 122.165Z" fill="#C0DBE5"/>
<path d="M108.697 122.165C107.921 122.165 107.306 121.931 107.313 121.65C107.326 121.236 107.333 121.029 107.346 120.615C107.353 120.327 107.982 120.1 108.744 120.1C110.952 120.1 112.055 120.1 114.263 120.1C115.025 120.1 115.647 120.334 115.66 120.615C115.674 121.029 115.681 121.236 115.694 121.65C115.701 121.937 115.079 122.165 114.309 122.165C112.062 122.165 110.938 122.165 108.697 122.165Z" fill="#C0DBE5"/>
<path d="M118.51 122.165C117.741 122.165 117.098 121.931 117.085 121.65C117.065 121.236 117.058 121.029 117.038 120.615C117.025 120.327 117.634 120.1 118.396 120.1C120.603 120.1 121.707 120.1 123.914 120.1C124.677 120.1 125.319 120.334 125.346 120.615C125.393 121.029 125.413 121.236 125.46 121.65C125.493 121.937 124.884 122.165 124.115 122.165C121.868 122.165 120.751 122.165 118.51 122.165Z" fill="#C0DBE5"/>
<path d="M128.316 122.165C127.547 122.165 126.884 121.931 126.851 121.65C126.804 121.236 126.777 121.029 126.731 120.615C126.697 120.327 127.286 120.1 128.048 120.1C130.256 120.1 131.359 120.1 133.567 120.1C134.329 120.1 134.991 120.334 135.038 120.615C135.112 121.029 135.152 121.236 135.225 121.65C135.279 121.937 134.69 122.165 133.921 122.165C131.68 122.165 130.557 122.165 128.316 122.165Z" fill="#C0DBE5"/>
<path d="M138.128 122.165C137.353 122.165 136.684 121.931 136.63 121.65C136.55 121.236 136.51 121.029 136.429 120.615C136.376 120.327 136.951 120.1 137.707 120.1C139.914 120.1 141.018 120.1 143.225 120.1C143.988 120.1 144.663 120.334 144.737 120.615C144.844 121.029 144.898 121.236 145.005 121.65C145.078 121.937 144.51 122.165 143.734 122.165C141.493 122.165 140.369 122.165 138.128 122.165Z" fill="#C0DBE5"/>
<path d="M147.941 122.165C147.165 122.165 146.476 121.931 146.403 121.65C146.289 121.236 146.235 121.029 146.128 120.615C146.055 120.327 146.61 120.1 147.373 120.1C149.58 120.1 150.683 120.1 152.891 120.1C153.653 120.1 154.349 120.334 154.443 120.615C154.583 121.029 154.65 121.236 154.784 121.65C154.877 121.937 154.329 122.165 153.553 122.165C151.299 122.165 150.182 122.165 147.941 122.165Z" fill="#C0DBE5"/>
<path d="M157.747 122.165C156.978 122.165 156.269 121.931 156.168 121.65C156.028 121.236 155.954 121.029 155.814 120.615C155.713 120.327 156.255 120.1 157.018 120.1C159.225 120.1 160.329 120.1 162.536 120.1C163.299 120.1 164.008 120.334 164.128 120.615C164.295 121.029 164.382 121.236 164.549 121.65C164.663 121.937 164.128 122.165 163.359 122.165C161.111 122.165 159.988 122.165 157.747 122.165Z" fill="#C0DBE5"/>
<path d="M167.559 122.165C166.783 122.165 166.061 121.931 165.941 121.65C165.767 121.236 165.68 121.029 165.506 120.615C165.385 120.327 165.907 120.1 166.67 120.1C168.877 120.1 169.981 120.1 172.188 120.1C172.95 120.1 173.68 120.334 173.813 120.615C174.014 121.029 174.114 121.236 174.308 121.65C174.449 121.937 173.927 122.165 173.158 122.165C170.924 122.165 169.8 122.165 167.559 122.165Z" fill="#C0DBE5"/>
<path d="M177.365 122.165C176.596 122.165 175.847 121.931 175.706 121.65C175.506 121.236 175.399 121.029 175.198 120.615C175.058 120.327 175.559 120.1 176.322 120.1C178.529 120.1 179.633 120.1 181.84 120.1C182.603 120.1 183.352 120.334 183.506 120.615C183.733 121.029 183.854 121.236 184.081 121.65C184.241 121.937 183.74 122.165 182.971 122.165C180.73 122.165 179.613 122.165 177.365 122.165Z" fill="#C0DBE5"/>
<path d="M38.0497 125.786C37.2537 125.786 36.7386 125.552 36.8992 125.271C37.3607 124.443 37.5881 124.029 38.0497 123.2C38.2102 122.913 38.966 122.686 39.7419 122.686C40.8657 122.686 41.4275 122.686 42.558 122.686C43.3339 122.686 43.8489 122.92 43.7018 123.2C43.2737 124.029 43.0663 124.443 42.6382 125.271C42.4911 125.559 41.7285 125.786 40.9326 125.786C39.7754 125.786 39.2002 125.786 38.0497 125.786Z" fill="#C0DBE5"/>
<path d="M45.247 125.786C44.451 125.786 43.9226 125.552 44.0698 125.271C44.4845 124.443 44.6918 124.029 45.1132 123.2C45.2537 122.913 46.0028 122.686 46.7787 122.686C49.0329 122.686 50.1566 122.686 52.4041 122.686C53.18 122.686 53.7084 122.92 53.5813 123.2C53.2201 124.029 53.0395 124.443 52.6716 125.271C52.5445 125.559 51.7954 125.786 51.0061 125.786C48.7051 125.786 47.5547 125.786 45.247 125.786Z" fill="#C0DBE5"/>
<path d="M55.3269 125.786C54.5309 125.786 53.9891 125.552 54.1095 125.271C54.464 124.443 54.6379 124.029 54.9924 123.2C55.1128 122.913 55.8419 122.686 56.6178 122.686C58.872 122.686 59.9957 122.686 62.2432 122.686C63.0191 122.686 63.5676 122.92 63.4605 123.2C63.1595 124.029 63.0057 124.443 62.7047 125.271C62.5977 125.559 61.8686 125.786 61.0793 125.786C58.785 125.786 57.6345 125.786 55.3269 125.786Z" fill="#C0DBE5"/>
<path d="M65.4139 125.786C64.6179 125.786 64.056 125.552 64.1564 125.271C64.4507 124.443 64.5978 124.029 64.8855 123.2C64.9858 122.913 65.7015 122.686 66.4774 122.686C68.7316 122.686 69.8553 122.686 72.1027 122.686C72.8787 122.686 73.4405 122.92 73.3603 123.2C73.1195 124.029 72.9991 124.443 72.7649 125.271C72.6847 125.559 71.969 125.786 71.173 125.786C68.8653 125.786 67.7148 125.786 65.4139 125.786Z" fill="#C0DBE5"/>
<path d="M75.494 125.786C74.698 125.786 74.1161 125.552 74.1964 125.271C74.4238 124.443 74.5442 124.029 74.7716 123.2C74.8519 122.913 75.5475 122.686 76.3234 122.686C78.5776 122.686 79.7013 122.686 81.9488 122.686C82.7247 122.686 83.3066 122.92 83.2464 123.2C83.0725 124.029 82.9788 124.443 82.8049 125.271C82.7447 125.559 82.0491 125.786 81.2531 125.786C78.9521 125.786 77.795 125.786 75.494 125.786Z" fill="#C0DBE5"/>
<path d="M85.574 125.786C84.778 125.786 84.1827 125.552 84.2363 125.271C84.4035 124.443 84.4904 124.029 84.6577 123.2C84.7179 122.913 85.3934 122.686 86.1693 122.686C88.4235 122.686 89.5472 122.686 91.7947 122.686C92.5706 122.686 93.1726 122.92 93.1324 123.2C93.0187 124.029 92.9585 124.443 92.8448 125.271C92.8047 125.559 92.1291 125.786 91.3331 125.786C89.0322 125.786 87.8817 125.786 85.574 125.786Z" fill="#C0DBE5"/>
<path d="M95.6541 125.786C94.8581 125.786 94.2427 125.552 94.2829 125.271C94.3899 124.443 94.4434 124.029 94.5504 123.2C94.5839 122.913 95.2461 122.686 96.022 122.686C98.2761 122.686 99.3998 122.686 101.647 122.686C102.423 122.686 103.039 122.92 103.019 123.2C102.965 124.029 102.938 124.443 102.885 125.271C102.865 125.559 102.202 125.786 101.413 125.786C99.1122 125.786 97.9617 125.786 95.6541 125.786Z" fill="#C0DBE5"/>
<path d="M105.741 125.786C104.945 125.786 104.316 125.552 104.33 125.271C104.376 124.443 104.396 124.029 104.443 123.2C104.457 122.913 105.099 122.686 105.881 122.686C108.136 122.686 109.259 122.686 111.507 122.686C112.283 122.686 112.918 122.92 112.918 123.2C112.925 124.029 112.931 124.443 112.938 125.271C112.938 125.559 112.296 125.786 111.507 125.786C109.192 125.786 108.042 125.786 105.741 125.786Z" fill="#C0DBE5"/>
<path d="M115.821 125.786C115.025 125.786 114.376 125.552 114.37 125.271C114.35 124.443 114.343 124.029 114.323 123.2C114.316 122.913 114.945 122.686 115.721 122.686C117.975 122.686 119.099 122.686 121.346 122.686C122.122 122.686 122.771 122.92 122.798 123.2C122.871 124.029 122.905 124.443 122.972 125.271C122.998 125.559 122.37 125.786 121.574 125.786C119.279 125.786 118.122 125.786 115.821 125.786Z" fill="#C0DBE5"/>
<path d="M125.901 125.786C125.105 125.786 124.436 125.552 124.41 125.271C124.329 124.443 124.289 124.029 124.209 123.2C124.182 122.913 124.791 122.686 125.567 122.686C127.821 122.686 128.945 122.686 131.192 122.686C131.968 122.686 132.637 122.92 132.684 123.2C132.817 124.029 132.884 124.443 133.018 125.271C133.065 125.559 132.456 125.786 131.66 125.786C129.359 125.786 128.209 125.786 125.901 125.786Z" fill="#C0DBE5"/>
<path d="M135.981 125.786C135.185 125.786 134.503 125.552 134.45 125.271C134.309 124.443 134.236 124.029 134.095 123.2C134.048 122.913 134.637 122.686 135.413 122.686C137.667 122.686 138.791 122.686 141.038 122.686C141.814 122.686 142.503 122.92 142.57 123.2C142.764 124.029 142.864 124.443 143.058 125.271C143.125 125.559 142.536 125.786 141.74 125.786C139.44 125.786 138.289 125.786 135.981 125.786Z" fill="#C0DBE5"/>
<path d="M146.068 125.786C145.272 125.786 144.57 125.552 144.503 125.271C144.302 124.443 144.195 124.029 143.995 123.2C143.921 122.913 144.496 122.686 145.272 122.686C147.526 122.686 148.65 122.686 150.898 122.686C151.673 122.686 152.376 122.92 152.463 123.2C152.717 124.029 152.851 124.443 153.105 125.271C153.192 125.559 152.617 125.786 151.827 125.786C149.52 125.786 148.369 125.786 146.068 125.786Z" fill="#C0DBE5"/>
<path d="M156.148 125.786C155.352 125.786 154.636 125.552 154.543 125.271C154.275 124.443 154.141 124.029 153.881 123.2C153.787 122.913 154.349 122.686 155.125 122.686C157.379 122.686 158.503 122.686 160.75 122.686C161.526 122.686 162.248 122.92 162.355 123.2C162.676 124.029 162.837 124.443 163.151 125.271C163.258 125.559 162.703 125.786 161.907 125.786C159.606 125.786 158.449 125.786 156.148 125.786Z" fill="#C0DBE5"/>
<path d="M166.228 125.786C165.432 125.786 164.697 125.552 164.583 125.271C164.255 124.443 164.088 124.029 163.767 123.2C163.653 122.913 164.195 122.686 164.971 122.686C172.288 122.686 175.947 122.686 183.258 122.686C184.034 122.686 184.797 122.92 184.95 123.2C185.412 124.029 185.639 124.443 186.101 125.271C186.261 125.559 185.74 125.786 184.95 125.786C177.459 125.786 173.72 125.786 166.228 125.786Z" fill="#C0DBE5"/>
<path d="M36.0697 129.407C35.2536 129.407 34.7185 129.173 34.879 128.893C35.3406 128.064 35.568 127.65 36.0295 126.821C36.1901 126.534 36.966 126.307 37.7619 126.307C41.2335 126.307 42.9659 126.307 46.4374 126.307C47.2334 126.307 47.7752 126.541 47.6414 126.821C47.2534 127.65 47.0595 128.064 46.6648 128.893C46.531 129.18 45.7551 129.407 44.9391 129.407C41.394 129.407 39.6214 129.407 36.0697 129.407Z" fill="#C0DBE5"/>
<path d="M49.3806 129.407C48.5646 129.407 48.0094 129.173 48.1365 128.893C48.5178 128.064 48.7051 127.65 49.0863 126.821C49.2201 126.534 49.976 126.307 50.7719 126.307C53.0863 126.307 54.2434 126.307 56.5578 126.307C57.3538 126.307 57.9089 126.541 57.8019 126.821C57.4742 127.65 57.3069 128.064 56.9792 128.893C56.8655 129.18 56.1096 129.407 55.2936 129.407C52.9324 129.407 51.7485 129.407 49.3806 129.407Z" fill="#C0DBE5"/>
<path d="M59.735 129.407C58.919 129.407 58.3437 129.173 58.4575 128.893C58.7785 128.064 58.939 127.65 59.2534 126.821C59.3604 126.534 60.1029 126.307 60.8989 126.307C63.2132 126.307 64.3704 126.307 66.6847 126.307C67.4807 126.307 68.056 126.541 67.9623 126.821C67.6948 127.65 67.561 128.064 67.3001 128.893C67.2065 129.18 66.4707 129.407 65.6547 129.407C63.2868 129.407 62.1029 129.407 59.735 129.407Z" fill="#C0DBE5"/>
<path d="M70.0894 129.407C69.2734 129.407 68.6847 129.173 68.7717 128.893C69.0259 128.064 69.1597 127.65 69.4138 126.821C69.5008 126.534 70.2232 126.307 71.0192 126.307C73.3335 126.307 74.4907 126.307 76.805 126.307C77.601 126.307 78.1963 126.541 78.1227 126.821C77.9221 127.65 77.815 128.064 77.6144 128.893C77.5475 129.18 76.8251 129.407 76.0091 129.407C73.6345 129.407 72.4506 129.407 70.0894 129.407Z" fill="#C0DBE5"/>
<path d="M80.4371 129.407C79.621 129.407 79.0124 129.173 79.0792 128.893C79.2732 128.064 79.3736 127.65 79.5675 126.821C79.6344 126.534 80.3368 126.307 81.1327 126.307C83.4471 126.307 84.6043 126.307 86.9186 126.307C87.7146 126.307 88.3233 126.541 88.2764 126.821C88.136 127.65 88.0624 128.064 87.9219 128.893C87.8751 129.18 87.1728 129.407 86.3567 129.407C83.9889 129.407 82.8049 129.407 80.4371 129.407Z" fill="#C0DBE5"/>
<path d="M90.7913 129.407C89.9753 129.407 89.3465 129.173 89.3933 128.893C89.5271 128.064 89.594 127.65 89.7278 126.821C89.7746 126.534 90.4568 126.307 91.2595 126.307C93.5739 126.307 94.731 126.307 97.0454 126.307C97.8414 126.307 98.4701 126.541 98.4433 126.821C98.3631 127.65 98.3229 128.064 98.2427 128.893C98.2159 129.18 97.527 129.407 96.7109 129.407C94.3431 129.407 93.1591 129.407 90.7913 129.407Z" fill="#C0DBE5"/>
<path d="M101.146 129.407C100.33 129.407 99.6874 129.173 99.7075 128.893C99.7811 128.064 99.8145 127.65 99.8814 126.821C99.9082 126.534 100.577 126.307 101.373 126.307C103.687 126.307 104.845 126.307 107.159 126.307C107.955 126.307 108.597 126.541 108.59 126.821C108.57 127.65 108.564 128.064 108.543 128.893C108.537 129.18 107.868 129.407 107.052 129.407C104.697 129.407 103.513 129.407 101.146 129.407Z" fill="#C0DBE5"/>
<path d="M111.5 129.407C110.684 129.407 110.022 129.173 110.028 128.893C110.035 128.064 110.042 127.65 110.048 126.821C110.048 126.534 110.704 126.307 111.5 126.307C113.814 126.307 114.971 126.307 117.286 126.307C118.082 126.307 118.744 126.541 118.757 126.821C118.804 127.65 118.824 128.064 118.871 128.893C118.884 129.18 118.236 129.407 117.42 129.407C115.052 129.407 113.868 129.407 111.5 129.407Z" fill="#C0DBE5"/>
<path d="M121.854 129.407C121.038 129.407 120.363 129.173 120.343 128.893C120.289 128.064 120.262 127.65 120.209 126.821C120.189 126.534 120.824 126.307 121.62 126.307C123.935 126.307 125.092 126.307 127.406 126.307C128.202 126.307 128.884 126.541 128.918 126.821C129.025 127.65 129.078 128.064 129.185 128.893C129.219 129.18 128.59 129.407 127.774 129.407C125.4 129.407 124.216 129.407 121.854 129.407Z" fill="#C0DBE5"/>
<path d="M132.209 129.407C131.393 129.407 130.697 129.173 130.657 128.893C130.543 128.064 130.483 127.65 130.369 126.821C130.329 126.534 130.945 126.307 131.741 126.307C134.055 126.307 135.212 126.307 137.526 126.307C138.322 126.307 139.018 126.541 139.078 126.821C139.245 127.65 139.332 128.064 139.5 128.893C139.56 129.18 138.944 129.407 138.128 129.407C135.754 129.407 134.57 129.407 132.209 129.407Z" fill="#C0DBE5"/>
<path d="M142.556 129.407C141.74 129.407 141.025 129.173 140.964 128.893C140.791 128.064 140.697 127.65 140.523 126.821C140.463 126.534 141.058 126.307 141.861 126.307C144.175 126.307 145.332 126.307 147.647 126.307C148.443 126.307 149.158 126.541 149.239 126.821C149.466 127.65 149.586 128.064 149.814 128.893C149.894 129.18 149.292 129.407 148.476 129.407C146.108 129.407 144.924 129.407 142.556 129.407Z" fill="#C0DBE5"/>
<path d="M152.911 129.407C152.095 129.407 151.366 129.173 151.285 128.893C151.045 128.064 150.924 127.65 150.69 126.821C150.61 126.534 151.192 126.307 151.988 126.307C154.302 126.307 155.459 126.307 157.774 126.307C158.569 126.307 159.299 126.541 159.399 126.821C159.693 127.65 159.84 128.064 160.128 128.893C160.228 129.18 159.646 129.407 158.83 129.407C156.462 129.407 155.279 129.407 152.911 129.407Z" fill="#C0DBE5"/>
<path d="M163.265 129.407C162.449 129.407 161.7 129.173 161.6 128.893C161.299 128.064 161.145 127.65 160.844 126.821C160.737 126.534 161.305 126.307 162.101 126.307C164.416 126.307 165.573 126.307 167.887 126.307C168.683 126.307 169.432 126.541 169.553 126.821C169.907 127.65 170.081 128.064 170.436 128.893C170.556 129.18 169.994 129.407 169.178 129.407C166.81 129.407 165.633 129.407 163.265 129.407Z" fill="#C0DBE5"/>
<path d="M173.619 129.407C172.803 129.407 172.041 129.173 171.914 128.893C171.553 128.064 171.372 127.65 171.004 126.821C170.877 126.534 171.426 126.307 172.222 126.307C177.425 126.307 180.027 126.307 185.231 126.307C186.027 126.307 186.803 126.541 186.964 126.821C187.425 127.65 187.653 128.064 188.114 128.893C188.275 129.18 187.74 129.407 186.924 129.407C181.606 129.407 178.944 129.407 173.619 129.407Z" fill="#C0DBE5"/>
<path d="M34.0965 133.028C33.2604 133.028 32.7053 132.794 32.8658 132.514C33.3273 131.685 33.5547 131.271 34.0163 130.443C34.1768 130.155 34.9728 129.928 35.7888 129.928C40.5379 129.928 42.9125 129.928 47.6615 129.928C48.4776 129.928 49.0394 130.162 48.9124 130.443C48.5378 131.271 48.3572 131.685 47.9826 132.514C47.8555 132.801 47.0662 133.028 46.2301 133.028C41.3807 133.028 38.9526 133.028 34.0965 133.028Z" fill="#C0DBE5"/>
<path d="M50.792 133.028C49.9559 133.028 49.374 132.794 49.5011 132.514C49.8623 131.685 50.0429 131.271 50.4108 130.443C50.5378 130.155 51.3004 129.928 52.1231 129.928C54.4977 129.928 55.6883 129.928 58.0628 129.928C58.8789 129.928 59.4608 130.162 59.3538 130.443C59.0461 131.271 58.8855 131.685 58.5779 132.514C58.4708 132.801 57.7016 133.028 56.8655 133.028C54.4308 133.028 53.2201 133.028 50.792 133.028Z" fill="#C0DBE5"/>
<path d="M61.4139 133.028C60.5778 133.028 59.9825 132.794 60.0828 132.514C60.3838 131.685 60.5377 131.271 60.8387 130.443C60.9457 130.155 61.6948 129.928 62.5109 129.928C64.8854 129.928 66.076 129.928 68.4506 129.928C69.2666 129.928 69.8686 130.162 69.7817 130.443C69.5342 131.271 69.4071 131.685 69.1596 132.514C69.0726 132.801 68.3235 133.028 67.4874 133.028C65.0593 133.028 63.842 133.028 61.4139 133.028Z" fill="#C0DBE5"/>
<path d="M72.0357 133.028C71.1996 133.028 70.5842 132.794 70.6645 132.514C70.9053 131.685 71.0257 131.271 71.2598 130.443C71.3401 130.155 72.0759 129.928 72.8919 129.928C75.2664 129.928 76.4571 129.928 78.8316 129.928C79.6476 129.928 80.263 130.162 80.2028 130.443C80.0155 131.271 79.9219 131.685 79.7346 132.514C79.6677 132.801 78.9386 133.028 78.1025 133.028C75.6812 133.028 74.4638 133.028 72.0357 133.028Z" fill="#C0DBE5"/>
<path d="M82.6643 133.028C81.8282 133.028 81.1994 132.794 81.2596 132.514C81.4335 131.685 81.5272 131.271 81.7011 130.443C81.7613 130.155 82.477 129.928 83.293 129.928C85.6676 129.928 86.8582 129.928 89.2327 129.928C90.0488 129.928 90.6842 130.162 90.6374 130.443C90.5103 131.271 90.4501 131.685 90.3297 132.514C90.2896 132.801 89.5739 133.028 88.7377 133.028C86.303 133.028 85.0923 133.028 82.6643 133.028Z" fill="#C0DBE5"/>
<path d="M93.2864 133.028C92.4503 133.028 91.8015 132.794 91.8416 132.514C91.9553 131.685 92.0155 131.271 92.1292 130.443C92.1694 130.155 92.865 129.928 93.6877 129.928C96.0623 129.928 97.2529 129.928 99.6274 129.928C100.443 129.928 101.092 130.162 101.072 130.443C101.012 131.271 100.979 131.685 100.918 132.514C100.898 132.801 100.196 133.028 99.3599 133.028C96.9318 133.028 95.7145 133.028 93.2864 133.028Z" fill="#C0DBE5"/>
<path d="M103.908 133.028C103.072 133.028 102.403 132.794 102.423 132.514C102.477 131.685 102.504 131.271 102.557 130.443C102.577 130.155 103.253 129.928 104.075 129.928C106.45 129.928 107.641 129.928 110.015 129.928C110.831 129.928 111.5 130.162 111.5 130.443C111.5 131.271 111.5 131.685 111.5 132.514C111.5 132.801 110.818 133.028 109.982 133.028C107.554 133.028 106.336 133.028 103.908 133.028Z" fill="#C0DBE5"/>
<path d="M114.537 133.028C113.701 133.028 113.018 132.794 113.012 132.514C113.005 131.685 112.998 131.271 112.992 130.443C112.992 130.155 113.654 129.928 114.47 129.928C116.844 129.928 118.035 129.928 120.41 129.928C121.226 129.928 121.915 130.162 121.935 130.443C121.995 131.271 122.028 131.685 122.089 132.514C122.109 132.801 121.446 133.028 120.61 133.028C118.176 133.028 116.965 133.028 114.537 133.028Z" fill="#C0DBE5"/>
<path d="M125.159 133.028C124.323 133.028 123.62 132.794 123.593 132.514C123.52 131.685 123.486 131.271 123.419 130.443C123.393 130.155 124.042 129.928 124.858 129.928C127.232 129.928 128.423 129.928 130.797 129.928C131.613 129.928 132.316 130.162 132.363 130.443C132.49 131.271 132.55 131.685 132.67 132.514C132.71 132.801 132.068 133.028 131.232 133.028C128.804 133.028 127.587 133.028 125.159 133.028Z" fill="#C0DBE5"/>
<path d="M135.781 133.028C134.944 133.028 134.229 132.794 134.182 132.514C134.048 131.685 133.981 131.271 133.847 130.443C133.801 130.155 134.429 129.928 135.252 129.928C137.627 129.928 138.817 129.928 141.192 129.928C142.008 129.928 142.73 130.162 142.79 130.443C142.978 131.271 143.071 131.685 143.259 132.514C143.326 132.801 142.697 133.028 141.854 133.028C139.426 133.028 138.215 133.028 135.781 133.028Z" fill="#C0DBE5"/>
<path d="M146.409 133.028C145.573 133.028 144.837 132.794 144.77 132.514C144.576 131.685 144.476 131.271 144.282 130.443C144.215 130.155 144.824 129.928 145.647 129.928C148.021 129.928 149.212 129.928 151.586 129.928C152.402 129.928 153.138 130.162 153.225 130.443C153.473 131.271 153.6 131.685 153.847 132.514C153.934 132.801 153.319 133.028 152.483 133.028C150.048 133.028 148.837 133.028 146.409 133.028Z" fill="#C0DBE5"/>
<path d="M157.031 133.028C156.195 133.028 155.439 132.794 155.352 132.514C155.098 131.685 154.964 131.271 154.71 130.443C154.623 130.155 155.218 129.928 156.034 129.928C158.409 129.928 159.6 129.928 161.974 129.928C162.79 129.928 163.546 130.162 163.653 130.443C163.961 131.271 164.121 131.685 164.429 132.514C164.536 132.801 163.941 133.028 163.105 133.028C160.677 133.028 159.459 133.028 157.031 133.028Z" fill="#C0DBE5"/>
<path d="M167.653 133.028C166.817 133.028 166.048 132.794 165.934 132.514C165.613 131.685 165.452 131.271 165.138 130.443C165.031 130.155 165.606 129.928 166.422 129.928C173.352 129.928 180.275 129.928 187.205 129.928C188.021 129.928 188.817 130.162 188.977 130.443C189.439 131.271 189.666 131.685 190.128 132.514C190.288 132.801 189.733 133.028 188.897 133.028C181.82 133.028 174.737 133.028 167.653 133.028Z" fill="#C0DBE5"/>
<path d="M32.1166 136.65C31.2604 136.65 30.6918 136.416 30.8457 136.135C31.3072 135.307 31.5346 134.892 31.9962 134.064C32.1567 133.777 32.966 133.549 33.8088 133.549C40.9191 133.549 48.0227 133.549 55.1329 133.549C55.9757 133.549 56.5643 133.783 56.4573 134.064C56.1363 134.892 55.9757 135.307 55.6614 136.135C55.5543 136.422 54.765 136.65 53.9089 136.65C46.6448 136.65 39.3807 136.65 32.1166 136.65Z" fill="#C0DBE5"/>
<path d="M58.5778 136.65C57.7216 136.65 57.1062 136.416 57.2133 136.135C57.521 135.307 57.6815 134.892 57.9892 134.064C58.0962 133.777 58.8654 133.549 59.7082 133.549C62.143 133.549 63.367 133.549 65.8018 133.549C66.6446 133.549 67.2532 133.783 67.1663 134.064C66.9121 134.892 66.7783 135.307 66.5242 136.135C66.4372 136.422 65.668 136.65 64.8051 136.65C62.3169 136.65 61.066 136.65 58.5778 136.65Z" fill="#C0DBE5"/>
<path d="M69.4741 136.65C68.6179 136.65 67.9891 136.416 68.0694 136.135C68.3169 135.307 68.444 134.892 68.6915 134.064C68.7784 133.777 69.5276 133.549 70.3704 133.549C72.8051 133.549 74.0292 133.549 76.4639 133.549C77.3067 133.549 77.9355 133.783 77.8686 134.064C77.6746 134.892 77.5743 135.307 77.3803 136.135C77.3134 136.422 76.5576 136.65 75.7014 136.65C73.2065 136.65 71.9623 136.65 69.4741 136.65Z" fill="#C0DBE5"/>
<path d="M80.3701 136.65C79.5139 136.65 78.8651 136.416 78.932 136.135C79.1193 135.307 79.2129 134.892 79.4002 134.064C79.4671 133.777 80.2029 133.549 81.039 133.549C83.4737 133.549 84.6978 133.549 87.1325 133.549C87.9753 133.549 88.6175 133.783 88.5706 134.064C88.4369 134.892 88.37 135.307 88.2362 136.135C88.1894 136.422 87.4536 136.65 86.5974 136.65C84.1025 136.65 82.8583 136.65 80.3701 136.65Z" fill="#C0DBE5"/>
<path d="M91.2664 136.65C90.4102 136.65 89.748 136.416 89.7881 136.135C89.9152 135.307 89.9754 134.892 90.0958 134.064C90.1359 133.777 90.8583 133.549 91.6944 133.549C94.1292 133.549 95.3532 133.549 97.788 133.549C98.6308 133.549 99.293 133.783 99.2662 134.064C99.1926 134.892 99.1592 135.307 99.0923 136.135C99.0656 136.422 98.3499 136.65 97.4937 136.65C94.9987 136.65 93.7546 136.65 91.2664 136.65Z" fill="#C0DBE5"/>
<path d="M102.162 136.65C101.306 136.65 100.624 136.416 100.644 136.135C100.704 135.307 100.738 134.892 100.798 134.064C100.818 133.777 101.52 133.549 102.363 133.549C104.798 133.549 106.022 133.549 108.457 133.549C109.299 133.549 109.975 133.783 109.975 134.064C109.968 134.892 109.962 135.307 109.955 136.135C109.955 136.422 109.253 136.65 108.39 136.65C105.895 136.65 104.651 136.65 102.162 136.65Z" fill="#C0DBE5"/>
<path d="M113.058 136.65C112.202 136.65 111.5 136.416 111.5 136.135C111.5 135.307 111.5 134.892 111.5 134.064C111.5 133.777 112.182 133.549 113.025 133.549C115.46 133.549 116.684 133.549 119.119 133.549C119.961 133.549 120.657 133.783 120.677 134.064C120.731 134.892 120.757 135.307 120.811 136.135C120.831 136.422 120.149 136.65 119.286 136.65C116.791 136.65 115.547 136.65 113.058 136.65Z" fill="#C0DBE5"/>
<path d="M123.955 136.65C123.099 136.65 122.383 136.416 122.363 136.135C122.303 135.307 122.269 134.892 122.209 134.064C122.189 133.777 122.851 133.549 123.694 133.549C126.129 133.549 127.353 133.549 129.787 133.549C130.63 133.549 131.346 133.783 131.379 134.064C131.493 134.892 131.553 135.307 131.667 136.135C131.707 136.422 131.038 136.65 130.182 136.65C127.687 136.65 126.443 136.65 123.955 136.65Z" fill="#C0DBE5"/>
<path d="M134.844 136.65C133.988 136.65 133.252 136.416 133.212 136.135C133.085 135.307 133.025 134.892 132.904 134.064C132.864 133.777 133.513 133.549 134.349 133.549C136.784 133.549 138.008 133.549 140.443 133.549C141.285 133.549 142.015 133.783 142.075 134.064C142.249 134.892 142.342 135.307 142.516 136.135C142.576 136.422 141.928 136.65 141.071 136.65C138.583 136.65 137.339 136.65 134.844 136.65Z" fill="#C0DBE5"/>
<path d="M145.74 136.65C144.884 136.65 144.135 136.416 144.068 136.135C143.881 135.307 143.787 134.892 143.6 134.064C143.533 133.777 144.168 133.549 145.004 133.549C147.439 133.549 148.663 133.549 151.098 133.549C151.941 133.549 152.69 133.783 152.77 134.064C153.011 134.892 153.131 135.307 153.366 136.135C153.446 136.422 152.817 136.65 151.961 136.65C149.479 136.65 148.235 136.65 145.74 136.65Z" fill="#C0DBE5"/>
<path d="M156.637 136.65C155.78 136.65 155.011 136.416 154.924 136.135C154.677 135.307 154.55 134.892 154.302 134.064C154.215 133.777 154.831 133.549 155.673 133.549C158.108 133.549 159.332 133.549 161.767 133.549C162.61 133.549 163.372 133.783 163.479 134.064C163.78 134.892 163.934 135.307 164.235 136.135C164.342 136.422 163.727 136.65 162.864 136.65C160.376 136.65 159.131 136.65 156.637 136.65Z" fill="#C0DBE5"/>
<path d="M167.533 136.65C166.676 136.65 165.887 136.416 165.78 136.135C165.472 135.307 165.312 134.892 165.004 134.064C164.897 133.777 165.492 133.549 166.335 133.549C173.954 133.549 181.566 133.549 189.184 133.549C190.027 133.549 190.837 133.783 190.997 134.064C191.459 134.892 191.686 135.307 192.148 136.135C192.308 136.422 191.74 136.65 190.877 136.65C183.098 136.65 175.318 136.65 167.533 136.65Z" fill="#C0DBE5"/>
<path d="M30.1434 140.271C29.2605 140.271 28.6786 140.037 28.8391 139.756C29.3007 138.928 29.5281 138.514 29.9896 137.685C30.1501 137.398 30.9796 137.171 31.8424 137.171C34.344 137.171 35.5882 137.171 38.0898 137.171C38.9527 137.171 39.5346 137.405 39.3941 137.685C38.9861 138.514 38.7855 138.928 38.3774 139.756C38.237 140.044 37.4075 140.271 36.5246 140.271C33.9695 140.271 32.6919 140.271 30.1434 140.271Z" fill="#C0DBE5"/>
<path d="M41.3072 140.271C40.4243 140.271 39.8223 140.037 39.9627 139.756C40.3641 138.928 40.558 138.514 40.9594 137.685C41.0998 137.398 41.9092 137.171 42.772 137.171C45.2737 137.171 46.5178 137.171 49.0194 137.171C49.8823 137.171 50.4843 137.405 50.3639 137.685C50.0161 138.514 49.8489 138.928 49.501 139.756C49.3806 140.044 48.5713 140.271 47.6884 140.271C45.1399 140.271 43.8623 140.271 41.3072 140.271Z" fill="#C0DBE5"/>
<path d="M52.4775 140.271C51.5945 140.271 50.9792 140.037 51.0929 139.756C51.4273 138.928 51.5945 138.514 51.9357 137.685C52.0494 137.398 52.8454 137.171 53.7082 137.171C56.2099 137.171 57.454 137.171 59.9556 137.171C60.8185 137.171 61.4405 137.405 61.3402 137.685C61.0593 138.514 60.9121 138.928 60.6312 139.756C60.5309 140.044 59.7416 140.271 58.8586 140.271C56.3035 140.271 55.0259 140.271 52.4775 140.271Z" fill="#C0DBE5"/>
<path d="M63.6412 140.271C62.7582 140.271 62.1228 140.037 62.2164 139.756C62.4907 138.928 62.6311 138.514 62.9054 137.685C62.999 137.398 63.7749 137.171 64.6378 137.171C69.6344 137.171 72.136 137.171 77.1326 137.171C77.9954 137.171 78.6443 137.405 78.5774 137.685C78.3901 138.514 78.2964 138.928 78.1092 139.756C78.0423 140.044 77.2797 140.271 76.3968 140.271C71.2999 140.271 68.7448 140.271 63.6412 140.271Z" fill="#C0DBE5"/>
<path d="M81.1862 140.271C80.3033 140.271 79.6411 140.037 79.7013 139.756C79.8752 138.928 79.9689 138.514 80.1428 137.685C80.203 137.398 80.9521 137.171 81.815 137.171C101.601 137.171 121.386 137.171 141.172 137.171C142.035 137.171 142.784 137.405 142.844 137.685C143.018 138.514 143.112 138.928 143.286 139.756C143.346 140.044 142.684 140.271 141.801 140.271C121.6 140.271 101.393 140.271 81.1862 140.271Z" fill="#C0DBE5"/>
<path d="M146.596 140.271C145.72 140.271 144.951 140.037 144.884 139.756C144.697 138.928 144.603 138.514 144.416 137.685C144.349 137.398 144.998 137.171 145.861 137.171C148.362 137.171 149.606 137.171 152.108 137.171C152.971 137.171 153.74 137.405 153.82 137.685C154.061 138.514 154.182 138.928 154.416 139.756C154.496 140.044 153.847 140.271 152.971 140.271C150.422 140.271 149.145 140.271 146.596 140.271Z" fill="#C0DBE5"/>
<path d="M157.76 140.271C156.884 140.271 156.095 140.037 156.008 139.756C155.76 138.928 155.633 138.514 155.386 137.685C155.299 137.398 155.934 137.171 156.79 137.171C159.292 137.171 160.536 137.171 163.038 137.171C163.901 137.171 164.683 137.405 164.79 137.685C165.091 138.514 165.245 138.928 165.546 139.756C165.653 140.044 165.018 140.271 164.141 140.271C161.593 140.271 160.315 140.271 157.76 140.271Z" fill="#C0DBE5"/>
<path d="M168.931 140.271C168.054 140.271 167.252 140.037 167.145 139.756C166.837 138.928 166.676 138.514 166.369 137.685C166.262 137.398 166.877 137.171 167.74 137.171C169.613 137.171 170.549 137.171 172.429 137.171C173.292 137.171 174.088 137.405 174.215 137.685C174.569 138.514 174.743 138.928 175.098 139.756C175.218 140.044 174.603 140.271 173.727 140.271C171.8 140.271 170.844 140.271 168.931 140.271Z" fill="#C0DBE5"/>
<path d="M188.074 140.271C187.198 140.271 186.362 140.037 186.221 139.756C185.807 138.928 185.599 138.514 185.178 137.685C185.037 137.398 185.619 137.171 186.482 137.171C188.355 137.171 189.292 137.171 191.171 137.171C192.034 137.171 192.863 137.405 193.024 137.685C193.485 138.514 193.713 138.928 194.174 139.756C194.335 140.044 193.746 140.271 192.87 140.271C190.944 140.271 189.987 140.271 188.074 140.271Z" fill="#C0DBE5"/>
<path d="M177.686 138.46C176.817 138.46 176.007 138.226 175.88 137.946C175.834 137.845 175.814 137.792 175.767 137.685C175.64 137.398 176.242 137.171 177.104 137.171C178.977 137.171 179.914 137.171 181.793 137.171C182.656 137.171 183.472 137.405 183.613 137.685C183.666 137.785 183.686 137.839 183.74 137.946C183.88 138.233 183.285 138.46 182.415 138.46C180.522 138.46 179.579 138.46 177.686 138.46Z" fill="#C0DBE5"/>
<path d="M178.502 140.271C177.626 140.271 176.803 140.037 176.683 139.756C176.636 139.656 176.616 139.603 176.569 139.496C176.442 139.208 177.051 138.981 177.92 138.981C179.82 138.981 180.77 138.981 182.663 138.981C183.532 138.981 184.362 139.215 184.496 139.496C184.549 139.596 184.569 139.649 184.623 139.756C184.763 140.044 184.161 140.271 183.285 140.271C181.372 140.271 180.415 140.271 178.502 140.271Z" fill="#C0DBE5"/>
<path d="M145.413 153.72C122.804 153.72 100.196 153.72 77.5809 153.72C77.0993 153.72 76.7381 153.606 76.7648 153.459C77.7414 148.91 78.2297 146.631 79.1996 142.081C79.233 141.941 79.6143 141.821 80.0624 141.821C101.019 141.821 121.975 141.821 142.924 141.821C143.372 141.821 143.754 141.934 143.787 142.081C144.764 146.631 145.252 148.91 146.222 153.459C146.262 153.606 145.894 153.72 145.413 153.72Z" fill="#D5E7EE"/>
<path d="M35.9159 108.869C33.7019 108.869 31.9026 107.072 31.9026 104.86V24.0175C31.9026 21.806 33.7019 20.0087 35.9159 20.0087H187.084C189.298 20.0087 191.097 21.806 191.097 24.0175V104.86C191.097 107.072 189.298 108.869 187.084 108.869H35.9159Z" fill="#CFE3FD"/>
</g>
<path opacity="0.2" d="M15.6818 215.636C13.5682 215.629 11.7424 215.14 10.2045 214.17C8.66667 213.201 7.48106 211.803 6.64773 209.977C5.81439 208.152 5.40152 205.962 5.40909 203.409C5.41667 200.848 5.83333 198.674 6.65909 196.886C7.49242 195.098 8.67424 193.739 10.2045 192.807C11.7424 191.875 13.5682 191.409 15.6818 191.409C17.7955 191.409 19.6212 191.879 21.1591 192.818C22.697 193.75 23.8826 195.11 24.7159 196.898C25.5492 198.686 25.9621 200.856 25.9545 203.409C25.9545 205.977 25.5379 208.174 24.7045 210C23.8712 211.826 22.6856 213.223 21.1477 214.193C19.6174 215.155 17.7955 215.636 15.6818 215.636ZM15.6818 210.5C16.7727 210.5 17.6667 209.932 18.3636 208.795C19.0682 207.652 19.4167 205.856 19.4091 203.409C19.4091 201.811 19.25 200.504 18.9318 199.489C18.6136 198.473 18.1742 197.723 17.6136 197.239C17.053 196.746 16.4091 196.5 15.6818 196.5C14.5909 196.5 13.7008 197.053 13.0114 198.159C12.322 199.265 11.9697 201.015 11.9545 203.409C11.947 205.038 12.1023 206.379 12.4205 207.432C12.7386 208.477 13.178 209.25 13.7386 209.75C14.3068 210.25 14.9545 210.5 15.6818 210.5ZM38.7295 191.727V215H32.4114V197.545H32.275L27.1841 200.591V195.227L32.9114 191.727H38.7295Z" fill="#3070A6"/>
<path d="M51.56 212.5V195.58H63.44V198.964H56V202.396H62.888V205.78H56V212.5H51.56ZM65.3122 212.5V200.308H69.5842V212.5H65.3122ZM65.2162 198.58V194.74H69.7042V198.58H65.2162ZM72.2263 212.5V194.836H76.4983V212.5H72.2263ZM79.1403 212.5V194.836H83.4123V212.5H79.1403ZM97.4799 212.764C95.9279 212.764 94.7759 212.34 94.0239 211.492C93.2879 210.628 92.9199 209.324 92.9199 207.58V200.308H97.1919V207.604C97.1919 208.244 97.3199 208.724 97.5759 209.044C97.8479 209.348 98.2479 209.5 98.7759 209.5C99.3999 209.5 99.9039 209.284 100.288 208.852C100.688 208.404 100.888 207.82 100.888 207.1V200.308H105.16V212.5H101.008V210.316H101.368C100.984 211.1 100.464 211.708 99.8079 212.14C99.1519 212.556 98.3759 212.764 97.4799 212.764ZM107.828 217.684V203.62C107.828 203.076 107.812 202.524 107.78 201.964C107.748 201.404 107.7 200.852 107.636 200.308H111.764L112.028 202.468H111.788C112.012 201.748 112.508 201.164 113.276 200.716C114.044 200.268 114.9 200.044 115.844 200.044C116.9 200.044 117.828 200.3 118.628 200.812C119.428 201.308 120.052 202.036 120.5 202.996C120.964 203.94 121.196 205.076 121.196 206.404C121.196 207.716 120.964 208.852 120.5 209.812C120.052 210.772 119.428 211.508 118.628 212.02C117.828 212.516 116.9 212.764 115.844 212.764C114.916 212.764 114.076 212.556 113.324 212.14C112.572 211.708 112.076 211.14 111.836 210.436H112.1V217.684H107.828ZM114.476 209.596C115.212 209.596 115.796 209.348 116.228 208.852C116.676 208.34 116.9 207.524 116.9 206.404C116.9 205.284 116.676 204.476 116.228 203.98C115.796 203.468 115.212 203.212 114.476 203.212C113.756 203.212 113.172 203.468 112.724 203.98C112.276 204.476 112.052 205.284 112.052 206.404C112.052 207.524 112.276 208.34 112.724 208.852C113.172 209.348 113.756 209.596 114.476 209.596ZM130.211 212.5V200.308H134.483V212.5H130.211ZM130.115 198.58V194.74H134.603V198.58H130.115ZM137.125 212.5V203.62C137.125 203.076 137.109 202.524 137.077 201.964C137.045 201.404 136.997 200.852 136.933 200.308H141.061L141.301 202.42H141.037C141.437 201.652 142.005 201.068 142.741 200.668C143.477 200.252 144.309 200.044 145.237 200.044C146.661 200.044 147.725 200.468 148.429 201.316C149.149 202.148 149.509 203.452 149.509 205.228V212.5H145.237V205.42C145.237 204.636 145.101 204.092 144.829 203.788C144.557 203.468 144.165 203.308 143.653 203.308C142.981 203.308 142.437 203.532 142.021 203.98C141.605 204.412 141.397 204.988 141.397 205.708V212.5H137.125ZM153.11 212.5V203.452H150.83V200.308H154.31L153.11 201.412V199.756C153.11 198.076 153.55 196.82 154.43 195.988C155.31 195.156 156.638 194.74 158.414 194.74C158.814 194.74 159.238 194.764 159.686 194.812C160.134 194.86 160.534 194.956 160.886 195.1V198.364C160.662 198.284 160.406 198.228 160.118 198.196C159.83 198.148 159.55 198.124 159.278 198.124C158.958 198.124 158.646 198.18 158.342 198.292C158.054 198.388 157.814 198.564 157.622 198.82C157.446 199.076 157.358 199.428 157.358 199.876V200.956L156.758 200.308H160.31V203.452H157.382V212.5H153.11ZM167.619 212.764C166.259 212.764 165.083 212.508 164.091 211.996C163.099 211.484 162.331 210.748 161.787 209.788C161.243 208.828 160.971 207.7 160.971 206.404C160.971 205.076 161.243 203.94 161.787 202.996C162.331 202.052 163.099 201.324 164.091 200.812C165.083 200.3 166.259 200.044 167.619 200.044C168.963 200.044 170.131 200.3 171.123 200.812C172.115 201.324 172.883 202.052 173.427 202.996C173.971 203.94 174.243 205.076 174.243 206.404C174.243 207.7 173.971 208.828 173.427 209.788C172.883 210.748 172.115 211.484 171.123 211.996C170.131 212.508 168.963 212.764 167.619 212.764ZM167.619 209.596C168.323 209.596 168.883 209.348 169.299 208.852C169.715 208.34 169.923 207.524 169.923 206.404C169.923 205.284 169.715 204.476 169.299 203.98C168.883 203.468 168.323 203.212 167.619 203.212C166.899 203.212 166.331 203.468 165.915 203.98C165.499 204.476 165.291 205.284 165.291 206.404C165.291 207.524 165.499 208.34 165.915 208.852C166.331 209.348 166.899 209.596 167.619 209.596Z" fill="#303757"/>
<path d="M5.494 246V233.31H13.63V234.804H7.366V238.872H13.216V240.366H7.366V246H5.494ZM15.5449 246V236.928H17.3629V246H15.5449ZM15.4009 235.038V233.148H17.5069V235.038H15.4009ZM20.0273 246V232.752H21.8453V246H20.0273ZM24.5097 246V232.752H26.3277V246H24.5097ZM37.013 246.162C35.921 246.162 35.099 245.868 34.547 245.28C34.007 244.68 33.737 243.762 33.737 242.526V236.928H35.555V242.49C35.555 243.246 35.711 243.804 36.023 244.164C36.335 244.524 36.809 244.704 37.445 244.704C38.165 244.704 38.747 244.464 39.191 243.984C39.635 243.504 39.857 242.868 39.857 242.076V236.928H41.675V246H39.911V244.056H40.145C39.893 244.728 39.491 245.25 38.939 245.622C38.387 245.982 37.745 246.162 37.013 246.162ZM44.3379 249.888V239.106C44.3379 238.758 44.3199 238.404 44.2839 238.044C44.2599 237.672 44.2299 237.3 44.1939 236.928H45.9579L46.1379 238.98H45.9399C46.1319 238.296 46.5159 237.756 47.0919 237.36C47.6799 236.964 48.3759 236.766 49.1799 236.766C49.9839 236.766 50.6859 236.958 51.2859 237.342C51.8859 237.714 52.3479 238.248 52.6719 238.944C53.0079 239.64 53.1759 240.48 53.1759 241.464C53.1759 242.436 53.0079 243.276 52.6719 243.984C52.3479 244.692 51.8859 245.232 51.2859 245.604C50.6859 245.976 49.9839 246.162 49.1799 246.162C48.3879 246.162 47.6979 245.97 47.1099 245.586C46.5339 245.19 46.1499 244.656 45.9579 243.984H46.1559V249.888H44.3379ZM48.7299 244.74C49.5219 244.74 50.1519 244.464 50.6199 243.912C51.0999 243.36 51.3399 242.544 51.3399 241.464C51.3399 240.384 51.0999 239.574 50.6199 239.034C50.1519 238.482 49.5219 238.206 48.7299 238.206C47.9379 238.206 47.3019 238.482 46.8219 239.034C46.3539 239.574 46.1199 240.384 46.1199 241.464C46.1199 242.544 46.3539 243.36 46.8219 243.912C47.3019 244.464 47.9379 244.74 48.7299 244.74ZM60.1054 246V236.928H61.9234V246H60.1054ZM59.9614 235.038V233.148H62.0674V235.038H59.9614ZM64.5879 246V239.106C64.5879 238.758 64.5699 238.404 64.5339 238.044C64.5099 237.672 64.4799 237.3 64.4439 236.928H66.2079L66.3699 238.836H66.1539C66.4299 238.164 66.8559 237.654 67.4319 237.306C68.0079 236.946 68.6739 236.766 69.4299 236.766C70.4979 236.766 71.3019 237.06 71.8419 237.648C72.3939 238.236 72.6699 239.148 72.6699 240.384V246H70.8519V240.492C70.8519 239.688 70.6899 239.112 70.3659 238.764C70.0539 238.404 69.5739 238.224 68.9259 238.224C68.1579 238.224 67.5459 238.464 67.0899 238.944C66.6339 239.412 66.4059 240.048 66.4059 240.852V246H64.5879ZM75.7978 246V238.332H74.0338V236.928H76.3018L75.7978 237.396V235.956C75.7978 234.888 76.0678 234.078 76.6078 233.526C77.1478 232.962 77.9398 232.68 78.9838 232.68C79.2358 232.68 79.4998 232.698 79.7758 232.734C80.0518 232.77 80.2798 232.83 80.4598 232.914V234.39C80.3158 234.33 80.1358 234.282 79.9198 234.246C79.7158 234.198 79.5058 234.174 79.2898 234.174C78.9418 234.174 78.6418 234.246 78.3898 234.39C78.1378 234.522 77.9398 234.726 77.7958 235.002C77.6638 235.278 77.5978 235.632 77.5978 236.064V237.288L77.3278 236.928H80.0638V238.332H77.6158V246H75.7978ZM85.2278 246.162C84.3278 246.162 83.5478 245.976 82.8878 245.604C82.2278 245.22 81.7178 244.68 81.3578 243.984C80.9978 243.276 80.8178 242.436 80.8178 241.464C80.8178 240.492 80.9978 239.658 81.3578 238.962C81.7178 238.254 82.2278 237.714 82.8878 237.342C83.5478 236.958 84.3278 236.766 85.2278 236.766C86.1278 236.766 86.9078 236.958 87.5678 237.342C88.2398 237.714 88.7558 238.254 89.1158 238.962C89.4878 239.658 89.6738 240.492 89.6738 241.464C89.6738 242.436 89.4878 243.276 89.1158 243.984C88.7558 244.68 88.2398 245.22 87.5678 245.604C86.9078 245.976 86.1278 246.162 85.2278 246.162ZM85.2278 244.74C86.0198 244.74 86.6498 244.464 87.1178 243.912C87.5858 243.36 87.8198 242.544 87.8198 241.464C87.8198 240.384 87.5858 239.574 87.1178 239.034C86.6498 238.482 86.0198 238.206 85.2278 238.206C84.4478 238.206 83.8238 238.482 83.3558 239.034C82.8878 239.574 82.6538 240.384 82.6538 241.464C82.6538 242.544 82.8878 243.36 83.3558 243.912C83.8238 244.464 84.4478 244.74 85.2278 244.74ZM100.072 246.162C99.2676 246.162 98.5656 245.976 97.9656 245.604C97.3656 245.232 96.8976 244.692 96.5616 243.984C96.2376 243.276 96.0756 242.436 96.0756 241.464C96.0756 240.48 96.2376 239.64 96.5616 238.944C96.8976 238.248 97.3656 237.714 97.9656 237.342C98.5656 236.958 99.2676 236.766 100.072 236.766C100.864 236.766 101.554 236.964 102.142 237.36C102.73 237.756 103.12 238.296 103.312 238.98H103.114L103.294 236.928H105.058C105.022 237.3 104.986 237.672 104.95 238.044C104.926 238.404 104.914 238.758 104.914 239.106V246H103.096V243.984H103.294C103.102 244.656 102.706 245.19 102.106 245.586C101.518 245.97 100.84 246.162 100.072 246.162ZM100.522 244.74C101.302 244.74 101.926 244.464 102.394 243.912C102.874 243.36 103.114 242.544 103.114 241.464C103.114 240.384 102.874 239.574 102.394 239.034C101.926 238.482 101.302 238.206 100.522 238.206C99.7296 238.206 99.0936 238.482 98.6136 239.034C98.1456 239.574 97.9116 240.384 97.9116 241.464C97.9116 242.544 98.1456 243.36 98.6136 243.912C99.0816 244.464 99.7176 244.74 100.522 244.74ZM112.408 246.162C111.616 246.162 110.926 245.964 110.338 245.568C109.75 245.172 109.36 244.632 109.168 243.948H109.366V246H107.566V232.752H109.384V238.944H109.168C109.372 238.272 109.762 237.744 110.338 237.36C110.926 236.964 111.616 236.766 112.408 236.766C113.212 236.766 113.914 236.958 114.514 237.342C115.114 237.714 115.576 238.254 115.9 238.962C116.236 239.658 116.404 240.498 116.404 241.482C116.404 242.454 116.236 243.294 115.9 244.002C115.576 244.698 115.108 245.232 114.496 245.604C113.896 245.976 113.2 246.162 112.408 246.162ZM111.958 244.74C112.738 244.74 113.368 244.47 113.848 243.93C114.328 243.378 114.568 242.562 114.568 241.482C114.568 240.39 114.328 239.574 113.848 239.034C113.368 238.482 112.738 238.206 111.958 238.206C111.166 238.206 110.53 238.482 110.05 239.034C109.582 239.574 109.348 240.384 109.348 241.464C109.348 242.544 109.582 243.36 110.05 243.912C110.53 244.464 111.166 244.74 111.958 244.74ZM122.423 246.162C121.523 246.162 120.743 245.976 120.083 245.604C119.423 245.22 118.913 244.68 118.553 243.984C118.193 243.276 118.013 242.436 118.013 241.464C118.013 240.492 118.193 239.658 118.553 238.962C118.913 238.254 119.423 237.714 120.083 237.342C120.743 236.958 121.523 236.766 122.423 236.766C123.323 236.766 124.103 236.958 124.763 237.342C125.435 237.714 125.951 238.254 126.311 238.962C126.683 239.658 126.869 240.492 126.869 241.464C126.869 242.436 126.683 243.276 126.311 243.984C125.951 244.68 125.435 245.22 124.763 245.604C124.103 245.976 123.323 246.162 122.423 246.162ZM122.423 244.74C123.215 244.74 123.845 244.464 124.313 243.912C124.781 243.36 125.015 242.544 125.015 241.464C125.015 240.384 124.781 239.574 124.313 239.034C123.845 238.482 123.215 238.206 122.423 238.206C121.643 238.206 121.019 238.482 120.551 239.034C120.083 239.574 119.849 240.384 119.849 241.464C119.849 242.544 120.083 243.36 120.551 243.912C121.019 244.464 121.643 244.74 122.423 244.74ZM132.216 246.162C131.124 246.162 130.302 245.868 129.75 245.28C129.21 244.68 128.94 243.762 128.94 242.526V236.928H130.758V242.49C130.758 243.246 130.914 243.804 131.226 244.164C131.538 244.524 132.012 244.704 132.648 244.704C133.368 244.704 133.95 244.464 134.394 243.984C134.838 243.504 135.06 242.868 135.06 242.076V236.928H136.878V246H135.114V244.056H135.348C135.096 244.728 134.694 245.25 134.142 245.622C133.59 245.982 132.948 246.162 132.216 246.162ZM143.069 246.162C142.085 246.162 141.341 245.898 140.837 245.37C140.333 244.83 140.081 244.026 140.081 242.958V238.332H138.317V236.928H140.081V234.534L141.899 234.048V236.928H144.419V238.332H141.899V242.796C141.899 243.468 142.019 243.948 142.259 244.236C142.499 244.524 142.847 244.668 143.303 244.668C143.531 244.668 143.729 244.65 143.897 244.614C144.077 244.566 144.239 244.512 144.383 244.452V245.928C144.203 246 143.993 246.054 143.753 246.09C143.513 246.138 143.285 246.162 143.069 246.162ZM150.609 250.086L150.177 248.61C150.741 248.49 151.209 248.346 151.581 248.178C151.965 248.01 152.283 247.788 152.535 247.512C152.787 247.248 153.003 246.906 153.183 246.486L153.633 245.424L153.597 246.162L149.655 236.928H151.599L154.659 244.488H154.173L157.233 236.928H159.105L154.947 246.648C154.683 247.248 154.401 247.752 154.101 248.16C153.801 248.568 153.477 248.898 153.129 249.15C152.781 249.402 152.397 249.6 151.977 249.744C151.557 249.888 151.101 250.002 150.609 250.086ZM164.259 246.162C163.359 246.162 162.579 245.976 161.919 245.604C161.259 245.22 160.749 244.68 160.389 243.984C160.029 243.276 159.849 242.436 159.849 241.464C159.849 240.492 160.029 239.658 160.389 238.962C160.749 238.254 161.259 237.714 161.919 237.342C162.579 236.958 163.359 236.766 164.259 236.766C165.159 236.766 165.939 236.958 166.599 237.342C167.271 237.714 167.787 238.254 168.147 238.962C168.519 239.658 168.705 240.492 168.705 241.464C168.705 242.436 168.519 243.276 168.147 243.984C167.787 244.68 167.271 245.22 166.599 245.604C165.939 245.976 165.159 246.162 164.259 246.162ZM164.259 244.74C165.051 244.74 165.681 244.464 166.149 243.912C166.617 243.36 166.851 242.544 166.851 241.464C166.851 240.384 166.617 239.574 166.149 239.034C165.681 238.482 165.051 238.206 164.259 238.206C163.479 238.206 162.855 238.482 162.387 239.034C161.919 239.574 161.685 240.384 161.685 241.464C161.685 242.544 161.919 243.36 162.387 243.912C162.855 244.464 163.479 244.74 164.259 244.74ZM174.052 246.162C172.96 246.162 172.138 245.868 171.586 245.28C171.046 244.68 170.776 243.762 170.776 242.526V236.928H172.594V242.49C172.594 243.246 172.75 243.804 173.062 244.164C173.374 244.524 173.848 244.704 174.484 244.704C175.204 244.704 175.786 244.464 176.23 243.984C176.674 243.504 176.896 242.868 176.896 242.076V236.928H178.714V246H176.95V244.056H177.184C176.932 244.728 176.53 245.25 175.978 245.622C175.426 245.982 174.784 246.162 174.052 246.162ZM181.341 246V239.178C181.341 238.806 181.329 238.434 181.305 238.062C181.293 237.678 181.269 237.3 181.233 236.928H182.997L183.195 239.268H182.907C183.027 238.704 183.231 238.236 183.519 237.864C183.807 237.492 184.155 237.216 184.563 237.036C184.983 236.856 185.421 236.766 185.877 236.766C186.069 236.766 186.231 236.778 186.363 236.802C186.495 236.814 186.627 236.838 186.759 236.874L186.741 238.494C186.537 238.41 186.357 238.362 186.201 238.35C186.057 238.326 185.877 238.314 185.661 238.314C185.133 238.314 184.683 238.434 184.311 238.674C183.939 238.902 183.657 239.214 183.465 239.61C183.273 240.006 183.177 240.432 183.177 240.888V246H181.341ZM196.075 246.162C195.319 246.162 194.623 246.066 193.987 245.874C193.351 245.682 192.823 245.412 192.403 245.064L192.961 243.822C193.405 244.158 193.897 244.41 194.437 244.578C194.977 244.746 195.529 244.83 196.093 244.83C196.753 244.83 197.251 244.716 197.587 244.488C197.923 244.248 198.091 243.924 198.091 243.516C198.091 243.204 197.983 242.952 197.767 242.76C197.563 242.568 197.221 242.424 196.741 242.328L195.013 241.986C194.245 241.818 193.663 241.53 193.267 241.122C192.871 240.714 192.673 240.192 192.673 239.556C192.673 239.016 192.817 238.536 193.105 238.116C193.405 237.696 193.825 237.366 194.365 237.126C194.917 236.886 195.559 236.766 196.291 236.766C196.963 236.766 197.587 236.862 198.163 237.054C198.739 237.246 199.219 237.522 199.603 237.882L199.027 239.088C198.655 238.776 198.235 238.536 197.767 238.368C197.299 238.188 196.825 238.098 196.345 238.098C195.673 238.098 195.175 238.224 194.851 238.476C194.527 238.728 194.365 239.058 194.365 239.466C194.365 239.778 194.461 240.036 194.653 240.24C194.857 240.432 195.175 240.582 195.607 240.69L197.335 241.032C198.151 241.2 198.763 241.476 199.171 241.86C199.579 242.244 199.783 242.76 199.783 243.408C199.783 243.972 199.627 244.464 199.315 244.884C199.003 245.304 198.571 245.622 198.019 245.838C197.467 246.054 196.819 246.162 196.075 246.162ZM201.926 246V232.752H203.744V240.888H203.78L207.74 236.928H209.99L205.202 241.698L205.22 240.888L210.386 246H208.082L203.78 241.842H203.744V246H201.926ZM211.506 246V236.928H213.324V246H211.506ZM211.362 235.038V233.148H213.468V235.038H211.362ZM215.988 246V232.752H217.806V246H215.988ZM220.471 246V232.752H222.289V246H220.471ZM228.067 246.162C227.311 246.162 226.615 246.066 225.979 245.874C225.343 245.682 224.815 245.412 224.395 245.064L224.953 243.822C225.397 244.158 225.889 244.41 226.429 244.578C226.969 244.746 227.521 244.83 228.085 244.83C228.745 244.83 229.243 244.716 229.579 244.488C229.915 244.248 230.083 243.924 230.083 243.516C230.083 243.204 229.975 242.952 229.759 242.76C229.555 242.568 229.213 242.424 228.733 242.328L227.005 241.986C226.237 241.818 225.655 241.53 225.259 241.122C224.863 240.714 224.665 240.192 224.665 239.556C224.665 239.016 224.809 238.536 225.097 238.116C225.397 237.696 225.817 237.366 226.357 237.126C226.909 236.886 227.551 236.766 228.283 236.766C228.955 236.766 229.579 236.862 230.155 237.054C230.731 237.246 231.211 237.522 231.595 237.882L231.019 239.088C230.647 238.776 230.227 238.536 229.759 238.368C229.291 238.188 228.817 238.098 228.337 238.098C227.665 238.098 227.167 238.224 226.843 238.476C226.519 238.728 226.357 239.058 226.357 239.466C226.357 239.778 226.453 240.036 226.645 240.24C226.849 240.432 227.167 240.582 227.599 240.69L229.327 241.032C230.143 241.2 230.755 241.476 231.163 241.86C231.571 242.244 231.775 242.76 231.775 243.408C231.775 243.972 231.619 244.464 231.307 244.884C230.995 245.304 230.563 245.622 230.011 245.838C229.459 246.054 228.811 246.162 228.067 246.162Z" fill="#8C8F9F"/>
<rect x="65" y="46" width="89" height="36" rx="18" fill="#97CA3E"/>
<path d="M92.364 69V60.54H98.112V61.992H94.236V64.056H97.836V65.496H94.236V69H92.364ZM99.1815 69V62.916H100.994V69H99.1815ZM99.1095 61.92V60.228H101.054V61.92H99.1095ZM102.474 69V60.168H104.286V69H102.474ZM105.767 69V60.168H107.579V69H105.767ZM114.655 69.132C113.895 69.132 113.331 68.924 112.963 68.508C112.595 68.084 112.411 67.444 112.411 66.588V62.916H114.223V66.588C114.223 66.972 114.299 67.256 114.451 67.44C114.611 67.624 114.855 67.716 115.183 67.716C115.543 67.716 115.839 67.592 116.071 67.344C116.311 67.088 116.431 66.748 116.431 66.324V62.916H118.243V69H116.479V67.836H116.647C116.463 68.244 116.199 68.564 115.855 68.796C115.511 69.02 115.111 69.132 114.655 69.132ZM119.736 71.592V64.5C119.736 64.244 119.728 63.984 119.712 63.72C119.696 63.448 119.672 63.18 119.64 62.916H121.38L121.524 64.104H121.392C121.512 63.704 121.764 63.388 122.148 63.156C122.532 62.916 122.972 62.796 123.468 62.796C123.996 62.796 124.46 62.924 124.86 63.18C125.26 63.428 125.572 63.788 125.796 64.26C126.028 64.732 126.144 65.296 126.144 65.952C126.144 66.616 126.028 67.184 125.796 67.656C125.572 68.128 125.26 68.492 124.86 68.748C124.46 69.004 123.996 69.132 123.468 69.132C122.98 69.132 122.544 69.016 122.16 68.784C121.784 68.552 121.532 68.244 121.404 67.86H121.548V71.592H119.736ZM122.916 67.764C123.34 67.764 123.68 67.616 123.936 67.32C124.192 67.024 124.32 66.568 124.32 65.952C124.32 65.336 124.192 64.884 123.936 64.596C123.68 64.308 123.34 64.164 122.916 64.164C122.5 64.164 122.16 64.308 121.896 64.596C121.64 64.884 121.512 65.336 121.512 65.952C121.512 66.568 121.64 67.024 121.896 67.32C122.16 67.616 122.5 67.764 122.916 67.764Z" fill="white"/>
</g>
<defs>
<clipPath id="clip0_0_1">
<rect width="1440" height="2026" fill="white" transform="translate(-142 -907)"/>
</clipPath>
<clipPath id="clip1_0_1">
<rect width="217" height="153" fill="white" transform="translate(3 16)"/>
</clipPath>
</defs>
</svg>
