<svg width="281" height="274" viewBox="0 0 281 274" fill="none" xmlns="http://www.w3.org/2000/svg">
<rect width="281" height="274" fill="#D4E2EB"/>
<g clip-path="url(#clip0_0_1)">
<rect width="1440" height="2026" transform="translate(-434 -907)" fill="white"/>
<path opacity="0.2" d="M12.6818 215.636C10.5682 215.629 8.74242 215.14 7.20455 214.17C5.66667 213.201 4.48106 211.803 3.64773 209.977C2.81439 208.152 2.40152 205.962 2.40909 203.409C2.41667 200.848 2.83333 198.674 3.65909 196.886C4.49242 195.098 5.67424 193.739 7.20455 192.807C8.74242 191.875 10.5682 191.409 12.6818 191.409C14.7955 191.409 16.6212 191.879 18.1591 192.818C19.697 193.75 20.8826 195.11 21.7159 196.898C22.5492 198.686 22.9621 200.856 22.9545 203.409C22.9545 205.977 22.5379 208.174 21.7045 210C20.8712 211.826 19.6856 213.223 18.1477 214.193C16.6174 215.155 14.7955 215.636 12.6818 215.636ZM12.6818 210.5C13.7727 210.5 14.6667 209.932 15.3636 208.795C16.0682 207.652 16.4167 205.856 16.4091 203.409C16.4091 201.811 16.25 200.504 15.9318 199.489C15.6136 198.473 15.1742 197.723 14.6136 197.239C14.053 196.746 13.4091 196.5 12.6818 196.5C11.5909 196.5 10.7008 197.053 10.0114 198.159C9.32197 199.265 8.9697 201.015 8.95455 203.409C8.94697 205.038 9.10227 206.379 9.42045 207.432C9.73864 208.477 10.178 209.25 10.7386 209.75C11.3068 210.25 11.9545 210.5 12.6818 210.5ZM24.3205 215V210.455L33.0023 203.273C33.578 202.795 34.0705 202.348 34.4795 201.932C34.8962 201.508 35.2144 201.072 35.4341 200.625C35.6614 200.178 35.775 199.682 35.775 199.136C35.775 198.538 35.6462 198.027 35.3886 197.602C35.1386 197.178 34.7902 196.852 34.3432 196.625C33.8962 196.39 33.3811 196.273 32.7977 196.273C32.2144 196.273 31.6992 196.39 31.2523 196.625C30.8129 196.86 30.472 197.205 30.2295 197.659C29.9871 198.114 29.8659 198.667 29.8659 199.318H23.8659C23.8659 197.682 24.2333 196.273 24.9682 195.091C25.703 193.909 26.7409 193 28.0818 192.364C29.4227 191.727 30.9947 191.409 32.7977 191.409C34.6614 191.409 36.275 191.708 37.6386 192.307C39.0098 192.898 40.0667 193.731 40.8091 194.807C41.5591 195.883 41.9341 197.144 41.9341 198.591C41.9341 199.485 41.7485 200.375 41.3773 201.261C41.0061 202.14 40.3394 203.114 39.3773 204.182C38.4152 205.25 37.0477 206.523 35.275 208L33.0932 209.818V209.955H42.1841V215H24.3205Z" fill="#3070A6"/>
<path d="M59.92 212.764C58.56 212.764 57.264 212.604 56.032 212.284C54.816 211.948 53.792 211.5 52.96 210.94L54.208 207.508C54.736 207.844 55.312 208.132 55.936 208.372C56.56 208.612 57.208 208.804 57.88 208.948C58.568 209.076 59.264 209.14 59.968 209.14C61.024 209.14 61.752 209.004 62.152 208.732C62.568 208.46 62.776 208.108 62.776 207.676C62.776 207.292 62.64 206.996 62.368 206.788C62.096 206.564 61.584 206.372 60.832 206.212L57.904 205.612C56.352 205.292 55.192 204.74 54.424 203.956C53.656 203.156 53.272 202.116 53.272 200.836C53.272 199.716 53.568 198.748 54.16 197.932C54.768 197.1 55.616 196.46 56.704 196.012C57.792 195.548 59.064 195.316 60.52 195.316C61.72 195.316 62.848 195.484 63.904 195.82C64.96 196.14 65.824 196.588 66.496 197.164L65.248 200.38C64.608 199.916 63.888 199.564 63.088 199.324C62.288 199.068 61.4 198.94 60.424 198.94C59.496 198.94 58.792 199.084 58.312 199.372C57.848 199.644 57.616 200.036 57.616 200.548C57.616 200.9 57.752 201.204 58.024 201.46C58.312 201.7 58.832 201.9 59.584 202.06L62.464 202.636C64.016 202.94 65.176 203.484 65.944 204.268C66.728 205.052 67.12 206.076 67.12 207.34C67.12 208.428 66.816 209.38 66.208 210.196C65.616 211.012 64.784 211.644 63.712 212.092C62.64 212.54 61.376 212.764 59.92 212.764ZM75.8536 212.764C74.3816 212.764 73.1256 212.508 72.0856 211.996C71.0456 211.484 70.2456 210.748 69.6856 209.788C69.1416 208.828 68.8696 207.692 68.8696 206.38C68.8696 205.148 69.1256 204.052 69.6376 203.092C70.1496 202.132 70.8696 201.388 71.7976 200.86C72.7256 200.316 73.8136 200.044 75.0616 200.044C76.2936 200.044 77.3176 200.316 78.1336 200.86C78.9656 201.388 79.5896 202.124 80.0056 203.068C80.4216 203.996 80.6296 205.076 80.6296 206.308V207.22H72.4456V205.204H77.4856L77.0776 205.54C77.0776 204.628 76.9016 203.956 76.5496 203.524C76.2136 203.076 75.7336 202.852 75.1096 202.852C74.6296 202.852 74.2216 202.972 73.8856 203.212C73.5656 203.452 73.3176 203.812 73.1416 204.292C72.9816 204.756 72.9016 205.348 72.9016 206.068V206.5C72.9016 207.572 73.1656 208.356 73.6936 208.852C74.2216 209.348 74.9816 209.596 75.9736 209.596C76.6136 209.596 77.2136 209.524 77.7736 209.38C78.3496 209.236 78.8936 209.004 79.4056 208.684L80.5096 211.468C79.9016 211.884 79.1976 212.204 78.3976 212.428C77.5976 212.652 76.7496 212.764 75.8536 212.764ZM87.4638 212.764C86.4078 212.764 85.4798 212.516 84.6798 212.02C83.8798 211.508 83.2478 210.772 82.7838 209.812C82.3358 208.852 82.1118 207.716 82.1118 206.404C82.1118 205.076 82.3358 203.94 82.7838 202.996C83.2478 202.036 83.8798 201.308 84.6798 200.812C85.4798 200.3 86.4078 200.044 87.4638 200.044C88.4078 200.044 89.2558 200.268 90.0078 200.716C90.7758 201.164 91.2798 201.748 91.5198 202.468H91.2798L91.5438 200.308H95.6478C95.5998 200.852 95.5518 201.404 95.5038 201.964C95.4718 202.524 95.4557 203.076 95.4557 203.62V212.5H91.2318L91.1838 210.436H91.4718C91.2318 211.14 90.7278 211.708 89.9598 212.14C89.2078 212.556 88.3758 212.764 87.4638 212.764ZM88.8318 209.596C89.5518 209.596 90.1358 209.348 90.5838 208.852C91.0318 208.34 91.2558 207.524 91.2558 206.404C91.2558 205.284 91.0318 204.476 90.5838 203.98C90.1358 203.468 89.5518 203.212 88.8318 203.212C88.1118 203.212 87.5278 203.468 87.0798 203.98C86.6318 204.476 86.4078 205.284 86.4078 206.404C86.4078 207.524 86.6238 208.34 87.0558 208.852C87.5038 209.348 88.0958 209.596 88.8318 209.596ZM98.1091 212.5V203.644C98.1091 203.084 98.0931 202.524 98.0611 201.964C98.0291 201.404 97.9811 200.852 97.9171 200.308H102.045L102.501 204.052H101.853C102.013 203.14 102.269 202.388 102.621 201.796C102.973 201.204 103.413 200.764 103.941 200.476C104.469 200.188 105.093 200.044 105.813 200.044C106.149 200.044 106.397 200.06 106.557 200.092C106.733 200.108 106.917 200.156 107.109 200.236V203.98C106.709 203.804 106.389 203.692 106.149 203.644C105.909 203.596 105.597 203.572 105.213 203.572C104.557 203.572 104.021 203.692 103.605 203.932C103.189 204.156 102.885 204.508 102.693 204.988C102.517 205.468 102.429 206.084 102.429 206.836V212.5H98.1091ZM114.355 212.764C113.011 212.764 111.835 212.508 110.827 211.996C109.819 211.484 109.035 210.756 108.475 209.812C107.915 208.852 107.635 207.708 107.635 206.38C107.635 205.052 107.915 203.916 108.475 202.972C109.035 202.028 109.819 201.308 110.827 200.812C111.835 200.3 113.011 200.044 114.355 200.044C115.187 200.044 116.003 200.156 116.803 200.38C117.603 200.604 118.251 200.924 118.747 201.34L117.547 204.244C117.163 203.924 116.723 203.684 116.227 203.524C115.747 203.348 115.275 203.26 114.811 203.26C113.931 203.26 113.243 203.524 112.747 204.052C112.267 204.58 112.027 205.356 112.027 206.38C112.027 207.404 112.267 208.188 112.747 208.732C113.243 209.26 113.931 209.524 114.811 209.524C115.259 209.524 115.731 209.444 116.227 209.284C116.723 209.108 117.163 208.868 117.547 208.564L118.747 211.468C118.235 211.868 117.579 212.188 116.779 212.428C115.995 212.652 115.187 212.764 114.355 212.764ZM120.515 212.5V194.836H124.787V202.444H124.427C124.827 201.66 125.395 201.068 126.131 200.668C126.867 200.252 127.707 200.044 128.651 200.044C130.075 200.044 131.139 200.468 131.843 201.316C132.547 202.164 132.899 203.452 132.899 205.18V212.5H128.627V205.372C128.627 204.636 128.491 204.108 128.219 203.788C127.963 203.468 127.571 203.308 127.043 203.308C126.355 203.308 125.803 203.524 125.387 203.956C124.987 204.388 124.787 204.956 124.787 205.66V212.5H120.515ZM143.438 212.5V203.452H141.158V200.308H144.638L143.438 201.412V199.756C143.438 198.076 143.878 196.82 144.758 195.988C145.638 195.156 146.966 194.74 148.742 194.74C149.142 194.74 149.566 194.764 150.014 194.812C150.462 194.86 150.862 194.956 151.214 195.1V198.364C150.99 198.284 150.734 198.228 150.446 198.196C150.158 198.148 149.878 198.124 149.606 198.124C149.286 198.124 148.974 198.18 148.67 198.292C148.382 198.388 148.142 198.564 147.95 198.82C147.774 199.076 147.686 199.428 147.686 199.876V200.956L147.086 200.308H150.638V203.452H147.71V212.5H143.438ZM157.947 212.764C156.587 212.764 155.411 212.508 154.419 211.996C153.427 211.484 152.659 210.748 152.115 209.788C151.571 208.828 151.299 207.7 151.299 206.404C151.299 205.076 151.571 203.94 152.115 202.996C152.659 202.052 153.427 201.324 154.419 200.812C155.411 200.3 156.587 200.044 157.947 200.044C159.291 200.044 160.459 200.3 161.451 200.812C162.443 201.324 163.211 202.052 163.755 202.996C164.299 203.94 164.571 205.076 164.571 206.404C164.571 207.7 164.299 208.828 163.755 209.788C163.211 210.748 162.443 211.484 161.451 211.996C160.459 212.508 159.291 212.764 157.947 212.764ZM157.947 209.596C158.651 209.596 159.211 209.348 159.627 208.852C160.043 208.34 160.251 207.524 160.251 206.404C160.251 205.284 160.043 204.476 159.627 203.98C159.211 203.468 158.651 203.212 157.947 203.212C157.227 203.212 156.659 203.468 156.243 203.98C155.827 204.476 155.619 205.284 155.619 206.404C155.619 207.524 155.827 208.34 156.243 208.852C156.659 209.348 157.227 209.596 157.947 209.596ZM166.664 212.5V203.644C166.664 203.084 166.648 202.524 166.616 201.964C166.584 201.404 166.536 200.852 166.472 200.308H170.6L171.056 204.052H170.408C170.568 203.14 170.824 202.388 171.176 201.796C171.528 201.204 171.968 200.764 172.496 200.476C173.024 200.188 173.648 200.044 174.368 200.044C174.704 200.044 174.952 200.06 175.112 200.092C175.288 200.108 175.472 200.156 175.664 200.236V203.98C175.264 203.804 174.944 203.692 174.704 203.644C174.464 203.596 174.152 203.572 173.768 203.572C173.112 203.572 172.576 203.692 172.16 203.932C171.744 204.156 171.44 204.508 171.248 204.988C171.072 205.468 170.984 206.084 170.984 206.836V212.5H166.664ZM187.442 212.5L182.138 200.308H186.626L189.77 208.42H188.906L192.194 200.308H196.394L191.042 212.5H187.442ZM201.862 212.764C200.806 212.764 199.878 212.516 199.078 212.02C198.278 211.508 197.646 210.772 197.182 209.812C196.734 208.852 196.51 207.716 196.51 206.404C196.51 205.076 196.734 203.94 197.182 202.996C197.646 202.036 198.278 201.308 199.078 200.812C199.878 200.3 200.806 200.044 201.862 200.044C202.806 200.044 203.654 200.268 204.406 200.716C205.174 201.164 205.678 201.748 205.918 202.468H205.678L205.942 200.308H210.046C209.998 200.852 209.95 201.404 209.902 201.964C209.87 202.524 209.854 203.076 209.854 203.62V212.5H205.63L205.582 210.436H205.87C205.63 211.14 205.126 211.708 204.358 212.14C203.606 212.556 202.774 212.764 201.862 212.764ZM203.23 209.596C203.95 209.596 204.534 209.348 204.982 208.852C205.43 208.34 205.654 207.524 205.654 206.404C205.654 205.284 205.43 204.476 204.982 203.98C204.534 203.468 203.95 203.212 203.23 203.212C202.51 203.212 201.926 203.468 201.478 203.98C201.03 204.476 200.806 205.284 200.806 206.404C200.806 207.524 201.022 208.34 201.454 208.852C201.902 209.348 202.494 209.596 203.23 209.596ZM218.676 212.764C217.332 212.764 216.156 212.508 215.148 211.996C214.14 211.484 213.356 210.756 212.796 209.812C212.236 208.852 211.956 207.708 211.956 206.38C211.956 205.052 212.236 203.916 212.796 202.972C213.356 202.028 214.14 201.308 215.148 200.812C216.156 200.3 217.332 200.044 218.676 200.044C219.508 200.044 220.324 200.156 221.124 200.38C221.924 200.604 222.572 200.924 223.068 201.34L221.868 204.244C221.484 203.924 221.044 203.684 220.548 203.524C220.068 203.348 219.596 203.26 219.132 203.26C218.252 203.26 217.564 203.524 217.068 204.052C216.588 204.58 216.348 205.356 216.348 206.38C216.348 207.404 216.588 208.188 217.068 208.732C217.564 209.26 218.252 209.524 219.132 209.524C219.58 209.524 220.052 209.444 220.548 209.284C221.044 209.108 221.484 208.868 221.868 208.564L223.068 211.468C222.556 211.868 221.9 212.188 221.1 212.428C220.316 212.652 219.508 212.764 218.676 212.764ZM229.612 212.764C228.556 212.764 227.628 212.516 226.828 212.02C226.028 211.508 225.396 210.772 224.932 209.812C224.484 208.852 224.26 207.716 224.26 206.404C224.26 205.076 224.484 203.94 224.932 202.996C225.396 202.036 226.028 201.308 226.828 200.812C227.628 200.3 228.556 200.044 229.612 200.044C230.556 200.044 231.404 200.268 232.156 200.716C232.924 201.164 233.428 201.748 233.668 202.468H233.428L233.692 200.308H237.796C237.748 200.852 237.7 201.404 237.652 201.964C237.62 202.524 237.604 203.076 237.604 203.62V212.5H233.38L233.332 210.436H233.62C233.38 211.14 232.876 211.708 232.108 212.14C231.356 212.556 230.524 212.764 229.612 212.764ZM230.98 209.596C231.7 209.596 232.284 209.348 232.732 208.852C233.18 208.34 233.404 207.524 233.404 206.404C233.404 205.284 233.18 204.476 232.732 203.98C232.284 203.468 231.7 203.212 230.98 203.212C230.26 203.212 229.676 203.468 229.228 203.98C228.78 204.476 228.556 205.284 228.556 206.404C228.556 207.524 228.772 208.34 229.204 208.852C229.652 209.348 230.244 209.596 230.98 209.596ZM240.258 212.5V203.62C240.258 203.076 240.242 202.524 240.21 201.964C240.178 201.404 240.13 200.852 240.066 200.308H244.194L244.434 202.42H244.17C244.57 201.652 245.138 201.068 245.874 200.668C246.61 200.252 247.442 200.044 248.37 200.044C249.794 200.044 250.858 200.468 251.562 201.316C252.282 202.148 252.642 203.452 252.642 205.228V212.5H248.37V205.42C248.37 204.636 248.234 204.092 247.962 203.788C247.69 203.468 247.298 203.308 246.786 203.308C246.114 203.308 245.57 203.532 245.154 203.98C244.738 204.412 244.53 204.988 244.53 205.708V212.5H240.258ZM261.379 212.764C260.035 212.764 258.859 212.508 257.851 211.996C256.843 211.484 256.059 210.756 255.499 209.812C254.939 208.852 254.659 207.708 254.659 206.38C254.659 205.052 254.939 203.916 255.499 202.972C256.059 202.028 256.843 201.308 257.851 200.812C258.859 200.3 260.035 200.044 261.379 200.044C262.211 200.044 263.027 200.156 263.827 200.38C264.627 200.604 265.275 200.924 265.771 201.34L264.571 204.244C264.187 203.924 263.747 203.684 263.251 203.524C262.771 203.348 262.299 203.26 261.835 203.26C260.955 203.26 260.267 203.524 259.771 204.052C259.291 204.58 259.051 205.356 259.051 206.38C259.051 207.404 259.291 208.188 259.771 208.732C260.267 209.26 260.955 209.524 261.835 209.524C262.283 209.524 262.755 209.444 263.251 209.284C263.747 209.108 264.187 208.868 264.571 208.564L265.771 211.468C265.259 211.868 264.603 212.188 263.803 212.428C263.019 212.652 262.211 212.764 261.379 212.764ZM267.891 217.948L266.883 214.636C267.651 214.492 268.291 214.332 268.803 214.156C269.331 213.996 269.763 213.772 270.099 213.484C270.435 213.196 270.699 212.82 270.891 212.356L271.491 210.964L271.395 212.572L266.067 200.308H270.579L273.699 208.396H272.907L276.123 200.308H280.347L274.875 212.764C274.443 213.74 273.979 214.54 273.483 215.164C273.003 215.788 272.475 216.284 271.899 216.652C271.339 217.02 270.723 217.292 270.051 217.468C269.395 217.66 268.675 217.82 267.891 217.948Z" fill="#303757"/>
<path d="M6.778 246.162C5.758 246.162 4.834 246.036 4.006 245.784C3.178 245.52 2.458 245.148 1.846 244.668L2.476 243.192C2.884 243.504 3.304 243.762 3.736 243.966C4.18 244.17 4.648 244.326 5.14 244.434C5.644 244.53 6.19 244.578 6.778 244.578C7.786 244.578 8.524 244.398 8.992 244.038C9.472 243.678 9.712 243.204 9.712 242.616C9.712 242.112 9.544 241.722 9.208 241.446C8.884 241.17 8.308 240.948 7.48 240.78L5.518 240.384C4.354 240.144 3.484 239.754 2.908 239.214C2.344 238.662 2.062 237.912 2.062 236.964C2.062 236.196 2.266 235.524 2.674 234.948C3.082 234.372 3.646 233.928 4.366 233.616C5.098 233.304 5.95 233.148 6.922 233.148C7.822 233.148 8.65 233.28 9.406 233.544C10.162 233.796 10.798 234.174 11.314 234.678L10.702 236.1C10.162 235.632 9.586 235.29 8.974 235.074C8.362 234.846 7.666 234.732 6.886 234.732C5.962 234.732 5.236 234.924 4.708 235.308C4.192 235.692 3.934 236.214 3.934 236.874C3.934 237.402 4.096 237.816 4.42 238.116C4.756 238.416 5.308 238.644 6.076 238.8L8.038 239.178C9.25 239.43 10.144 239.82 10.72 240.348C11.296 240.864 11.584 241.578 11.584 242.49C11.584 243.222 11.386 243.864 10.99 244.416C10.606 244.968 10.054 245.4 9.334 245.712C8.614 246.012 7.762 246.162 6.778 246.162ZM17.9166 246.162C16.9326 246.162 16.0866 245.976 15.3786 245.604C14.6826 245.232 14.1426 244.698 13.7586 244.002C13.3866 243.294 13.2006 242.454 13.2006 241.482C13.2006 240.534 13.3806 239.706 13.7406 238.998C14.1126 238.29 14.6226 237.744 15.2706 237.36C15.9306 236.964 16.6926 236.766 17.5566 236.766C18.4086 236.766 19.1226 236.946 19.6986 237.306C20.2746 237.666 20.7126 238.176 21.0126 238.836C21.3126 239.484 21.4626 240.252 21.4626 241.14V241.716H14.6226V240.672H20.2206L19.9146 240.906C19.9146 240.006 19.7106 239.31 19.3026 238.818C18.9066 238.314 18.3306 238.062 17.5746 238.062C17.0106 238.062 16.5306 238.194 16.1346 238.458C15.7506 238.722 15.4566 239.1 15.2526 239.592C15.0486 240.072 14.9466 240.654 14.9466 241.338V241.518C14.9466 242.586 15.2046 243.39 15.7206 243.93C16.2486 244.47 16.9926 244.74 17.9526 244.74C18.4806 244.74 18.9726 244.668 19.4286 244.524C19.8966 244.368 20.3406 244.116 20.7606 243.768L21.3546 245.01C20.9346 245.382 20.4246 245.67 19.8246 245.874C19.2246 246.066 18.5886 246.162 17.9166 246.162ZM27.0228 246.162C26.2188 246.162 25.5168 245.976 24.9168 245.604C24.3168 245.232 23.8488 244.692 23.5128 243.984C23.1888 243.276 23.0268 242.436 23.0268 241.464C23.0268 240.48 23.1888 239.64 23.5128 238.944C23.8488 238.248 24.3168 237.714 24.9168 237.342C25.5168 236.958 26.2188 236.766 27.0228 236.766C27.8148 236.766 28.5048 236.964 29.0928 237.36C29.6808 237.756 30.0708 238.296 30.2628 238.98H30.0648L30.2448 236.928H32.0088C31.9728 237.3 31.9368 237.672 31.9008 238.044C31.8768 238.404 31.8648 238.758 31.8648 239.106V246H30.0468V243.984H30.2448C30.0528 244.656 29.6568 245.19 29.0568 245.586C28.4688 245.97 27.7908 246.162 27.0228 246.162ZM27.4728 244.74C28.2528 244.74 28.8768 244.464 29.3448 243.912C29.8248 243.36 30.0648 242.544 30.0648 241.464C30.0648 240.384 29.8248 239.574 29.3448 239.034C28.8768 238.482 28.2528 238.206 27.4728 238.206C26.6808 238.206 26.0448 238.482 25.5648 239.034C25.0968 239.574 24.8628 240.384 24.8628 241.464C24.8628 242.544 25.0968 243.36 25.5648 243.912C26.0328 244.464 26.6688 244.74 27.4728 244.74ZM34.4815 246V239.178C34.4815 238.806 34.4695 238.434 34.4455 238.062C34.4335 237.678 34.4095 237.3 34.3735 236.928H36.1375L36.3355 239.268H36.0475C36.1675 238.704 36.3715 238.236 36.6595 237.864C36.9475 237.492 37.2955 237.216 37.7035 237.036C38.1235 236.856 38.5615 236.766 39.0175 236.766C39.2095 236.766 39.3715 236.778 39.5035 236.802C39.6355 236.814 39.7675 236.838 39.8995 236.874L39.8815 238.494C39.6775 238.41 39.4975 238.362 39.3415 238.35C39.1975 238.326 39.0175 238.314 38.8015 238.314C38.2735 238.314 37.8235 238.434 37.4515 238.674C37.0795 238.902 36.7975 239.214 36.6055 239.61C36.4135 240.006 36.3175 240.432 36.3175 240.888V246H34.4815ZM45.1577 246.162C44.2457 246.162 43.4477 245.976 42.7637 245.604C42.0917 245.22 41.5697 244.674 41.1977 243.966C40.8377 243.246 40.6577 242.394 40.6577 241.41C40.6577 240.438 40.8437 239.604 41.2157 238.908C41.5877 238.212 42.1097 237.684 42.7817 237.324C43.4537 236.952 44.2457 236.766 45.1577 236.766C45.7457 236.766 46.3157 236.868 46.8677 237.072C47.4197 237.264 47.8757 237.54 48.2357 237.9L47.6417 239.178C47.3057 238.854 46.9277 238.614 46.5077 238.458C46.0877 238.29 45.6797 238.206 45.2837 238.206C44.4197 238.206 43.7417 238.482 43.2497 239.034C42.7577 239.586 42.5117 240.384 42.5117 241.428C42.5117 242.484 42.7577 243.294 43.2497 243.858C43.7417 244.422 44.4197 244.704 45.2837 244.704C45.6677 244.704 46.0697 244.632 46.4897 244.488C46.9097 244.332 47.2937 244.086 47.6417 243.75L48.2357 245.028C47.8637 245.388 47.3957 245.67 46.8317 245.874C46.2797 246.066 45.7217 246.162 45.1577 246.162ZM50.1621 246V232.752H51.9801V238.854H51.7281C51.9921 238.17 52.4181 237.654 53.0061 237.306C53.5941 236.946 54.2721 236.766 55.0401 236.766C56.1201 236.766 56.9241 237.066 57.4521 237.666C57.9801 238.254 58.2441 239.148 58.2441 240.348V246H56.4261V240.456C56.4261 239.676 56.2701 239.112 55.9581 238.764C55.6581 238.404 55.1781 238.224 54.5181 238.224C53.7501 238.224 53.1321 238.464 52.6641 238.944C52.2081 239.412 51.9801 240.036 51.9801 240.816V246H50.1621ZM66.1708 246V238.332H64.4068V236.928H66.6748L66.1708 237.396V235.956C66.1708 234.888 66.4408 234.078 66.9808 233.526C67.5208 232.962 68.3128 232.68 69.3568 232.68C69.6088 232.68 69.8728 232.698 70.1488 232.734C70.4248 232.77 70.6528 232.83 70.8328 232.914V234.39C70.6888 234.33 70.5088 234.282 70.2928 234.246C70.0888 234.198 69.8788 234.174 69.6628 234.174C69.3148 234.174 69.0148 234.246 68.7628 234.39C68.5108 234.522 68.3128 234.726 68.1688 235.002C68.0368 235.278 67.9708 235.632 67.9708 236.064V237.288L67.7008 236.928H70.4368V238.332H67.9888V246H66.1708ZM75.6009 246.162C74.7009 246.162 73.9209 245.976 73.2609 245.604C72.6009 245.22 72.0909 244.68 71.7309 243.984C71.3709 243.276 71.1909 242.436 71.1909 241.464C71.1909 240.492 71.3709 239.658 71.7309 238.962C72.0909 238.254 72.6009 237.714 73.2609 237.342C73.9209 236.958 74.7009 236.766 75.6009 236.766C76.5009 236.766 77.2809 236.958 77.9409 237.342C78.6129 237.714 79.1289 238.254 79.4889 238.962C79.8609 239.658 80.0469 240.492 80.0469 241.464C80.0469 242.436 79.8609 243.276 79.4889 243.984C79.1289 244.68 78.6129 245.22 77.9409 245.604C77.2809 245.976 76.5009 246.162 75.6009 246.162ZM75.6009 244.74C76.3929 244.74 77.0229 244.464 77.4909 243.912C77.9589 243.36 78.1929 242.544 78.1929 241.464C78.1929 240.384 77.9589 239.574 77.4909 239.034C77.0229 238.482 76.3929 238.206 75.6009 238.206C74.8209 238.206 74.1969 238.482 73.7289 239.034C73.2609 239.574 73.0269 240.384 73.0269 241.464C73.0269 242.544 73.2609 243.36 73.7289 243.912C74.1969 244.464 74.8209 244.74 75.6009 244.74ZM82.1358 246V239.178C82.1358 238.806 82.1238 238.434 82.0998 238.062C82.0878 237.678 82.0638 237.3 82.0278 236.928H83.7918L83.9898 239.268H83.7018C83.8218 238.704 84.0258 238.236 84.3138 237.864C84.6018 237.492 84.9498 237.216 85.3578 237.036C85.7778 236.856 86.2158 236.766 86.6718 236.766C86.8638 236.766 87.0258 236.778 87.1578 236.802C87.2898 236.814 87.4218 236.838 87.5538 236.874L87.5358 238.494C87.3318 238.41 87.1518 238.362 86.9958 238.35C86.8518 238.326 86.6718 238.314 86.4558 238.314C85.9278 238.314 85.4778 238.434 85.1058 238.674C84.7338 238.902 84.4518 239.214 84.2598 239.61C84.0678 240.006 83.9718 240.432 83.9718 240.888V246H82.1358ZM96.4198 246L92.5318 236.928H94.4758L97.5358 244.506H97.0138L100.128 236.928H101.982L98.0758 246H96.4198ZM106.722 246.162C105.918 246.162 105.216 245.976 104.616 245.604C104.016 245.232 103.548 244.692 103.212 243.984C102.888 243.276 102.726 242.436 102.726 241.464C102.726 240.48 102.888 239.64 103.212 238.944C103.548 238.248 104.016 237.714 104.616 237.342C105.216 236.958 105.918 236.766 106.722 236.766C107.514 236.766 108.204 236.964 108.792 237.36C109.38 237.756 109.77 238.296 109.962 238.98H109.764L109.944 236.928H111.708C111.672 237.3 111.636 237.672 111.6 238.044C111.576 238.404 111.564 238.758 111.564 239.106V246H109.746V243.984H109.944C109.752 244.656 109.356 245.19 108.756 245.586C108.168 245.97 107.49 246.162 106.722 246.162ZM107.172 244.74C107.952 244.74 108.576 244.464 109.044 243.912C109.524 243.36 109.764 242.544 109.764 241.464C109.764 240.384 109.524 239.574 109.044 239.034C108.576 238.482 107.952 238.206 107.172 238.206C106.38 238.206 105.744 238.482 105.264 239.034C104.796 239.574 104.562 240.384 104.562 241.464C104.562 242.544 104.796 243.36 105.264 243.912C105.732 244.464 106.368 244.74 107.172 244.74ZM118.195 246.162C117.283 246.162 116.485 245.976 115.801 245.604C115.129 245.22 114.607 244.674 114.235 243.966C113.875 243.246 113.695 242.394 113.695 241.41C113.695 240.438 113.881 239.604 114.253 238.908C114.625 238.212 115.147 237.684 115.819 237.324C116.491 236.952 117.283 236.766 118.195 236.766C118.783 236.766 119.353 236.868 119.905 237.072C120.457 237.264 120.913 237.54 121.273 237.9L120.679 239.178C120.343 238.854 119.965 238.614 119.545 238.458C119.125 238.29 118.717 238.206 118.321 238.206C117.457 238.206 116.779 238.482 116.287 239.034C115.795 239.586 115.549 240.384 115.549 241.428C115.549 242.484 115.795 243.294 116.287 243.858C116.779 244.422 117.457 244.704 118.321 244.704C118.705 244.704 119.107 244.632 119.527 244.488C119.947 244.332 120.331 244.086 120.679 243.75L121.273 245.028C120.901 245.388 120.433 245.67 119.869 245.874C119.317 246.066 118.759 246.162 118.195 246.162ZM126.603 246.162C125.799 246.162 125.097 245.976 124.497 245.604C123.897 245.232 123.429 244.692 123.093 243.984C122.769 243.276 122.607 242.436 122.607 241.464C122.607 240.48 122.769 239.64 123.093 238.944C123.429 238.248 123.897 237.714 124.497 237.342C125.097 236.958 125.799 236.766 126.603 236.766C127.395 236.766 128.085 236.964 128.673 237.36C129.261 237.756 129.651 238.296 129.843 238.98H129.645L129.825 236.928H131.589C131.553 237.3 131.517 237.672 131.481 238.044C131.457 238.404 131.445 238.758 131.445 239.106V246H129.627V243.984H129.825C129.633 244.656 129.237 245.19 128.637 245.586C128.049 245.97 127.371 246.162 126.603 246.162ZM127.053 244.74C127.833 244.74 128.457 244.464 128.925 243.912C129.405 243.36 129.645 242.544 129.645 241.464C129.645 240.384 129.405 239.574 128.925 239.034C128.457 238.482 127.833 238.206 127.053 238.206C126.261 238.206 125.625 238.482 125.145 239.034C124.677 239.574 124.443 240.384 124.443 241.464C124.443 242.544 124.677 243.36 125.145 243.912C125.613 244.464 126.249 244.74 127.053 244.74ZM134.098 246V239.106C134.098 238.758 134.08 238.404 134.044 238.044C134.02 237.672 133.99 237.3 133.954 236.928H135.718L135.88 238.836H135.664C135.94 238.164 136.366 237.654 136.942 237.306C137.518 236.946 138.184 236.766 138.94 236.766C140.008 236.766 140.812 237.06 141.352 237.648C141.904 238.236 142.18 239.148 142.18 240.384V246H140.362V240.492C140.362 239.688 140.2 239.112 139.876 238.764C139.564 238.404 139.084 238.224 138.436 238.224C137.668 238.224 137.056 238.464 136.6 238.944C136.144 239.412 135.916 240.048 135.916 240.852V246H134.098ZM148.746 246.162C147.834 246.162 147.036 245.976 146.352 245.604C145.68 245.22 145.158 244.674 144.786 243.966C144.426 243.246 144.246 242.394 144.246 241.41C144.246 240.438 144.432 239.604 144.804 238.908C145.176 238.212 145.698 237.684 146.37 237.324C147.042 236.952 147.834 236.766 148.746 236.766C149.334 236.766 149.904 236.868 150.456 237.072C151.008 237.264 151.464 237.54 151.824 237.9L151.23 239.178C150.894 238.854 150.516 238.614 150.096 238.458C149.676 238.29 149.268 238.206 148.872 238.206C148.008 238.206 147.33 238.482 146.838 239.034C146.346 239.586 146.1 240.384 146.1 241.428C146.1 242.484 146.346 243.294 146.838 243.858C147.33 244.422 148.008 244.704 148.872 244.704C149.256 244.704 149.658 244.632 150.078 244.488C150.498 244.332 150.882 244.086 151.23 243.75L151.824 245.028C151.452 245.388 150.984 245.67 150.42 245.874C149.868 246.066 149.31 246.162 148.746 246.162ZM153.585 250.086L153.153 248.61C153.717 248.49 154.185 248.346 154.557 248.178C154.941 248.01 155.259 247.788 155.511 247.512C155.763 247.248 155.979 246.906 156.159 246.486L156.609 245.424L156.573 246.162L152.631 236.928H154.575L157.635 244.488H157.149L160.209 236.928H162.081L157.923 246.648C157.659 247.248 157.377 247.752 157.077 248.16C156.777 248.568 156.453 248.898 156.105 249.15C155.757 249.402 155.373 249.6 154.953 249.744C154.533 249.888 154.077 250.002 153.585 250.086ZM171.833 246.162C170.849 246.162 170.105 245.898 169.601 245.37C169.097 244.83 168.845 244.026 168.845 242.958V238.332H167.081V236.928H168.845V234.534L170.663 234.048V236.928H173.183V238.332H170.663V242.796C170.663 243.468 170.783 243.948 171.023 244.236C171.263 244.524 171.611 244.668 172.067 244.668C172.295 244.668 172.493 244.65 172.661 244.614C172.841 244.566 173.003 244.512 173.147 244.452V245.928C172.967 246 172.757 246.054 172.517 246.09C172.277 246.138 172.049 246.162 171.833 246.162ZM174.844 246V232.752H176.662V238.854H176.41C176.674 238.17 177.1 237.654 177.688 237.306C178.276 236.946 178.954 236.766 179.722 236.766C180.802 236.766 181.606 237.066 182.134 237.666C182.662 238.254 182.926 239.148 182.926 240.348V246H181.108V240.456C181.108 239.676 180.952 239.112 180.64 238.764C180.34 238.404 179.86 238.224 179.2 238.224C178.432 238.224 177.814 238.464 177.346 238.944C176.89 239.412 176.662 240.036 176.662 240.816V246H174.844ZM188.988 246.162C188.184 246.162 187.482 245.976 186.882 245.604C186.282 245.232 185.814 244.692 185.478 243.984C185.154 243.276 184.992 242.436 184.992 241.464C184.992 240.48 185.154 239.64 185.478 238.944C185.814 238.248 186.282 237.714 186.882 237.342C187.482 236.958 188.184 236.766 188.988 236.766C189.78 236.766 190.47 236.964 191.058 237.36C191.646 237.756 192.036 238.296 192.228 238.98H192.03L192.21 236.928H193.974C193.938 237.3 193.902 237.672 193.866 238.044C193.842 238.404 193.83 238.758 193.83 239.106V246H192.012V243.984H192.21C192.018 244.656 191.622 245.19 191.022 245.586C190.434 245.97 189.756 246.162 188.988 246.162ZM189.438 244.74C190.218 244.74 190.842 244.464 191.31 243.912C191.79 243.36 192.03 242.544 192.03 241.464C192.03 240.384 191.79 239.574 191.31 239.034C190.842 238.482 190.218 238.206 189.438 238.206C188.646 238.206 188.01 238.482 187.53 239.034C187.062 239.574 186.828 240.384 186.828 241.464C186.828 242.544 187.062 243.36 187.53 243.912C187.998 244.464 188.634 244.74 189.438 244.74ZM200.01 246.162C199.026 246.162 198.282 245.898 197.778 245.37C197.274 244.83 197.022 244.026 197.022 242.958V238.332H195.258V236.928H197.022V234.534L198.84 234.048V236.928H201.36V238.332H198.84V242.796C198.84 243.468 198.96 243.948 199.2 244.236C199.44 244.524 199.788 244.668 200.244 244.668C200.472 244.668 200.67 244.65 200.838 244.614C201.018 244.566 201.18 244.512 201.324 244.452V245.928C201.144 246 200.934 246.054 200.694 246.09C200.454 246.138 200.226 246.162 200.01 246.162ZM2.062 273.086L1.63 271.61C2.194 271.49 2.662 271.346 3.034 271.178C3.418 271.01 3.736 270.788 3.988 270.512C4.24 270.248 4.456 269.906 4.636 269.486L5.086 268.424L5.05 269.162L1.108 259.928H3.052L6.112 267.488H5.626L8.686 259.928H10.558L6.4 269.648C6.136 270.248 5.854 270.752 5.554 271.16C5.254 271.568 4.93 271.898 4.582 272.15C4.234 272.402 3.85 272.6 3.43 272.744C3.01 272.888 2.554 273.002 2.062 273.086ZM15.7122 269.162C14.8122 269.162 14.0322 268.976 13.3722 268.604C12.7122 268.22 12.2022 267.68 11.8422 266.984C11.4822 266.276 11.3022 265.436 11.3022 264.464C11.3022 263.492 11.4822 262.658 11.8422 261.962C12.2022 261.254 12.7122 260.714 13.3722 260.342C14.0322 259.958 14.8122 259.766 15.7122 259.766C16.6122 259.766 17.3922 259.958 18.0522 260.342C18.7242 260.714 19.2402 261.254 19.6002 261.962C19.9722 262.658 20.1582 263.492 20.1582 264.464C20.1582 265.436 19.9722 266.276 19.6002 266.984C19.2402 267.68 18.7242 268.22 18.0522 268.604C17.3922 268.976 16.6122 269.162 15.7122 269.162ZM15.7122 267.74C16.5042 267.74 17.1342 267.464 17.6022 266.912C18.0702 266.36 18.3042 265.544 18.3042 264.464C18.3042 263.384 18.0702 262.574 17.6022 262.034C17.1342 261.482 16.5042 261.206 15.7122 261.206C14.9322 261.206 14.3082 261.482 13.8402 262.034C13.3722 262.574 13.1382 263.384 13.1382 264.464C13.1382 265.544 13.3722 266.36 13.8402 266.912C14.3082 267.464 14.9322 267.74 15.7122 267.74ZM25.5052 269.162C24.4132 269.162 23.5912 268.868 23.0392 268.28C22.4992 267.68 22.2292 266.762 22.2292 265.526V259.928H24.0472V265.49C24.0472 266.246 24.2032 266.804 24.5152 267.164C24.8272 267.524 25.3012 267.704 25.9372 267.704C26.6572 267.704 27.2392 267.464 27.6832 266.984C28.1272 266.504 28.3492 265.868 28.3492 265.076V259.928H30.1672V269H28.4032V267.056H28.6372C28.3852 267.728 27.9832 268.25 27.4312 268.622C26.8792 268.982 26.2372 269.162 25.5052 269.162ZM37.6289 269V255.752H39.4469V269H37.6289ZM42.1113 269V259.928H43.9293V269H42.1113ZM41.9673 258.038V256.148H44.0733V258.038H41.9673ZM46.5937 269V255.752H48.4117V263.888H48.4477L52.4077 259.928H54.6577L49.8697 264.698L49.8877 263.888L55.0537 269H52.7497L48.4477 264.842H48.4117V269H46.5937ZM60.1744 269.162C59.1904 269.162 58.3444 268.976 57.6364 268.604C56.9404 268.232 56.4004 267.698 56.0164 267.002C55.6444 266.294 55.4584 265.454 55.4584 264.482C55.4584 263.534 55.6384 262.706 55.9984 261.998C56.3704 261.29 56.8804 260.744 57.5284 260.36C58.1884 259.964 58.9504 259.766 59.8144 259.766C60.6664 259.766 61.3804 259.946 61.9564 260.306C62.5324 260.666 62.9704 261.176 63.2704 261.836C63.5704 262.484 63.7204 263.252 63.7204 264.14V264.716H56.8804V263.672H62.4784L62.1724 263.906C62.1724 263.006 61.9684 262.31 61.5604 261.818C61.1644 261.314 60.5884 261.062 59.8324 261.062C59.2684 261.062 58.7884 261.194 58.3924 261.458C58.0084 261.722 57.7144 262.1 57.5104 262.592C57.3064 263.072 57.2044 263.654 57.2044 264.338V264.518C57.2044 265.586 57.4624 266.39 57.9784 266.93C58.5064 267.47 59.2504 267.74 60.2104 267.74C60.7384 267.74 61.2304 267.668 61.6864 267.524C62.1544 267.368 62.5984 267.116 63.0184 266.768L63.6124 268.01C63.1924 268.382 62.6824 268.67 62.0824 268.874C61.4824 269.066 60.8464 269.162 60.1744 269.162Z" fill="#8C8F9F"/>
<g clip-path="url(#clip1_0_1)">
<path d="M117.695 0.0170154C109.458 0.15312 101.221 1.30151 93.1883 3.53874C69.8631 10.0378 55.6335 36.893 50.8817 59.2142C45.0079 86.8351 47.4306 127.02 64.4824 150.456C78.3041 169.451 112.45 176.971 134.407 177.923C164.099 179.208 213.733 166.167 227.044 136.284C242.388 101.841 219.215 60.7199 197.063 35.013C177.597 12.4196 147.684 -0.484872 117.695 0.0170154Z" fill="#F3F7FC"/>
<path d="M198.049 147.257H77.7005C74.4874 147.257 71.9967 144.654 72.1498 141.456H203.6C203.753 144.654 201.263 147.257 198.049 147.257Z" fill="#3B86C6"/>
<path d="M75.8305 144.671H199.903C202.24 144.671 203.889 143.225 203.583 141.456L194.471 89.1574H81.2537L72.1413 141.456C71.8438 143.225 73.4843 144.671 75.8305 144.671Z" fill="white"/>
<path d="M122.897 142.374H152.836C153.609 142.374 154.221 141.898 154.196 141.311L153.507 125.387C153.482 124.851 152.87 124.417 152.13 124.417H123.603C122.863 124.417 122.243 124.851 122.226 125.387L121.537 141.311C121.512 141.898 122.124 142.374 122.897 142.374Z" fill="#CFE3FD"/>
<path d="M84.5689 93.2916H88.9806C89.3292 93.2916 89.5757 93.4787 89.5417 93.7084L89.4227 94.542C89.3887 94.7717 89.0826 94.9589 88.7341 94.9589H84.2969C83.9484 94.9589 83.7019 94.7717 83.7359 94.542L83.8719 93.7084C83.9144 93.4702 84.2289 93.2916 84.5689 93.2916ZM90.6977 93.6999L90.5787 94.5335C90.5447 94.7632 90.7997 94.9504 91.1482 94.9504H95.5855C95.934 94.9504 96.2315 94.7632 96.2655 94.5335L96.3675 93.6999C96.393 93.4702 96.138 93.2831 95.798 93.2831H91.3863C91.0377 93.2916 90.7317 93.4702 90.6977 93.6999ZM97.5236 93.6999L97.4215 94.5335C97.396 94.7632 97.6511 94.9504 97.9996 94.9504H102.437C102.785 94.9504 103.083 94.7632 103.108 94.5335L103.193 93.6999C103.219 93.4702 102.955 93.2831 102.615 93.2831H98.2036C97.8466 93.2916 97.5491 93.4702 97.5236 93.6999ZM104.341 93.6999L104.256 94.5335C104.23 94.7632 104.494 94.9504 104.842 94.9504H109.28C109.628 94.9504 109.926 94.7632 109.943 94.5335L110.011 93.6999C110.028 93.4702 109.764 93.2831 109.424 93.2831H105.012C104.664 93.2916 104.366 93.4702 104.341 93.6999ZM111.158 93.6999L111.09 94.5335C111.073 94.7632 111.337 94.9504 111.685 94.9504H116.122C116.471 94.9504 116.76 94.7632 116.777 94.5335L116.828 93.6999C116.845 93.4702 116.573 93.2831 116.233 93.2831H111.821C111.473 93.2916 111.175 93.4702 111.158 93.6999ZM117.984 93.6999L117.933 94.5335C117.916 94.7632 118.188 94.9504 118.537 94.9504H122.974C123.322 94.9504 123.611 94.7632 123.62 94.5335L123.654 93.6999C123.662 93.4702 123.39 93.2831 123.05 93.2831H118.639C118.282 93.2916 117.993 93.4702 117.984 93.6999ZM124.801 93.6999L124.767 94.5335C124.759 94.7632 125.031 94.9504 125.379 94.9504H129.817C130.165 94.9504 130.446 94.7632 130.454 94.5335L130.471 93.6999C130.48 93.4702 130.199 93.2831 129.859 93.2831H125.439C125.099 93.2916 124.81 93.4702 124.801 93.6999ZM131.619 93.6999L131.602 94.5335C131.593 94.7632 131.874 94.9504 132.222 94.9504H136.659C137.008 94.9504 137.289 94.7632 137.289 94.5335V93.6999C137.289 93.4702 137.008 93.2831 136.668 93.2831H132.256C131.908 93.2916 131.627 93.4702 131.619 93.6999ZM138.445 93.6999V94.5335C138.445 94.7632 138.725 94.9504 139.074 94.9504H143.511C143.859 94.9504 144.131 94.7632 144.131 94.5335L144.114 93.6999C144.106 93.4702 143.825 93.2831 143.485 93.2831H139.074C138.717 93.2916 138.445 93.4702 138.445 93.6999ZM145.262 93.6999L145.279 94.5335C145.287 94.7632 145.568 94.9504 145.916 94.9504H150.354C150.702 94.9504 150.974 94.7632 150.966 94.5335L150.932 93.6999C150.923 93.4702 150.634 93.2831 150.294 93.2831H145.882C145.534 93.2916 145.253 93.4702 145.262 93.6999ZM152.079 93.6999L152.113 94.5335C152.122 94.7632 152.411 94.9504 152.759 94.9504H157.196C157.545 94.9504 157.809 94.7632 157.8 94.5335L157.749 93.6999C157.732 93.4702 157.443 93.2831 157.103 93.2831H152.691C152.343 93.2916 152.071 93.4702 152.079 93.6999ZM158.905 93.6999L158.956 94.5335C158.973 94.7632 159.262 94.9504 159.611 94.9504H164.048C164.396 94.9504 164.66 94.7632 164.643 94.5335L164.575 93.6999C164.558 93.4702 164.26 93.2831 163.92 93.2831H159.509C159.152 93.2916 158.888 93.4702 158.905 93.6999ZM165.722 93.6999L165.79 94.5335C165.807 94.7632 166.105 94.9504 166.453 94.9504H170.891C171.239 94.9504 171.494 94.7632 171.477 94.5335L171.392 93.6999C171.367 93.4702 171.069 93.2831 170.729 93.2831H166.317C165.969 93.2916 165.705 93.4702 165.722 93.6999ZM172.54 93.6999L172.625 94.5335C172.65 94.7632 172.948 94.9504 173.296 94.9504H177.733C178.082 94.9504 178.337 94.7632 178.312 94.5335L178.209 93.6999C178.184 93.4702 177.878 93.2831 177.538 93.2831H173.126C172.778 93.2916 172.523 93.4702 172.54 93.6999ZM179.366 93.6999L179.468 94.5335C179.493 94.7632 179.799 94.9504 180.148 94.9504H184.585C184.933 94.9504 185.188 94.7632 185.154 94.5335L185.035 93.6999C185.001 93.4702 184.695 93.2831 184.355 93.2831H179.944C179.587 93.2916 179.332 93.4702 179.366 93.6999ZM186.183 93.6999L186.302 94.5335C186.336 94.7632 186.642 94.9504 186.99 94.9504H191.428C191.776 94.9504 192.023 94.7632 191.989 94.5335L191.853 93.6999C191.819 93.4702 191.504 93.2831 191.164 93.2831H186.752C186.404 93.2916 186.149 93.4702 186.183 93.6999ZM182.043 96.0988L182.502 99.5524C182.536 99.7906 182.842 99.9777 183.199 99.9777H192.125C192.473 99.9777 192.728 99.7821 192.694 99.5524L192.133 96.0988C192.099 95.8691 191.785 95.6819 191.436 95.6819H182.621C182.273 95.6734 182.018 95.8606 182.043 96.0988ZM83.5064 96.0988L82.9368 99.5524C82.8943 99.7906 83.1494 99.9777 83.5064 99.9777H88.6831C89.0316 99.9777 89.3462 99.7821 89.3802 99.5524L89.8817 96.0988C89.9157 95.8691 89.6607 95.6819 89.3122 95.6819H84.2034C83.8549 95.6734 83.5404 95.8606 83.5064 96.0988ZM91.0802 96.0988L90.5957 99.5524C90.5617 99.7906 90.8167 99.9777 91.1737 99.9777H96.3505C96.699 99.9777 97.0135 99.7821 97.039 99.5524L97.4556 96.0988C97.4811 95.8691 97.226 95.6819 96.8775 95.6819H91.7688C91.4203 95.6734 91.1142 95.8606 91.0802 96.0988ZM98.6541 96.0988L98.2461 99.5524C98.2206 99.7906 98.4841 99.9777 98.8326 99.9777H104.009C104.358 99.9777 104.664 99.7821 104.689 99.5524L105.029 96.0988C105.055 95.8691 104.791 95.6819 104.443 95.6819H99.3341C98.9771 95.6734 98.6796 95.8606 98.6541 96.0988ZM106.219 96.0988L105.888 99.5524C105.862 99.7906 106.134 99.9777 106.483 99.9777H111.66C112.008 99.9777 112.314 99.7821 112.331 99.5524L112.595 96.0988C112.612 95.8691 112.348 95.6819 112 95.6819H106.891C106.542 95.6734 106.245 95.8606 106.219 96.0988ZM113.793 96.0988L113.547 99.5524C113.53 99.7906 113.802 99.9777 114.15 99.9777H119.327C119.676 99.9777 119.973 99.7821 119.99 99.5524L120.177 96.0988C120.186 95.8691 119.922 95.6819 119.574 95.6819H114.465C114.108 95.6734 113.81 95.8606 113.793 96.0988ZM121.367 96.0988L121.197 99.5524C121.189 99.7906 121.461 99.9777 121.809 99.9777H126.986C127.335 99.9777 127.632 99.7821 127.632 99.5524L127.734 96.0988C127.743 95.8691 127.462 95.6819 127.122 95.6819H122.013C121.673 95.6734 121.376 95.8606 121.367 96.0988ZM128.941 96.0988L128.848 99.5524C128.839 99.7906 129.12 99.9777 129.468 99.9777H134.645C134.993 99.9777 135.282 99.7821 135.282 99.5524L135.308 96.0988C135.308 95.8691 135.027 95.6819 134.679 95.6819H129.57C129.23 95.6734 128.95 95.8606 128.941 96.0988ZM136.515 96.0988L136.498 99.5524C136.498 99.7906 136.778 99.9777 137.135 99.9777H142.312C142.661 99.9777 142.941 99.7821 142.941 99.5524L142.89 96.0988C142.89 95.8691 142.601 95.6819 142.253 95.6819H137.144C136.795 95.6734 136.515 95.8606 136.515 96.0988ZM144.089 96.0988L144.157 99.5524C144.165 99.7906 144.446 99.9777 144.803 99.9777H149.98C150.328 99.9777 150.609 99.7821 150.6 99.5524L150.473 96.0988C150.464 95.8691 150.175 95.6819 149.827 95.6819H144.718C144.361 95.6734 144.08 95.8606 144.089 96.0988ZM151.654 96.0988L151.799 99.5524C151.807 99.7906 152.105 99.9777 152.453 99.9777H157.63C157.979 99.9777 158.251 99.7821 158.242 99.5524L158.03 96.0988C158.013 95.8691 157.724 95.6819 157.375 95.6819H152.266C151.926 95.6734 151.646 95.8606 151.654 96.0988ZM159.228 96.0988L159.449 99.5524C159.466 99.7906 159.764 99.9777 160.112 99.9777H165.289C165.637 99.9777 165.909 99.7821 165.892 99.5524L165.603 96.0988C165.586 95.8691 165.289 95.6819 164.94 95.6819H159.832C159.483 95.6734 159.22 95.8606 159.228 96.0988ZM166.802 96.0988L167.099 99.5524C167.116 99.7906 167.422 99.9777 167.771 99.9777H172.956C173.305 99.9777 173.568 99.7821 173.543 99.5524L173.177 96.0988C173.152 95.8691 172.854 95.6819 172.506 95.6819H167.397C167.048 95.6734 166.785 95.8606 166.802 96.0988ZM174.376 96.0988L174.758 99.5524C174.784 99.7906 175.09 99.9777 175.438 99.9777H180.615C180.964 99.9777 181.227 99.7821 181.193 99.5524L180.751 96.0988C180.717 95.8691 180.42 95.6819 180.071 95.6819H174.962C174.614 95.6734 174.35 95.8606 174.376 96.0988ZM92.5253 104.792L93.0013 101.228C93.0353 100.99 92.7718 100.794 92.4233 100.794H83.4724C83.1239 100.794 82.8008 100.99 82.7668 101.228L82.1888 104.792C82.1463 105.039 82.4098 105.235 82.7668 105.235H91.8368C92.1768 105.235 92.4913 105.031 92.5253 104.792ZM193.646 104.792L193.06 101.228C193.017 100.99 192.703 100.794 192.354 100.794H187.16C186.812 100.794 186.548 100.99 186.582 101.228L187.101 104.792C187.135 105.039 187.458 105.235 187.815 105.235H193.077C193.434 105.235 193.689 105.031 193.646 104.792ZM185.877 104.792L185.375 101.228C185.341 100.99 185.027 100.794 184.678 100.794H179.485C179.136 100.794 178.873 100.99 178.898 101.228L179.332 104.792C179.366 105.039 179.672 105.235 180.029 105.235H185.29C185.656 105.235 185.911 105.031 185.877 104.792ZM178.107 104.792L177.691 101.228C177.665 100.99 177.351 100.794 177.002 100.794H171.809C171.46 100.794 171.188 100.99 171.214 101.228L171.562 104.792C171.588 105.039 171.894 105.235 172.251 105.235H177.512C177.869 105.235 178.133 105.031 178.107 104.792ZM170.338 104.792L169.998 101.228C169.973 100.99 169.675 100.794 169.318 100.794H164.124C163.776 100.794 163.504 100.99 163.521 101.228L163.793 104.792C163.81 105.039 164.116 105.235 164.473 105.235H169.735C170.092 105.235 170.364 105.031 170.338 104.792ZM162.569 104.792L162.314 101.228C162.297 100.99 161.999 100.794 161.642 100.794H156.448C156.1 100.794 155.819 100.99 155.836 101.228L156.023 104.792C156.04 105.039 156.338 105.235 156.695 105.235H161.957C162.305 105.235 162.586 105.031 162.569 104.792ZM154.799 104.792L154.621 101.228C154.612 100.99 154.315 100.794 153.958 100.794H148.764C148.416 100.794 148.135 100.99 148.144 101.228L148.254 104.792C148.263 105.039 148.56 105.235 148.917 105.235H154.179C154.527 105.235 154.808 105.031 154.799 104.792ZM147.021 104.792L146.928 101.228C146.919 100.99 146.63 100.794 146.282 100.794H141.088C140.74 100.794 140.451 100.99 140.451 101.228L140.476 104.792C140.476 105.039 140.765 105.235 141.122 105.235H146.384C146.749 105.235 147.03 105.031 147.021 104.792ZM139.252 104.792L139.235 101.228C139.235 100.99 138.946 100.794 138.598 100.794H133.404C133.055 100.794 132.766 100.99 132.758 101.228L132.707 104.792C132.707 105.039 132.987 105.235 133.344 105.235H138.606C138.963 105.235 139.252 105.031 139.252 104.792ZM131.483 104.792L131.551 101.228C131.559 100.99 131.27 100.794 130.922 100.794H125.728C125.379 100.794 125.082 100.99 125.073 101.228L124.937 104.792C124.929 105.039 125.209 105.235 125.566 105.235H130.828C131.185 105.235 131.474 105.031 131.483 104.792ZM123.713 104.792L123.858 101.228C123.866 100.99 123.594 100.794 123.237 100.794H118.044C117.695 100.794 117.398 100.99 117.381 101.228L117.168 104.792C117.151 105.039 117.432 105.235 117.789 105.235H123.05C123.407 105.235 123.705 105.031 123.713 104.792ZM115.944 104.792L116.173 101.228C116.19 100.99 115.918 100.794 115.561 100.794H110.368C110.019 100.794 109.713 100.99 109.696 101.228L109.399 104.792C109.382 105.039 109.654 105.235 110.011 105.235H115.272C115.621 105.235 115.927 105.031 115.944 104.792ZM108.166 104.792L108.481 101.228C108.498 100.99 108.234 100.794 107.877 100.794H102.683C102.335 100.794 102.029 100.99 102.003 101.228L101.621 104.792C101.595 105.039 101.859 105.235 102.216 105.235H107.478C107.843 105.235 108.149 105.031 108.166 104.792ZM100.397 104.792L100.788 101.228C100.813 100.99 100.55 100.794 100.201 100.794H95.0074C94.6589 100.794 94.3444 100.99 94.3104 101.228L93.8514 104.792C93.8174 105.039 94.0809 105.235 94.4379 105.235H99.6997C100.057 105.235 100.371 105.031 100.397 104.792ZM177.342 115.783L176.917 111.989C176.892 111.734 176.569 111.53 176.212 111.53H170.857C170.491 111.53 170.219 111.734 170.245 111.989L170.602 115.783C170.627 116.047 170.942 116.251 171.316 116.251H176.747C177.096 116.251 177.368 116.038 177.342 115.783ZM195.193 115.783L194.573 111.989C194.53 111.734 194.207 111.53 193.842 111.53H179.017C178.652 111.53 178.38 111.734 178.414 111.989L178.856 115.783C178.89 116.047 179.213 116.251 179.578 116.251H194.607C194.972 116.251 195.236 116.038 195.193 115.783ZM169.318 115.783L168.978 111.989C168.953 111.734 168.638 111.53 168.281 111.53H162.926C162.56 111.53 162.28 111.734 162.297 111.989L162.56 115.783C162.577 116.047 162.892 116.251 163.257 116.251H168.689C169.063 116.251 169.344 116.038 169.318 115.783ZM161.294 115.783L161.039 111.989C161.022 111.734 160.716 111.53 160.35 111.53H154.995C154.629 111.53 154.349 111.734 154.357 111.989L154.536 115.783C154.544 116.047 154.859 116.251 155.224 116.251H160.656C161.03 116.251 161.311 116.038 161.294 115.783ZM153.278 115.783L153.108 111.989C153.099 111.734 152.793 111.53 152.428 111.53H147.072C146.707 111.53 146.418 111.734 146.426 111.989L146.52 115.783C146.528 116.047 146.826 116.251 147.2 116.251H152.632C152.997 116.251 153.286 116.038 153.278 115.783ZM145.253 115.783L145.177 111.989C145.168 111.734 144.871 111.53 144.505 111.53H139.15C138.785 111.53 138.496 111.734 138.496 111.989L138.504 115.783C138.504 116.047 138.802 116.251 139.176 116.251H144.607C144.964 116.251 145.262 116.038 145.253 115.783ZM137.229 115.783L137.238 111.989C137.238 111.734 136.94 111.53 136.583 111.53H131.228C130.862 111.53 130.565 111.734 130.556 111.989L130.48 115.783C130.471 116.047 130.769 116.251 131.134 116.251H136.566C136.931 116.251 137.229 116.038 137.229 115.783ZM129.213 115.783L129.307 111.989C129.315 111.734 129.026 111.53 128.661 111.53H123.305C122.94 111.53 122.642 111.734 122.625 111.989L122.455 115.783C122.447 116.047 122.736 116.251 123.101 116.251H128.533C128.899 116.251 129.205 116.038 129.213 115.783ZM121.189 115.783L121.367 111.989C121.376 111.734 121.095 111.53 120.73 111.53H115.374C115.009 111.53 114.703 111.734 114.686 111.989L114.431 115.783C114.414 116.047 114.694 116.251 115.068 116.251H120.5C120.866 116.251 121.18 116.038 121.189 115.783ZM113.164 115.783L113.428 111.989C113.445 111.734 113.164 111.53 112.799 111.53H107.444C107.078 111.53 106.764 111.734 106.747 111.989L106.406 115.783C106.381 116.047 106.661 116.251 107.036 116.251H112.467C112.833 116.251 113.147 116.038 113.164 115.783ZM105.148 115.783L105.505 111.989C105.531 111.734 105.25 111.53 104.893 111.53H99.5382C99.1726 111.53 98.8581 111.734 98.8326 111.989L98.4076 115.783C98.3821 116.047 98.6541 116.251 99.0196 116.251H104.451C104.8 116.251 105.123 116.038 105.148 115.783ZM96.869 115.783L97.311 111.989C97.3365 111.734 97.073 111.53 96.7075 111.53H81.8828C81.5173 111.53 81.1943 111.734 81.1518 111.989L80.5312 115.783C80.4887 116.047 80.7522 116.251 81.1178 116.251H96.1465C96.5205 116.251 96.8435 116.038 96.869 115.783ZM181.508 110.194L181.04 106.519C181.006 106.273 180.692 106.077 180.335 106.077H175.064C174.707 106.077 174.435 106.273 174.461 106.519L174.852 110.194C174.877 110.449 175.192 110.653 175.557 110.653H180.904C181.27 110.653 181.542 110.449 181.508 110.194ZM173.611 110.194L173.228 106.519C173.203 106.273 172.888 106.077 172.531 106.077H167.261C166.904 106.077 166.632 106.273 166.649 106.519L166.955 110.194C166.98 110.449 167.286 110.653 167.652 110.653H172.999C173.364 110.653 173.636 110.449 173.611 110.194ZM165.722 110.194L165.425 106.519C165.408 106.273 165.102 106.077 164.745 106.077H159.475C159.118 106.077 158.837 106.273 158.854 106.519L159.075 110.194C159.092 110.449 159.398 110.653 159.764 110.653H165.11C165.459 110.653 165.739 110.449 165.722 110.194ZM157.826 110.194L157.613 106.519C157.596 106.273 157.298 106.077 156.941 106.077H151.671C151.314 106.077 151.034 106.273 151.042 106.519L151.187 110.194C151.195 110.449 151.501 110.653 151.858 110.653H157.205C157.553 110.653 157.843 110.449 157.826 110.194ZM149.929 110.194L149.801 106.519C149.793 106.273 149.495 106.077 149.138 106.077H143.868C143.511 106.077 143.222 106.273 143.23 106.519L143.29 110.194C143.29 110.449 143.587 110.653 143.953 110.653H149.3C149.648 110.653 149.937 110.449 149.929 110.194ZM142.032 110.194L141.989 106.519C141.989 106.273 141.692 106.077 141.335 106.077H136.064C135.707 106.077 135.418 106.273 135.41 106.519L135.384 110.194C135.384 110.449 135.673 110.653 136.039 110.653H141.386C141.751 110.653 142.04 110.449 142.032 110.194ZM134.143 110.194L134.186 106.519C134.186 106.273 133.897 106.077 133.54 106.077H128.27C127.913 106.077 127.615 106.273 127.607 106.519L127.496 110.194C127.488 110.449 127.777 110.653 128.142 110.653H133.489C133.846 110.653 134.135 110.449 134.143 110.194ZM126.246 110.194L126.374 106.519C126.382 106.273 126.102 106.077 125.745 106.077H120.475C120.118 106.077 119.82 106.273 119.803 106.519L119.608 110.194C119.591 110.449 119.88 110.653 120.237 110.653H125.583C125.94 110.653 126.238 110.449 126.246 110.194ZM118.35 110.194L118.554 106.519C118.571 106.273 118.29 106.077 117.933 106.077H112.663C112.306 106.077 112 106.273 111.983 106.519L111.702 110.194C111.685 110.449 111.966 110.653 112.323 110.653H117.67C118.035 110.653 118.341 110.449 118.35 110.194ZM110.461 110.194L110.75 106.519C110.767 106.273 110.495 106.077 110.138 106.077H104.868C104.511 106.077 104.196 106.273 104.179 106.519L103.814 110.194C103.788 110.449 104.06 110.653 104.426 110.653H109.773C110.13 110.653 110.436 110.449 110.461 110.194ZM102.564 110.194L102.938 106.519C102.964 106.273 102.692 106.077 102.335 106.077H97.0645C96.7075 106.077 96.393 106.273 96.359 106.519L95.917 110.194C95.883 110.449 96.155 110.653 96.5205 110.653H101.867C102.224 110.653 102.539 110.449 102.564 110.194ZM194.403 110.194L193.799 106.519C193.757 106.273 193.434 106.077 193.077 106.077H182.987C182.63 106.077 182.366 106.273 182.4 106.519L182.876 110.194C182.91 110.449 183.233 110.653 183.59 110.653H193.816C194.19 110.653 194.445 110.449 194.403 110.194ZM94.4974 110.194L94.9564 106.519C94.9904 106.273 94.7184 106.077 94.3614 106.077H82.6903C82.3333 106.077 82.0103 106.273 81.9678 106.519L81.3643 110.194C81.3218 110.449 81.5853 110.653 81.9423 110.653H93.7834C94.1489 110.653 94.4719 110.449 94.4974 110.194ZM113.147 117.629L112.875 121.55C112.858 121.823 113.147 122.035 113.521 122.035H154.06C154.434 122.035 154.731 121.814 154.714 121.55L154.527 117.629C154.519 117.365 154.204 117.153 153.839 117.153H113.844C113.479 117.153 113.164 117.365 113.147 117.629ZM163.784 121.542L163.504 117.62C163.487 117.357 163.172 117.144 162.798 117.144H157.358C156.992 117.144 156.703 117.357 156.712 117.62L156.924 121.542C156.941 121.814 157.256 122.027 157.63 122.027H163.147C163.512 122.035 163.801 121.814 163.784 121.542ZM110.665 121.542L110.963 117.62C110.98 117.357 110.699 117.144 110.334 117.144H104.893C104.528 117.144 104.205 117.357 104.179 117.62L103.805 121.542C103.78 121.814 104.06 122.027 104.434 122.027H109.951C110.325 122.035 110.64 121.814 110.665 121.542ZM102.513 121.542L102.904 117.62C102.93 117.357 102.649 117.144 102.284 117.144H96.8435C96.478 117.144 96.1465 117.357 96.121 117.62L95.662 121.542C95.628 121.814 95.9085 122.027 96.2825 122.027H101.799C102.156 122.035 102.479 121.814 102.513 121.542ZM94.3529 121.542L94.8289 117.62C94.8629 117.357 94.5909 117.144 94.2169 117.144H88.7766C88.4111 117.144 88.0796 117.357 88.0371 117.62L87.4846 121.542C87.4506 121.814 87.7226 122.027 88.0966 122.027H93.6134C93.9959 122.035 94.3274 121.814 94.3529 121.542ZM86.201 121.542L86.7705 117.62C86.8045 117.357 86.541 117.144 86.167 117.144H80.7267C80.3612 117.144 80.0212 117.357 79.9787 117.62L79.3412 121.542C79.2987 121.814 79.5622 122.027 79.9362 122.027H85.453C85.827 122.035 86.167 121.814 86.201 121.542ZM196.392 121.542L195.754 117.62C195.712 117.357 195.38 117.144 195.006 117.144H189.566C189.201 117.144 188.929 117.357 188.963 117.62L189.532 121.542C189.575 121.814 189.906 122.027 190.28 122.027H195.797C196.171 122.035 196.434 121.814 196.392 121.542ZM188.24 121.542L187.687 117.62C187.653 117.357 187.322 117.144 186.948 117.144H181.508C181.142 117.144 180.862 117.357 180.896 117.62L181.372 121.542C181.406 121.814 181.737 122.027 182.111 122.027H187.628C188.002 122.035 188.282 121.814 188.24 121.542ZM180.088 121.542L179.629 117.62C179.595 117.357 179.272 117.144 178.907 117.144H173.466C173.101 117.144 172.82 117.357 172.846 117.62L173.237 121.542C173.262 121.814 173.585 122.027 173.959 122.027H179.476C179.842 122.035 180.122 121.814 180.088 121.542ZM171.936 121.542L171.562 117.62C171.537 117.357 171.214 117.144 170.848 117.144H165.408C165.042 117.144 164.753 117.357 164.779 117.62L165.076 121.542C165.093 121.814 165.416 122.027 165.79 122.027H171.307C171.681 122.035 171.962 121.814 171.936 121.542Z" fill="#3B86C6"/>
<path d="M203.583 141.711C203.464 141.711 203.354 141.626 203.328 141.498L194.216 89.1999C194.19 89.0638 194.284 88.9277 194.42 88.9022C194.564 88.8767 194.692 88.9702 194.717 89.1063L203.83 141.405C203.855 141.541 203.762 141.677 203.626 141.702C203.609 141.711 203.6 141.711 203.583 141.711Z" fill="#3B86C6"/>
<path d="M84.6708 16.5623H191.054C192.941 16.5623 194.471 18.0935 194.471 19.9819V89.1574H81.2537V19.9819C81.2537 18.0935 82.7837 16.5623 84.6708 16.5623Z" fill="#3B86C6"/>
<path d="M191.249 21.9895H84.4753V83.7302H191.249V21.9895Z" fill="#CFE3FD"/>
<path d="M103.703 72.3824C103.635 72.3824 103.576 72.3569 103.525 72.3058C103.423 72.2038 103.423 72.0421 103.525 71.9486L143.409 32.0357C143.511 31.9336 143.672 31.9336 143.766 32.0357C143.868 32.1378 143.868 32.2994 143.766 32.393L103.882 72.3143C103.831 72.3654 103.763 72.3824 103.703 72.3824Z" fill="white"/>
<path d="M106.287 57.3768C106.219 57.3768 106.16 57.3513 106.109 57.3003C106.007 57.1982 106.007 57.0365 106.109 56.943L125.753 37.2843C125.855 37.1822 126.017 37.1822 126.11 37.2843C126.212 37.3864 126.212 37.548 126.11 37.6416L106.466 57.3003C106.415 57.3513 106.355 57.3768 106.287 57.3768Z" fill="white"/>
<path d="M194.471 89.4126C194.326 89.4126 194.216 89.302 194.216 89.1574V19.9819C194.216 19.8373 194.326 19.7267 194.471 19.7267C194.615 19.7267 194.726 19.8373 194.726 19.9819V89.1574C194.726 89.2935 194.615 89.4126 194.471 89.4126Z" fill="#4324AA"/>
<path d="M112.884 102.683L106.287 104.452C106.389 104.035 106.44 103.593 106.525 103.074C106.576 102.759 106.279 102.496 105.973 102.581L96.1464 105.218C95.5429 105.379 94.9649 105.805 94.6334 106.375C92.8568 109.454 89.8901 114.601 89.8901 114.601L98.5776 116.132L110.028 108.808C112.918 107.617 113.3 105.167 113.581 103.295C113.632 102.904 113.275 102.572 112.884 102.683Z" fill="#FFC3A5"/>
<path d="M125.813 107.217L113.734 110.585C113.734 110.585 113.283 110.73 112.943 110.943C112.943 110.943 118.681 104.137 118.877 103.899C121.019 101.356 120.177 98.8549 119.523 96.9579C119.387 96.5581 118.877 96.4305 118.571 96.7112L99.4277 114.252C99.4277 114.252 96.461 112.533 96.121 112.338C94.0809 111.155 91.4628 111.861 90.2897 113.903C87.6801 118.42 87.6801 118.42 83.3364 125.957C82.1123 128.075 82.1038 130.559 83.0899 132.609L70.6453 154.173L89.2442 167.333L99.1812 143.242C100.796 143.897 102.649 143.974 104.417 143.276C107.002 142.272 123.764 135.731 123.764 135.731C124.155 135.578 124.266 135.067 123.968 134.77C123.127 133.919 121.07 131.384 117.457 132.286L111.651 133.732C110.963 132.847 110.104 132.107 109.152 131.512C109.773 127.148 110.249 124.723 110.699 121.066C113.241 118.82 113.7 118.42 116.224 116.191L123.059 113.299C125.889 112.1 126.246 109.684 126.501 107.829C126.552 107.421 126.187 107.106 125.813 107.217Z" fill="#FFDDB4"/>
<path d="M111.464 111.632L104.247 116.744L99.9631 114.269L110.988 104.052C111.09 103.959 111.099 103.797 111.005 103.695C110.912 103.593 110.75 103.585 110.648 103.678L99.5041 114.005L96.2995 112.151L98.9516 107.557C99.3341 106.894 99.9461 106.426 100.686 106.222L105.896 104.826C106.032 104.792 106.117 104.648 106.075 104.512C106.041 104.376 105.896 104.291 105.76 104.333L100.541 105.728C99.6741 105.958 98.9431 106.519 98.4926 107.302L95.8234 111.921C95.1774 111.632 94.4889 111.487 93.7748 111.521C93.6303 111.53 93.5283 111.649 93.5283 111.785C93.5368 111.929 93.6473 112.023 93.7918 112.032C94.5654 111.998 95.3134 112.176 95.9849 112.567L109.773 120.538C109.815 120.564 109.858 120.572 109.9 120.572C109.985 120.572 110.07 120.53 110.121 120.445C110.189 120.325 110.147 120.164 110.028 120.096L104.723 117.033L111.753 112.057C111.872 111.972 111.898 111.819 111.813 111.7C111.736 111.572 111.575 111.547 111.464 111.632Z" fill="#FF9189"/>
<path d="M104.315 143.038C101.315 144.212 97.8551 143.098 96.087 140.401C96.0105 140.282 95.849 140.248 95.7384 140.324C95.6194 140.401 95.5854 140.563 95.6619 140.682C97.056 142.808 99.4191 144.008 101.859 144.008C102.751 144.008 103.644 143.846 104.511 143.514C104.647 143.463 104.706 143.319 104.655 143.183C104.596 143.055 104.443 142.987 104.315 143.038Z" fill="#FF9189"/>
<path d="M100.116 149.503L93.4092 163.403L71.7756 150.907L79.4685 137.577L100.116 149.503Z" fill="white"/>
<path d="M98.9771 151.732C98.9346 151.732 98.8921 151.723 98.8496 151.698C98.7306 151.63 98.6881 151.468 98.7561 151.349L99.7677 149.597L79.8342 138.079C79.7152 138.011 79.6727 137.849 79.7407 137.73C79.8087 137.611 79.9702 137.568 80.0892 137.636L100.244 149.282C100.363 149.35 100.405 149.512 100.337 149.631L99.1982 151.604C99.1472 151.689 99.0622 151.732 98.9771 151.732Z" fill="#CFE3FD"/>
<path d="M68.2056 154.811C74.2494 160.961 82.5543 165.699 91.6497 169.238L99.9546 152.046L77.335 138.98L68.2056 154.811Z" fill="#3B86C6"/>
<path d="M91.9132 169.332L100.193 152.157C100.252 152.038 100.21 151.893 100.091 151.825L77.964 139.04C77.845 138.972 77.6835 139.014 77.6155 139.133C77.5475 139.253 77.59 139.414 77.709 139.482L99.6315 152.149L91.4371 169.145C91.5901 169.213 91.7517 169.272 91.9132 169.332Z" fill="#4324AA"/>
<path d="M179.757 109.148C177.623 105.456 176.688 103.831 174.911 100.752C174.597 100.207 174.036 99.765 173.398 99.5864L163.572 96.9494C163.266 96.8643 162.968 97.128 163.019 97.4428C163.096 97.9617 163.147 98.404 163.257 98.8208L156.661 97.0515C156.278 96.9494 155.913 97.2726 155.972 97.6724C156.125 98.7017 156.27 101.841 159.526 103.185L171.486 111.521L179.757 109.148Z" fill="#FFC3A5"/>
<path d="M199.945 150.371L186.455 126.995C187.441 124.945 187.424 122.461 186.208 120.342C181.865 112.814 181.865 112.806 179.255 108.297C178.073 106.256 175.455 105.55 173.415 106.732C167.533 110.135 176.025 105.226 170.134 108.629C170.134 108.629 163.665 102.768 160.299 99.6715C159.959 99.3567 159.509 99.2121 159.05 99.2717L144.811 100.93C144.386 100.982 144.157 101.441 144.369 101.815C144.922 102.768 146.299 105.822 150.039 105.864L152.062 105.89L142.44 111.436C142.1 111.632 142.074 112.117 142.389 112.346C143.239 112.976 145.5 115.051 148.705 113.707L154.264 111.385C156.015 112.925 156.652 113.495 158.846 115.426C159.262 118.803 159.696 121.125 160.248 124.893C159.798 125.132 159.364 125.404 158.956 125.71L153.703 122.843C150.787 121.253 148.509 122.58 146.775 123.6C146.409 123.813 146.384 124.332 146.724 124.587C146.724 124.587 161.285 135.161 163.529 136.794C165.603 138.3 168.188 138.504 170.364 137.628L180.292 161.718L199.945 150.371Z" fill="#FFDDB4"/>
<path d="M175.761 105.898C175.056 105.864 174.359 106.009 173.713 106.298L171.044 101.679C170.593 100.896 169.87 100.344 169.003 100.105L163.784 98.7103C163.648 98.6762 163.512 98.7528 163.47 98.8889C163.436 99.025 163.512 99.1611 163.648 99.2036L168.859 100.599C169.598 100.794 170.21 101.271 170.593 101.934L173.245 106.528L170.04 108.382L160.843 99.7225C160.291 99.2036 159.534 98.9569 158.794 99.042L157.154 99.2292C157.018 99.2462 156.916 99.3738 156.933 99.5099C156.95 99.646 157.06 99.7481 157.213 99.731L158.854 99.5439C159.457 99.4758 160.052 99.6715 160.495 100.088L169.581 108.646L165.289 111.121L156.601 104.92C155.496 104.299 154.255 104.316 153.167 104.946L152.785 105.167C152.666 105.235 152.623 105.396 152.691 105.516C152.742 105.601 152.827 105.643 152.912 105.643C152.955 105.643 152.997 105.635 153.04 105.609L153.422 105.388C154.349 104.852 155.411 104.843 156.321 105.354L164.804 111.411L159.491 114.481C159.372 114.549 159.33 114.711 159.398 114.83C159.449 114.915 159.534 114.958 159.619 114.958C159.661 114.958 159.704 114.949 159.746 114.924L165.382 111.666L173.534 106.953C174.206 106.57 174.954 106.383 175.727 106.417C175.872 106.417 175.991 106.315 175.991 106.171C176.016 106.026 175.906 105.907 175.761 105.898Z" fill="#FF9189"/>
<path d="M172.319 136.122C169.922 138.283 166.3 138.478 163.691 136.59C163.58 136.505 163.419 136.53 163.334 136.65C163.249 136.76 163.274 136.922 163.393 137.007C164.677 137.943 166.198 138.402 167.711 138.402C169.497 138.402 171.273 137.764 172.659 136.505C172.761 136.411 172.769 136.25 172.676 136.148C172.582 136.037 172.421 136.029 172.319 136.122Z" fill="#FF9189"/>
<path d="M170.44 143.719L177.138 157.618L198.772 145.122L191.087 131.792L170.44 143.719Z" fill="white"/>
<path d="M171.579 145.947C171.494 145.947 171.409 145.905 171.358 145.82L170.219 143.846C170.185 143.787 170.177 143.718 170.194 143.65C170.211 143.582 170.253 143.531 170.313 143.497L190.467 131.852C190.586 131.784 190.748 131.826 190.816 131.945C190.884 132.064 190.841 132.226 190.722 132.294L170.789 143.812L171.8 145.564C171.868 145.684 171.826 145.845 171.707 145.913C171.664 145.939 171.622 145.947 171.579 145.947Z" fill="#CFE3FD"/>
<path d="M193.213 133.196L170.593 146.262L182.281 170.446C191.385 167.333 200.123 163.25 207.604 158.129L193.213 133.196Z" fill="#3B86C6"/>
<path d="M170.925 146.373L192.847 133.706C192.966 133.638 193.009 133.477 192.941 133.357C192.873 133.238 192.72 133.196 192.592 133.264L170.466 146.049C170.347 146.117 170.304 146.262 170.364 146.381L182.009 170.54C182.171 170.489 182.332 170.429 182.494 170.37L170.925 146.373Z" fill="#4324AA"/>
</g>
</g>
<defs>
<clipPath id="clip0_0_1">
<rect width="1440" height="2026" fill="white" transform="translate(-434 -907)"/>
</clipPath>
<clipPath id="clip1_0_1">
<rect width="184" height="178" fill="white" transform="translate(48)"/>
</clipPath>
</defs>
</svg>
